<svg width="180" height="51" viewBox="0 0 180 51" fill="none" xmlns="http://www.w3.org/2000/svg">
<path d="M21.0322 0.373617C26.9206 -0.648166 32.981 0.441473 38.1445 3.45077C41.7368 5.54437 44.7335 8.47406 46.9033 11.9576C48.6892 9.09272 51.039 6.59759 53.8291 4.63338C58.1042 1.62383 63.2045 0.00846141 68.4326 0.00838284C73.6609 0.00838284 78.7619 1.62376 83.0371 4.63338C85.8274 6.59775 88.177 9.09341 89.9629 11.9586C91.7487 9.09342 94.0984 6.59776 96.8887 4.63338C101.164 1.62376 106.265 0.00838284 111.493 0.00838284C116.721 0.00841741 121.822 1.62381 126.097 4.63338C128.887 6.59757 131.237 9.09273 133.022 11.9576C134.809 9.09049 137.16 6.59275 139.952 4.62752C144.229 1.61713 149.333 0.00256283 154.563 0.00447659H154.565C159.209 0.00847994 163.763 1.28728 167.729 3.70174C171.696 6.11632 174.924 9.57459 177.061 13.6978C179.197 17.821 180.16 22.4515 179.845 27.0846C179.53 31.7176 177.949 36.1752 175.274 39.9713C172.6 43.7674 168.934 46.7564 164.677 48.6119C160.42 50.4674 155.735 51.1193 151.133 50.4947C146.531 49.8702 142.189 47.9938 138.581 45.0709C136.382 43.2893 134.508 41.1587 133.024 38.7779C131.238 41.6443 128.888 44.141 126.097 46.106C121.822 49.1156 116.721 50.731 111.493 50.731C106.265 50.731 101.164 49.1157 96.8887 46.106C94.0982 44.1415 91.7488 41.6453 89.9629 38.7799C88.177 41.6453 85.8276 44.1415 83.0371 46.106C78.7619 49.1157 73.6609 50.731 68.4326 50.731C63.2045 50.731 58.1042 49.1156 53.8291 46.106C51.0388 44.1417 48.6892 41.646 46.9033 38.7808C44.7335 42.2647 41.737 45.1949 38.1445 47.2887C32.981 50.298 26.9206 51.3876 21.0322 50.3658C15.144 49.344 9.80571 46.2764 5.95801 41.7037C2.11024 37.1307 1.66093e-05 31.3461 0 25.3697C0 19.3933 2.11022 13.6087 5.95801 9.03573C9.80571 4.46294 15.144 1.39545 21.0322 0.373617ZM5 25.3697C5.00002 30.1681 6.69399 34.8123 9.7832 38.484C12.8727 42.1557 17.1598 44.6196 21.8877 45.44C26.6154 46.2603 31.4812 45.3854 35.627 42.9693C39.7728 40.5531 42.9322 36.75 44.5488 32.232L49.2568 32.231C50.6727 36.183 53.2744 39.6017 56.707 42.0182C60.1395 44.4345 64.2349 45.731 68.4326 45.731C72.6305 45.731 76.7266 44.4346 80.1592 42.0182C83.5917 39.6017 86.1936 36.1829 87.6094 32.231H92.3164C93.7322 36.183 96.335 39.6017 99.7676 42.0182C103.2 44.4344 107.295 45.731 111.493 45.731C115.691 45.731 119.786 44.4345 123.219 42.0182C126.651 39.6017 129.254 36.183 130.67 32.231H135.377C136.634 35.7409 138.831 38.8384 141.729 41.1851C144.626 43.5318 148.111 45.0382 151.806 45.5396C155.5 46.041 159.261 45.5185 162.679 44.0289C166.096 42.5392 169.039 40.1391 171.187 37.0914C173.334 34.0437 174.604 30.4653 174.856 26.7457C175.109 23.026 174.336 19.3079 172.621 15.9976C170.906 12.6874 168.314 9.91174 165.13 7.97323C161.945 6.03471 158.289 5.00764 154.561 5.00448C150.361 5.00317 146.264 6.29953 142.83 8.71639C139.396 11.1335 136.793 14.5536 135.377 18.5074H130.67C129.254 14.5556 126.651 11.1377 123.219 8.72127C119.786 6.30489 115.691 5.00842 111.493 5.00838C107.295 5.00838 103.2 6.30496 99.7676 8.72127C96.3351 11.1377 93.7322 14.5556 92.3164 18.5074H87.6094C86.1935 14.5557 83.5916 11.1377 80.1592 8.72127C76.7266 6.30479 72.6305 5.00838 68.4326 5.00838C64.2349 5.00846 60.1395 6.30487 56.707 8.72127C53.2746 11.1377 50.6727 14.5557 49.2568 18.5074L44.5488 18.5064C42.9321 13.9886 39.7726 10.1862 35.627 7.7701C31.4812 5.35398 26.6155 4.4791 21.8877 5.2994C17.1598 6.1198 12.8726 8.58281 9.7832 12.2545C6.69375 15.9262 5 20.5711 5 25.3697Z" fill="black"/>
<path d="M154.566 34.7725C153.223 34.7725 152.014 34.4681 150.94 33.8592C149.884 33.2325 149.042 32.3193 148.415 31.1195C147.806 29.9019 147.502 28.4425 147.502 26.7413C147.502 23.0167 148.263 20.1606 149.785 18.173C151.325 16.1853 153.528 15.1915 156.393 15.1915C157.377 15.1915 158.255 15.299 159.025 15.5138V17.8238C158.398 17.5552 157.592 17.4209 156.607 17.4209C152.775 17.4209 150.671 19.7219 150.295 24.3239C150.833 23.6435 151.54 23.1331 152.417 22.7929C153.313 22.4348 154.289 22.2557 155.345 22.2557C156.563 22.2557 157.628 22.5064 158.541 23.0078C159.455 23.5092 160.162 24.2254 160.663 25.1566C161.183 26.0877 161.442 27.1711 161.442 28.4066C161.442 29.6243 161.165 30.7166 160.61 31.6836C160.072 32.6505 159.285 33.4116 158.246 33.9667C157.207 34.5039 155.981 34.7725 154.566 34.7725ZM154.566 32.6505C155.82 32.6505 156.822 32.2745 157.574 31.5224C158.344 30.7524 158.729 29.7407 158.729 28.4872C158.729 27.2338 158.344 26.2399 157.574 25.5058C156.822 24.7716 155.82 24.4045 154.566 24.4045C153.796 24.4045 153.089 24.5746 152.444 24.9148C151.817 25.2551 151.316 25.7386 150.94 26.3653C150.582 26.992 150.403 27.7172 150.403 28.5409C150.403 29.2751 150.573 29.9556 150.913 30.5823C151.271 31.209 151.764 31.7104 152.39 32.0865C153.017 32.4625 153.742 32.6505 154.566 32.6505Z" fill="black"/>
<path d="M105.035 32.57L109.091 28.6752C109.449 28.3171 109.951 27.8515 110.595 27.2785C111.616 26.3474 112.395 25.5953 112.932 25.0223C113.469 24.4493 113.908 23.8404 114.248 23.1958C114.588 22.5333 114.758 21.8259 114.758 21.0739C114.758 19.9637 114.436 19.122 113.792 18.549C113.147 17.9581 112.207 17.6626 110.971 17.6626C110.13 17.6626 109.261 17.8149 108.366 18.1193C107.488 18.4237 106.665 18.8713 105.895 19.4623V16.83C107.399 15.7377 109.234 15.1915 111.401 15.1915C113.335 15.1915 114.839 15.7108 115.913 16.7494C116.988 17.7701 117.525 19.1668 117.525 20.9396C117.525 21.7991 117.337 22.6228 116.961 23.4107C116.603 24.1986 116.093 24.9775 115.43 25.7475C114.767 26.4996 113.872 27.4218 112.744 28.5141L109.091 32.0865H118.223V34.3696H105.035V32.57Z" fill="black"/>
<path d="M67.9442 34.7725C66.3326 34.7725 64.9359 34.3785 63.754 33.5906C62.5901 32.8027 61.6948 31.6746 61.068 30.2063C60.4413 28.7379 60.1279 27.001 60.1279 24.9954C60.1279 22.9899 60.4323 21.2529 61.0412 19.7846C61.6679 18.2983 62.5632 17.1613 63.7272 16.3734C64.909 15.5855 66.3147 15.1915 67.9442 15.1915C69.5737 15.1915 70.9704 15.5855 72.1344 16.3734C73.3162 17.1613 74.2115 18.2983 74.8204 19.7846C75.4471 21.2529 75.7605 22.9899 75.7605 24.9954C75.7605 27.001 75.4471 28.7379 74.8204 30.2063C74.1936 31.6746 73.2893 32.8027 72.1075 33.5906C70.9436 34.3785 69.5558 34.7725 67.9442 34.7725ZM67.9442 32.3551C69.5379 32.3551 70.7824 31.7015 71.6777 30.3943C72.591 29.0692 73.0476 27.2785 73.0476 25.0223C73.0476 22.766 72.5999 20.9754 71.7046 19.6503C70.8093 18.3252 69.5558 17.6626 67.9442 17.6626C66.3326 17.6626 65.0791 18.3252 64.1838 19.6503C63.2885 20.9754 62.8408 22.766 62.8408 25.0223C62.8408 27.2785 63.2885 29.0692 64.1838 30.3943C65.097 31.7015 66.3505 32.3551 67.9442 32.3551Z" fill="black"/>
<path d="M17.6611 32.57L21.717 28.6752C22.0751 28.3171 22.5765 27.8515 23.2212 27.2785C24.2418 26.3474 25.0208 25.5953 25.558 25.0223C26.0952 24.4493 26.5339 23.8404 26.8741 23.1958C27.2143 22.5333 27.3845 21.8259 27.3845 21.0739C27.3845 19.9637 27.0621 19.122 26.4175 18.549C25.7729 17.9581 24.8328 17.6626 23.5972 17.6626C22.7556 17.6626 21.8871 17.8149 20.9918 18.1193C20.1143 18.4237 19.2906 18.8713 18.5207 19.4623V16.83C20.0248 15.7377 21.8602 15.1915 24.027 15.1915C25.9609 15.1915 27.465 15.7108 28.5394 16.7494C29.6138 17.7701 30.151 19.1668 30.151 20.9396C30.151 21.7991 29.963 22.6228 29.587 23.4107C29.2288 24.1986 28.7185 24.9775 28.056 25.7475C27.3934 26.4996 26.4981 27.4218 25.37 28.5141L21.717 32.0865H30.8494V34.3696H17.6611V32.57Z" fill="black"/>
</svg>
