<svg width="120" height="31" viewBox="0 0 120 31" fill="none" xmlns="http://www.w3.org/2000/svg">
<g clip-path="url(#clip0_312_4438)">
<path d="M106.279 3.18709C105.68 2.92284 105.395 2.41969 105.435 1.69807C105.458 1.28263 105.496 1.16284 105.679 0.929633C106.014 0.500909 106.437 0.308431 106.95 0.351853C107.916 0.433711 108.475 1.30407 108.202 2.30241C107.989 3.08399 107.038 3.52162 106.279 3.18709ZM116.215 16.9312C116.739 16.6496 117.155 16.1887 117.418 15.599C117.728 14.904 117.821 14.3807 117.834 13.2778L117.845 12.2819L117.146 12.3263C116.353 12.3767 115.303 12.6338 114.734 12.917C114.219 13.1732 113.675 13.6834 113.481 14.0912C113.053 14.9895 113.403 16.3854 114.188 16.9137C114.729 17.2782 115.555 17.2854 116.215 16.9312ZM113.521 18.4751C112.188 18.1747 111.344 17.3193 111.127 16.0493C110.846 14.4093 111.576 13.0464 113.13 12.3099C114.06 11.8692 115.685 11.5348 117.108 11.4911L117.841 11.4686L117.834 10.1984C117.823 8.07931 117.577 7.36312 116.696 6.88586C116.496 6.77727 116.29 6.75055 115.656 6.75055C114.901 6.75055 114.85 6.76036 114.516 6.97022C114.083 7.24245 113.813 7.67442 113.655 8.34744C113.589 8.62689 113.525 8.89636 113.513 8.94627C113.495 9.01412 113.201 9.03702 112.345 9.03702H111.2L111.246 8.72851C111.402 7.66533 112.057 6.71535 112.978 6.21628C113.677 5.83715 114.374 5.68686 115.554 5.66028C118.12 5.60254 119.094 6.20422 119.669 8.20227C119.782 8.59442 119.797 9.11651 119.818 13.4466L119.842 18.2554H118.84H117.838V17.457C117.838 17.0178 117.822 16.6585 117.803 16.6585C117.785 16.6585 117.632 16.8099 117.465 16.9949C116.857 17.6657 116.072 18.1843 115.376 18.3756C114.915 18.5023 113.886 18.5575 113.521 18.4751ZM105.922 13.4103C105.922 10.0285 105.895 8.18058 105.846 7.99879C105.804 7.84696 105.684 7.62606 105.579 7.50792C105.364 7.26746 104.706 7.00461 104.318 7.00461C104.079 7.00461 104.067 6.99264 104.067 6.75193C104.067 6.45308 103.874 6.51232 105.958 6.1704C106.821 6.02871 107.616 5.89454 107.724 5.87224L107.92 5.83168V12.1887V18.5457H106.921H105.922L105.921 13.4103H105.922ZM93.1429 10.6541C93.139 6.31141 93.1235 2.61918 93.1084 2.44912C93.0733 2.05512 92.8525 1.6134 92.5987 1.42971C92.3562 1.25424 91.7093 1.05257 91.389 1.05257C91.1665 1.05257 91.1522 1.03738 91.1522 0.8018C91.1522 0.575527 91.1748 0.547107 91.3841 0.510802C91.9711 0.408944 94.7072 0.0191309 94.8982 0.0101446L95.1122 0V4.73624C95.1122 7.34117 95.1174 9.47249 95.1236 9.47249C95.1299 9.47248 95.2711 9.21932 95.4375 8.90992C96.3342 7.24208 97.1805 6.39795 98.304 6.05081C98.946 5.85244 99.9637 5.88689 100.584 6.12798C101.516 6.49036 102.154 7.62444 102.279 9.14153C102.312 9.54312 102.334 11.8152 102.329 14.1905L102.319 18.5094H101.32H100.321L100.28 13.6099C100.255 10.6178 100.211 8.6114 100.167 8.45627C99.9882 7.83412 99.6401 7.43394 99.1592 7.29809C98.2928 7.05328 97.4756 7.48899 96.6189 8.65271C96.0258 9.45829 95.6382 10.2078 95.3861 11.0366L95.1886 11.6863L95.1504 15.0979L95.1123 18.5094L94.1312 18.5296L93.1501 18.5498L93.1429 10.6541ZM74.0988 16.9058C74.5797 16.6395 74.9173 16.2478 75.2108 15.6154C75.5684 14.8451 75.651 14.4209 75.6638 13.2916L75.6751 12.2836L74.9763 12.3243C74.1372 12.3732 73.0203 12.6576 72.4468 12.9686C71.2339 13.6262 70.8024 14.8397 71.349 16.0554C71.6614 16.7503 72.036 17.0642 72.6652 17.1583C73.1456 17.2301 73.6844 17.1352 74.0988 16.9058ZM71.2451 18.4517C70.3145 18.2345 69.6131 17.6808 69.2052 16.8413C68.99 16.3982 68.9407 16.2085 68.9098 15.7037C68.797 13.8587 69.7684 12.6155 71.8159 11.9851C72.6679 11.7227 73.9216 11.521 74.8764 11.4927L75.6893 11.4686L75.6479 10.0169C75.5895 7.96658 75.3748 7.34787 74.5697 6.90959C74.3198 6.77358 74.1639 6.75055 73.4927 6.75055C72.8252 6.75055 72.6651 6.77391 72.4224 6.9068C71.8942 7.19598 71.6055 7.67442 71.4297 8.55193L71.3398 9.00072L70.1876 9.02064L69.0354 9.04059L69.08 8.69402C69.2365 7.47803 70.0781 6.45363 71.306 5.98442C72.5375 5.5139 74.6012 5.5134 75.8221 5.98326C76.6331 6.29544 77.1473 6.97241 77.4719 8.1555C77.6189 8.69116 77.6251 8.87502 77.6498 13.4828L77.6755 18.2553H76.6722H75.6689V17.4569C75.6689 17.0178 75.6527 16.6585 75.633 16.6585C75.6133 16.6585 75.4805 16.7899 75.3378 16.9505C74.7428 17.6205 73.8976 18.1859 73.2073 18.3755C72.6798 18.5204 71.7023 18.5584 71.2451 18.4517ZM42.6789 16.9469C43.2366 16.6705 43.5815 16.2802 43.923 15.5387C44.2492 14.8306 44.3443 14.2916 44.345 13.1457L44.346 12.2823L43.6503 12.3257C42.8086 12.3783 41.6855 12.6641 41.1239 12.9686C39.9111 13.6262 39.4795 14.8397 40.0261 16.0554C40.331 16.7337 40.6973 17.0497 41.3012 17.1558C41.7891 17.2415 42.2149 17.177 42.6794 16.9469H42.6789ZM39.9217 18.4469C39.0026 18.2437 38.2912 17.6838 37.8818 16.8413C37.6666 16.3982 37.6173 16.2085 37.5865 15.7037C37.4734 13.8558 38.4418 12.6165 40.4925 11.9851C41.3446 11.7227 42.5983 11.521 43.5533 11.4927L44.3664 11.4686L44.3222 10.0128C44.2597 7.95407 44.0806 7.42334 43.2891 6.95145C43.013 6.78689 42.8576 6.75137 42.3056 6.72682C41.5656 6.6939 41.2878 6.76238 40.8487 7.08596C40.5046 7.33957 40.248 7.84445 40.1079 8.54404L40.0164 9.00072L38.8642 9.02064L37.7121 9.04059L37.7566 8.69402C37.856 7.9216 38.3748 6.99056 38.9581 6.53798C39.7008 5.96171 40.9096 5.63296 42.2616 5.63957C44.6606 5.6513 45.633 6.28058 46.149 8.15555C46.2967 8.69201 46.3026 8.86822 46.3265 13.4829L46.3513 18.2554H45.3484H44.3455V17.457C44.3455 17.0178 44.3374 16.6585 44.3275 16.6585C44.3175 16.6585 44.0831 16.8798 43.8066 17.1502C42.964 17.974 42.3422 18.3159 41.4049 18.4706C40.8398 18.5639 40.4209 18.5572 39.9217 18.4469ZM30.7709 13.4103C30.7451 7.72835 30.7609 7.9185 30.2804 7.47697C30.008 7.22659 29.4339 7.00461 29.0588 7.00461C28.8705 7.00461 28.855 6.98509 28.8755 6.77309L28.8979 6.54156L30.5746 6.26708C31.4969 6.11612 32.3558 5.9755 32.4833 5.95461L32.7152 5.91659L32.7184 7.49494L32.7216 9.0733L32.961 8.43611C33.5978 6.7413 34.6051 5.91582 36.0365 5.91582H36.354V7.04579V8.17575L36.1935 8.11642C36.1052 8.08378 35.7279 8.05715 35.3551 8.05723C34.7373 8.05723 34.6434 8.07642 34.2949 8.27267C33.8175 8.54151 33.4702 8.9412 33.2045 9.5275C32.7702 10.4857 32.7657 10.5356 32.734 14.7169L32.705 18.5457H31.7495H30.794L30.7709 13.4103ZM25.0943 18.473C24.1332 18.3352 23.4121 18.0001 23.0917 17.5424C22.5712 16.7987 22.5133 16.1485 22.5151 11.0694L22.5167 6.89572L21.512 6.87555L20.5074 6.85539L20.5286 6.40375L20.5498 5.9521L21.5487 5.93218L22.5476 5.91226L22.5264 4.83977L22.5051 3.76727L23.4681 2.88172C23.9977 2.39467 24.4488 1.99617 24.4704 1.99617C24.4921 1.99617 24.5098 2.87809 24.5098 3.95598C24.5098 5.47339 24.5299 5.91669 24.599 5.91969C24.648 5.9218 25.3785 5.93004 26.2222 5.93784L27.7563 5.9521L27.7775 6.40439L27.7987 6.85668L26.1893 6.87619L24.58 6.89572L24.5779 11.535L24.5758 16.1743L24.7545 16.5434C25.0907 17.2384 25.7514 17.5002 27.0156 17.4393L27.7981 17.4015L27.7772 17.8779C27.757 18.3382 27.749 18.3564 27.5422 18.4162C27.2208 18.5091 25.6072 18.5465 25.0943 18.473ZM13.5653 18.4641C13.2165 18.43 12.5824 18.3172 12.1561 18.2136L11.381 18.025V17.1966C11.381 16.741 11.4084 16.3682 11.4419 16.3682C11.4754 16.3682 11.8687 16.5431 12.316 16.7569C13.3624 17.2571 13.7326 17.3777 14.4217 17.4424C15.793 17.5714 16.9085 17.148 17.3181 16.3431C17.5473 15.8926 17.5856 14.9006 17.3887 14.5124C17.0788 13.9012 16.4758 13.4799 14.5205 12.5083C13.4627 11.9826 12.5035 11.3422 12.0818 10.8798C11.7076 10.4695 11.5 9.92524 11.4654 9.26409C11.3897 7.81849 11.9566 6.78196 13.1165 6.24527C13.7448 5.95454 14.1023 5.86373 14.9853 5.77057C15.8094 5.68364 17.0452 5.77734 17.9617 5.99624L18.5876 6.1457V6.96532V7.78492L18.0703 7.50429C16.2092 6.49465 13.9879 6.57896 13.4293 7.68044C13.2625 8.00945 13.2528 8.71881 13.4109 9.02985C13.4673 9.14071 13.7045 9.41142 13.938 9.6314C14.2874 9.96042 14.6731 10.1878 16.1127 10.9132C17.722 11.7242 17.9025 11.8345 18.3585 12.2851C19.1007 13.0188 19.3724 13.685 19.3724 14.7713C19.3724 17.476 17.2514 18.8248 13.5653 18.4641ZM5.00684 17.0157C5.47088 16.7872 5.9787 16.2824 6.23317 15.7967C6.60234 15.0921 6.74319 14.392 6.74319 13.2618V12.2836L6.08319 12.323C5.32302 12.3684 4.17346 12.6518 3.60372 12.9343C3.05365 13.207 2.4505 13.841 2.30479 14.2995C2.12559 14.8635 2.18009 15.5425 2.44924 16.0986C2.69409 16.6046 2.86049 16.7876 3.28158 17.0138C3.68103 17.2285 4.57274 17.2294 5.00684 17.0157ZM2.42642 18.4752C1.32809 18.2276 0.545419 17.5765 0.168827 16.5971C-0.0530176 16.0201 -0.0568635 14.8481 0.161047 14.243C0.574011 13.0966 1.62863 12.3058 3.32332 11.872C4.30511 11.6206 5.02159 11.5188 6.01156 11.49L6.7427 11.4687L6.74166 10.1984C6.74 8.09584 6.48332 7.35127 5.60149 6.89081C5.29544 6.73101 4.26426 6.66414 3.85182 6.77737C3.15077 6.96982 2.67296 7.61213 2.50975 8.5815L2.43245 9.0405L1.28777 9.02062L0.143092 9.00076L0.167611 8.7104C0.248898 7.74783 0.961985 6.71588 1.89568 6.20963C2.57882 5.83921 3.28539 5.68678 4.45986 5.65644C7.14425 5.58708 8.24774 6.35992 8.63715 8.58198C8.71422 9.02177 8.73653 10.1488 8.73847 13.7007L8.74097 18.2554H7.74204H6.74312V17.441V16.6265L6.29717 17.0659C5.51552 17.8362 4.98115 18.1834 4.28149 18.3756C3.82008 18.5024 2.79183 18.5576 2.42642 18.4752ZM86.5337 17.3699C86.9029 17.2574 87.523 16.6788 87.7876 16.1999C88.1689 15.5099 88.4575 14.3853 88.5176 13.3559C88.6848 10.49 88.2493 8.38964 87.273 7.35298C86.6231 6.66305 85.5967 6.47766 84.7865 6.90388C83.9686 7.33413 83.2288 8.54541 82.9833 9.85615C82.8656 10.4843 82.8419 12.8974 82.9453 13.7153C83.0378 14.4474 83.3232 15.4089 83.6134 15.9661C83.8937 16.5045 84.4796 17.1238 84.8862 17.3115C85.2464 17.4779 86.0824 17.5075 86.5337 17.3699ZM80.8772 15.9871C80.8772 10.7562 80.8517 7.96526 80.8031 7.78719C80.6403 7.19085 80.0642 6.78797 79.2722 6.71659C78.8893 6.68209 78.8415 6.65984 78.8201 6.50631C78.807 6.41188 78.8265 6.30394 78.8633 6.26643C78.9184 6.21041 82.4955 5.62574 82.7842 5.62556C82.8477 5.62552 82.8768 5.89679 82.8912 6.62357L82.9111 7.62161L83.0397 7.35874C83.2155 6.99963 83.9116 6.27333 84.3024 6.04138C85.2824 5.45978 87.1172 5.49349 88.2471 6.11388C89.1041 6.58446 89.8708 7.57923 90.2648 8.73162C91.109 11.2012 90.8694 14.669 89.7192 16.6274C89.0292 17.8024 87.9254 18.4479 86.4716 18.5265C85.6699 18.5699 85.2068 18.4896 84.5998 18.2018C84.1385 17.9832 83.3663 17.2648 83.1034 16.8098L82.9111 16.4771L82.8926 20.1971L82.8741 23.9171H81.8758H80.8776L80.8765 15.9871H80.8772ZM55.3434 14.0273C56.2364 13.3028 56.9057 12.3171 57.1547 11.3598C57.293 10.8277 57.2895 9.64494 57.1479 9.089C56.7437 7.5023 55.5347 6.56775 53.871 6.556C53.0398 6.55009 52.5637 6.72597 52.0035 7.24567C51.1266 8.05927 50.8015 8.89875 50.8497 10.2246C50.8749 10.9159 50.8976 11.0163 51.1443 11.524C51.4763 12.2074 52.0667 12.8363 52.9434 13.4403C53.7357 13.9862 54.5093 14.4084 54.7172 14.4084C54.8032 14.4084 55.085 14.2369 55.3434 14.0273ZM52.2655 25.6675C51.0535 25.3966 50.1116 24.8604 49.3204 23.9911C48.4808 23.0685 48.1632 22.129 48.2159 20.7234C48.2758 19.1245 48.8025 18.0924 50.1458 16.9413L50.5591 16.5872L51.0555 16.8416C51.3286 16.9814 51.552 17.1115 51.552 17.1307C51.552 17.1498 51.4348 17.3208 51.2914 17.5108C50.65 18.361 50.272 19.505 50.2181 20.7597C50.1745 21.7772 50.2694 22.2618 50.6788 23.1117C51.3165 24.4353 52.4494 25.1511 53.9066 25.1511C55.5693 25.1511 56.823 24.2031 57.2223 22.6439C57.397 21.9613 57.3684 20.5179 57.1683 19.9207C56.8691 19.0277 56.196 18.1019 55.3934 17.4793C55.184 17.3169 54.4278 16.8535 53.7131 16.4496C50.8939 14.8564 49.7366 13.9073 49.1665 12.7211C48.8251 12.0107 48.7131 11.5212 48.712 10.7353C48.7099 9.33339 49.1376 8.21555 50.0128 7.33549C51.1502 6.19164 52.5874 5.69476 54.4715 5.79393C55.3575 5.84056 55.8947 5.96026 56.5361 6.25394C56.9127 6.42639 57.0324 6.44088 58.3661 6.47527C59.6867 6.50932 59.9129 6.4952 61.3986 6.28589C62.2815 6.16149 63.1993 6.02735 63.4379 5.98778C63.6766 5.94822 63.8945 5.91586 63.9223 5.91586C63.95 5.91586 63.9634 6.61815 63.9521 7.47652C63.9408 8.33489 63.9497 9.03715 63.972 9.03712C63.9943 9.03712 64.0699 8.84924 64.1401 8.61968C64.3238 8.01884 64.7277 7.26573 65.0802 6.86684C65.5892 6.29097 66.4603 5.91586 67.2886 5.91586H67.6062V7.04871C67.6062 8.10085 67.5972 8.1775 67.4813 8.12473C67.4126 8.09348 67.0772 8.05413 66.7359 8.0373C66.1912 8.01042 66.0691 8.02833 65.737 8.18363C65.0589 8.50069 64.6419 8.97178 64.339 9.7629C63.9805 10.6989 63.9731 10.8036 63.9699 14.973L63.9672 18.5499L62.9861 18.5297L62.0051 18.5095L61.9694 13.2833C61.9375 8.61001 61.9213 8.03408 61.8161 7.83921C61.5375 7.32266 60.9923 6.99466 60.2213 6.9887C59.5541 6.98353 59.1788 7.19554 58.9191 7.58423C58.7074 7.90109 58.7176 8.15033 58.9726 8.89187C59.4573 10.3013 59.1274 11.8906 58.109 13.053C57.6637 13.5613 56.776 14.2391 56.0787 14.6032C55.787 14.7556 55.5482 14.9039 55.548 14.9328C55.548 14.9617 55.6521 15.0399 55.7796 15.1066C56.542 15.5051 58.0052 16.6767 58.3909 17.1974C59.1204 18.1821 59.4801 19.1751 59.5277 20.3352C59.5916 21.8955 59.1738 23.0013 58.1174 24.0675C57.5958 24.5939 57.3865 24.7472 56.7563 25.064C55.7614 25.5642 55.0492 25.7373 53.8353 25.774C53.0775 25.7968 52.7426 25.774 52.2655 25.6675Z" fill="black"/>
<path d="M73.7774 30.9092H73.294V29.1147C73.294 28.7688 73.2419 28.5185 73.1378 28.3639C73.0356 28.2092 72.8627 28.1319 72.6191 28.1319C72.4128 28.1319 72.237 28.2296 72.0916 28.4249C71.9481 28.6202 71.8764 28.8542 71.8764 29.1269V30.9092H71.3931V29.0536C71.3931 28.4392 71.1642 28.1319 70.7064 28.1319C70.4942 28.1319 70.3194 28.2245 70.1818 28.4097C70.0443 28.5928 69.9755 28.8319 69.9755 29.1269V30.9092H69.4922V27.784H69.9755V28.2784H69.9873C70.2015 27.9 70.5139 27.7108 70.9245 27.7108C71.1308 27.7108 71.3106 27.7708 71.4638 27.8908C71.6171 28.0088 71.7222 28.1645 71.7792 28.3578C72.0032 27.9264 72.3372 27.7108 72.7812 27.7108C73.4453 27.7108 73.7774 28.135 73.7774 28.9834V30.9092Z" fill="black"/>
<path d="M77.1167 29.4717H74.9859C74.9937 29.8197 75.0841 30.0882 75.257 30.2775C75.4299 30.4667 75.6677 30.5613 75.9702 30.5613C76.3102 30.5613 76.6225 30.4453 76.9074 30.2134V30.6834C76.6422 30.8828 76.2915 30.9825 75.8553 30.9825C75.429 30.9825 75.094 30.8411 74.8503 30.5583C74.6067 30.2734 74.4849 29.8736 74.4849 29.3588C74.4849 28.8725 74.6175 28.4768 74.8827 28.1716C75.1499 27.8644 75.481 27.7108 75.8759 27.7108C76.2709 27.7108 76.5764 27.843 76.7925 28.1075C77.0086 28.372 77.1167 28.7393 77.1167 29.2093V29.4717ZM76.6216 29.0475C76.6196 28.7586 76.5518 28.5338 76.4182 28.373C76.2866 28.2123 76.1029 28.1319 75.8671 28.1319C75.6392 28.1319 75.4456 28.2164 75.2865 28.3852C75.1273 28.5541 75.0291 28.7749 74.9918 29.0475H76.6216Z" fill="black"/>
<path d="M82.1358 30.9092H81.6524V29.1147C81.6524 28.7688 81.6004 28.5185 81.4962 28.3639C81.3941 28.2092 81.2212 28.1319 80.9775 28.1319C80.7712 28.1319 80.5954 28.2296 80.45 28.4249C80.3066 28.6202 80.2349 28.8542 80.2349 29.1269V30.9092H79.7515V29.0536C79.7515 28.4392 79.5226 28.1319 79.0648 28.1319C78.8526 28.1319 78.6777 28.2245 78.5402 28.4097C78.4027 28.5928 78.3339 28.8319 78.3339 29.1269V30.9092H77.8506V27.784H78.3339V28.2784H78.3457C78.5599 27.9 78.8723 27.7108 79.2829 27.7108C79.4892 27.7108 79.669 27.7708 79.8222 27.8908C79.9755 28.0088 80.0806 28.1645 80.1376 28.3578C80.3616 27.9264 80.6956 27.7108 81.1396 27.7108C81.8037 27.7108 82.1358 28.135 82.1358 28.9834V30.9092Z" fill="black"/>
<path d="M83.5444 30.4576H83.5327V30.9093H83.0493V26.2825H83.5327V28.3334H83.5444C83.7822 27.9183 84.13 27.7108 84.5877 27.7108C84.9748 27.7108 85.2774 27.8512 85.4955 28.132C85.7155 28.4107 85.8255 28.7851 85.8255 29.2551C85.8255 29.778 85.7027 30.1972 85.4571 30.5125C85.2115 30.8259 84.8756 30.9825 84.4492 30.9825C84.0504 30.9825 83.7488 30.8075 83.5444 30.4576ZM83.5327 29.1971V29.6335C83.5327 29.8919 83.6132 30.1117 83.7743 30.2928C83.9374 30.4718 84.1437 30.5613 84.3932 30.5613C84.686 30.5613 84.9149 30.4454 85.0799 30.2134C85.2469 29.9815 85.3304 29.659 85.3304 29.246C85.3304 28.898 85.2528 28.6254 85.0976 28.428C84.9424 28.2306 84.7321 28.132 84.4669 28.132C84.1859 28.132 83.96 28.2337 83.7891 28.4372C83.6181 28.6386 83.5327 28.8919 83.5327 29.1971Z" fill="black"/>
<path d="M89.0232 29.4717H86.8924C86.9002 29.8197 86.9906 30.0882 87.1635 30.2775C87.3364 30.4667 87.5742 30.5613 87.8767 30.5613C88.2166 30.5613 88.529 30.4453 88.8139 30.2134V30.6834C88.5487 30.8828 88.198 30.9825 87.7618 30.9825C87.3354 30.9825 87.0005 30.8411 86.7568 30.5583C86.5132 30.2734 86.3914 29.8736 86.3914 29.3588C86.3914 28.8725 86.524 28.4768 86.7892 28.1716C87.0564 27.8644 87.3875 27.7108 87.7824 27.7108C88.1773 27.7108 88.4829 27.843 88.699 28.1075C88.9151 28.372 89.0232 28.7393 89.0232 29.2093V29.4717ZM88.5281 29.0475C88.5261 28.7586 88.4583 28.5338 88.3247 28.373C88.1931 28.2123 88.0094 28.1319 87.7736 28.1319C87.5457 28.1319 87.3521 28.2164 87.193 28.3852C87.0338 28.5541 86.9356 28.7749 86.8983 29.0475H88.5281Z" fill="black"/>
<path d="M91.3306 28.2907C91.2461 28.2235 91.1243 28.19 90.9652 28.19C90.7589 28.19 90.586 28.2907 90.4465 28.4921C90.309 28.6935 90.2402 28.9682 90.2402 29.3162V30.9093H89.7568V27.7841H90.2402V28.428H90.252C90.3207 28.2083 90.4258 28.0374 90.5673 27.9153C90.7088 27.7912 90.8669 27.7291 91.0418 27.7291C91.1675 27.7291 91.2638 27.7434 91.3306 27.7718V28.2907Z" fill="black"/>
<path d="M94.767 30.9825C94.321 30.9825 93.9644 30.837 93.6972 30.546C93.4319 30.2531 93.2993 29.8655 93.2993 29.3832C93.2993 28.8583 93.4378 28.4483 93.7149 28.1533C93.9919 27.8583 94.3662 27.7108 94.8377 27.7108C95.2877 27.7108 95.6384 27.8542 95.8899 28.1411C96.1433 28.428 96.2701 28.8257 96.2701 29.3344C96.2701 29.8329 96.1335 30.2327 95.8604 30.5338C95.5893 30.8329 95.2248 30.9825 94.767 30.9825ZM94.8024 28.1319C94.4919 28.1319 94.2463 28.2418 94.0656 28.4615C93.8848 28.6792 93.7944 28.9804 93.7944 29.3649C93.7944 29.7352 93.8858 30.0272 94.0685 30.2409C94.2512 30.4545 94.4959 30.5613 94.8024 30.5613C95.1148 30.5613 95.3545 30.4565 95.5215 30.247C95.6905 30.0374 95.7749 29.7393 95.7749 29.3527C95.7749 28.9621 95.6905 28.6609 95.5215 28.4493C95.3545 28.2377 95.1148 28.1319 94.8024 28.1319Z" fill="black"/>
<path d="M98.5335 26.722C98.4392 26.667 98.3321 26.6396 98.2123 26.6396C97.8743 26.6396 97.7054 26.8603 97.7054 27.3018V27.7841H98.4127V28.2113H97.7054V30.9093H97.225V28.2113H96.7092V27.7841H97.225V27.2774C97.225 26.9498 97.3164 26.6914 97.4991 26.5022C97.6818 26.311 97.9097 26.2153 98.1828 26.2153C98.3302 26.2153 98.4471 26.2336 98.5335 26.2703V26.722Z" fill="black"/>
<path d="M118.539 29.1841H117.312L117.92 27.429H117.932L118.539 29.1841ZM115.832 30.8295H116.705L117.071 29.8543H118.774L119.135 30.8295H120.068L118.419 26.5759H117.469L115.832 30.8295Z" fill="black"/>
<path d="M103.224 29.1866H101.987L102.6 27.4384H102.612L103.224 29.1866ZM100.496 30.8255H101.375L101.745 29.8541H103.46L103.824 30.8255H104.764L103.103 26.5887H102.145L100.496 30.8255Z" fill="black"/>
<path d="M109.709 27.2468H108.501V26.5752H111.763V27.2468H110.555V30.8377H109.709V27.2468Z" fill="black"/>
<path d="M113.201 27.2446H113.479C113.902 27.2446 114.374 27.2875 114.374 27.8016C114.374 28.3339 113.896 28.3954 113.479 28.3954H113.201V27.2446ZM112.354 30.8434H113.201V29.0685H113.473C113.83 29.0685 113.939 29.1907 114.06 29.5093L114.567 30.8434H115.511L114.833 29.1725C114.749 28.9827 114.616 28.7503 114.386 28.7317V28.7196C114.924 28.6463 115.257 28.2302 115.257 27.7283C115.257 26.5407 114.175 26.5715 113.267 26.5715H112.354V30.8434Z" fill="black"/>
<path d="M107.685 27.3744C107.423 27.259 107.132 27.1918 106.841 27.1918C106.555 27.1918 106.187 27.3197 106.187 27.7819C106.187 28.5179 108.006 28.2074 108.006 29.6308C108.006 30.5612 107.287 30.9139 106.448 30.9139C105.997 30.9139 105.795 30.8532 105.384 30.7498L105.462 29.9836C105.747 30.1417 106.074 30.245 106.401 30.245C106.716 30.245 107.138 30.0809 107.138 29.6976C107.138 28.8888 105.319 29.2234 105.319 27.8185C105.319 26.8696 106.038 26.5229 106.769 26.5229C107.126 26.5229 107.459 26.5716 107.762 26.675L107.685 27.3744Z" fill="black"/>
</g>
<defs>
<clipPath id="clip0_312_4438">
<rect width="120" height="31" fill="white"/>
</clipPath>
</defs>
</svg>
