<?xml version="1.0" encoding="utf-8"?>
<!-- Generator: Adobe Illustrator 25.3.1, SVG Export Plug-In . SVG Version: 6.00 Build 0)  -->
<svg version="1.1" id="Layer_1" xmlns="http://www.w3.org/2000/svg" xmlns:xlink="http://www.w3.org/1999/xlink" x="0px" y="0px"
	 viewBox="0 0 249.5 175.7" style="enable-background:new 0 0 249.5 175.7;" xml:space="preserve">
<style type="text/css">
	.st0{fill:#231F20;}
	.st1{fill:#6D6E70;}
	.st2{fill:#FFFFFF;}
</style>
<path class="st0" d="M225.7,73.8c-4.8-43.7-44.7-72.1-105-67.9C59.4,10.3,19.6,42.5,15.2,79.2C12.5,102,28.5,135,78.6,140.9
	c32.9,3.9,66.7-5.6,84.5-7.5c5-0.6,8.8-0.2,10.9,1.5c3.2,2.5,3.2,5.7,0.5,11.4c-2.7,5.8,0.9,8.4,7.2,6.2
	C197.8,146.8,230.5,116.9,225.7,73.8z M195.9,99.7H46V58.3h149.9V99.7z"/>
<g>
	<path class="st0" d="M195.9,87.4c0,6.8-5.6,12.4-12.4,12.4h-26.1c-2.2,0-4.1-1.8-4.1-4.1c0-2.2,1.8-4.1,4.1-4.1h26.1
		c2.4,0,4.3-1.9,4.3-4.3c0-2.4-1.9-4.3-4.3-4.3h-18.9c-6.8,0-12.4-5.6-12.4-12.4c0-6.8,5.6-12.4,12.4-12.4h26.1
		c2.2,0,4.1,1.8,4.1,4.1c0,2.2-1.8,4.1-4.1,4.1h-26.1c-2.4,0-4.3,1.9-4.3,4.3s1.9,4.3,4.3,4.3h18.9C190.3,75,195.9,80.6,195.9,87.4
		 M144,58.3c-2.2,0-4.1,1.8-4.1,4.1v33.4c0,2.2,1.8,4.1,4.1,4.1c2.2,0,4.1-1.8,4.1-4.1V62.4C148.1,60.1,146.3,58.3,144,58.3
		 M121.3,79l13.8-13.8c1.6-1.6,1.6-4.2,0-5.7c-1.6-1.6-4.2-1.6-5.7,0l-13.8,13.8l-13.8-13.8c-1.6-1.6-4.2-1.6-5.7,0
		c-1.6,1.6-1.6,4.2,0,5.7L109.8,79L96,92.8c-1.6,1.6-1.6,4.2,0,5.7c0.8,0.8,1.8,1.2,2.9,1.2c1,0,2.1-0.4,2.9-1.2l13.8-13.8
		l13.8,13.8c0.8,0.8,1.8,1.2,2.9,1.2c1,0,2.1-0.4,2.9-1.2c1.6-1.6,1.6-4.1,0-5.7L121.3,79z M91.7,93.8c1.1,1.9,0.4,4.4-1.5,5.5
		c-0.6,0.4-1.3,0.5-2,0.5c-1.4,0-2.8-0.7-3.5-2l-4.1-7.1h-23l-4.1,7.1c-1.1,1.9-3.6,2.6-5.5,1.5c-2-1.1-2.6-3.6-1.5-5.5l5.2-9.1l0,0
		l13.9-24.1c0.7-1.3,2.1-2,3.5-2s2.8,0.8,3.5,2l13.9,24.1l0,0.1L91.7,93.8z M76,82.6l-6.8-11.9l-6.8,11.9H76z"/>
</g>
<rect x="6.5" y="99.7" class="st0" width="8.4" height="0.2"/>
<rect x="6.5" y="58.2" class="st0" width="8.4" height="0.2"/>
<path class="st0" d="M195.7,162.2h0.2v-5.3h-0.2V162.2z M45.8,162.2h0.2v-5.3h-0.2V162.2z M46,159.6h149.9v-0.2H46V159.6z"/>
<g>
	<path class="st1" d="M122.2,163.8l-1.5,3v2H120v-2l-1.5-3h0.8l1.1,2.2l1.1-2.2H122.2z"/>
</g>
<path class="st0" d="M69,99.5h0.2v-0.2H69V99.5z M69,98.8h0.2V98H69V98.8z M69,97.5h0.2v-0.7H69V97.5z M69,96.3h0.2v-0.7H69V96.3z
	 M69,95.1h0.2v-0.7H69V95.1z M69,93.8h0.2v-0.7H69V93.8z M69,92.6h0.2v-0.7H69V92.6z M69,91.4h0.2v-0.7H69V91.4z M69,90.1h0.2v-0.7
	H69V90.1z M69,88.9h0.2v-0.7H69V88.9z M69,87.6h0.2v-0.7H69V87.6z M69,86.4h0.2v-0.7H69V86.4z M69,85.2h0.2v-0.7H69V85.2z M69,83.9
	h0.2v-0.7H69V83.9z M69,82.7h0.2V82H69V82.7z M69,81.5h0.2v-0.7H69V81.5z M69,80.2h0.2v-0.7H69V80.2z M69,79h0.2v-0.7H69V79z
	 M69,77.8h0.2V77H69V77.8z M69,76.5h0.2v-0.7H69V76.5z M69,75.3h0.2v-0.7H69V75.3z M69,74.1h0.2v-0.7H69V74.1z M69,72.8h0.2v-0.7H69
	V72.8z M69,71.6h0.2v-0.7H69V71.6z M69,70.3h0.2v-0.7H69V70.3z M69,69.1h0.2v-0.7H69V69.1z M69,67.9h0.2v-0.7H69V67.9z M69,66.6h0.2
	v-0.7H69V66.6z M69,65.4h0.2v-0.7H69V65.4z M69,64.2h0.2v-0.7H69V64.2z M69,62.9h0.2v-0.7H69V62.9z M69,61.7h0.2V61H69V61.7z
	 M69,60.5h0.2v-0.7H69V60.5z M69,59.2h0.2v-0.7H69V59.2z"/>
<g>
	<path class="st2" d="M195.9,73.5h29.8c0-0.1,0-0.2,0-0.2h-29.8V73.5z"/>
	<path class="st2" d="M224.1,99.7H17.6c0,0.1,0.1,0.2,0.1,0.2H224C224.1,99.9,224.1,99.8,224.1,99.7z"/>
	<path class="st2" d="M16.2,73.5H46v-0.2H16.3C16.2,73.3,16.2,73.4,16.2,73.5z"/>
	<path class="st2" d="M21.9,58.1c0,0.1-0.1,0.2-0.1,0.2H46v-0.1h149.9v0.1h26.5c0-0.1-0.1-0.2-0.1-0.2H21.9z"/>
</g>
<g>
	<path class="st0" d="M227.3,58.1c0,0.1,0.1,0.2,0.1,0.2h12.3v-0.2H227.3z"/>
	<path class="st0" d="M239.7,73.2h-9c0,0.1,0,0.2,0,0.2h9V73.2z"/>
	<rect x="6.5" y="73.2" class="st0" width="7.1" height="0.2"/>
	<rect x="46" y="73.2" class="st0" width="149.9" height="0.2"/>
	<path class="st0" d="M229,100h10.6v-0.2h-10.6C229.1,99.8,229.1,99.9,229,100z"/>
</g>
</svg>
