<svg width="438" height="208" viewBox="0 0 438 208" fill="none" xmlns="http://www.w3.org/2000/svg">
<path d="M24.5 52.5H20.5V152.5H24.5V52.5Z" fill="black"/>
<path d="M28.5 52.5H26.5V152.5H28.5V52.5Z" fill="black"/>
<path d="M34.5 52.5H32.5V152.5H34.5V52.5Z" fill="black"/>
<path d="M44.5 52.5H42.5V152.5H44.5V52.5Z" fill="black"/>
<path d="M50.5 52.5H48.5V152.5H50.5V52.5Z" fill="black"/>
<path d="M62.5 52.5H58.5V152.5H62.5V52.5Z" fill="black"/>
<path d="M66.5 52.5H64.5V152.5H66.5V52.5Z" fill="black"/>
<path d="M80.5 52.5H72.5V152.5H80.5V52.5Z" fill="black"/>
<path d="M84.5 52.5H82.5V152.5H84.5V52.5Z" fill="black"/>
<path d="M88.5 52.5H86.5V152.5H88.5V52.5Z" fill="black"/>
<path d="M94.5 52.5H92.5V152.5H94.5V52.5Z" fill="black"/>
<path d="M106.5 52.5H102.5V152.5H106.5V52.5Z" fill="black"/>
<path d="M110.5 52.5H108.5V152.5H110.5V52.5Z" fill="black"/>
<path d="M118.5 52.5H114.5V152.5H118.5V52.5Z" fill="black"/>
<path d="M128.5 52.5H126.5V152.5H128.5V52.5Z" fill="black"/>
<path d="M132.5 52.5H130.5V152.5H132.5V52.5Z" fill="black"/>
<path d="M138.5 52.5H136.5V152.5H138.5V52.5Z" fill="black"/>
<path d="M144.5 52.5H140.5V152.5H144.5V52.5Z" fill="black"/>
<path d="M154.5 52.5H152.5V152.5H154.5V52.5Z" fill="black"/>
<path d="M160.5 52.5H158.5V152.5H160.5V52.5Z" fill="black"/>
<path d="M172.5 52.5H164.5V152.5H172.5V52.5Z" fill="black"/>
<path d="M176.5 52.5H174.5V152.5H176.5V52.5Z" fill="black"/>
<path d="M188.5 52.5H180.5V152.5H188.5V52.5Z" fill="black"/>
<path d="M192.5 52.5H190.5V152.5H192.5V52.5Z" fill="black"/>
<path d="M198.5 52.5H196.5V152.5H198.5V52.5Z" fill="black"/>
<path d="M204.5 52.5H202.5V152.5H204.5V52.5Z" fill="black"/>
<path d="M210.5 52.5H206.5V152.5H210.5V52.5Z" fill="black"/>
<path d="M222.5 52.5H218.5V152.5H222.5V52.5Z" fill="black"/>
<path d="M232.5 52.5H230.5V152.5H232.5V52.5Z" fill="black"/>
<path d="M236.5 52.5H234.5V152.5H236.5V52.5Z" fill="black"/>
<path d="M242.5 52.5H240.5V152.5H242.5V52.5Z" fill="black"/>
<path d="M254.5 52.5H246.5V152.5H254.5V52.5Z" fill="black"/>
<path d="M258.5 52.5H256.5V152.5H258.5V52.5Z" fill="black"/>
<path d="M264.5 52.5H262.5V152.5H264.5V52.5Z" fill="black"/>
<path d="M278.5 52.5H270.5V152.5H278.5V52.5Z" fill="black"/>
<path d="M282.5 52.5H280.5V152.5H282.5V52.5Z" fill="black"/>
<path d="M286.5 52.5H284.5V152.5H286.5V52.5Z" fill="black"/>
<path d="M294.5 52.5H290.5V152.5H294.5V52.5Z" fill="black"/>
<path d="M304.5 52.5H298.5V152.5H304.5V52.5Z" fill="black"/>
<path d="M308.5 52.5H306.5V152.5H308.5V52.5Z" fill="black"/>
<path d="M318.5 52.5H316.5V152.5H318.5V52.5Z" fill="black"/>
<path d="M324.5 52.5H320.5V152.5H324.5V52.5Z" fill="black"/>
<path d="M330.5 52.5H328.5V152.5H330.5V52.5Z" fill="black"/>
<path d="M344.5 52.5H336.5V152.5H344.5V52.5Z" fill="black"/>
<path d="M348.5 52.5H346.5V152.5H348.5V52.5Z" fill="black"/>
<path d="M358.5 52.5H350.5V152.5H358.5V52.5Z" fill="black"/>
<path d="M366.5 52.5H360.5V152.5H366.5V52.5Z" fill="black"/>
<path d="M370.5 52.5H368.5V152.5H370.5V52.5Z" fill="black"/>
<path d="M374.5 52.5H372.5V152.5H374.5V52.5Z" fill="black"/>
<path d="M380.5 52.5H378.5V152.5H380.5V52.5Z" fill="black"/>
<path d="M390.5 52.5H386.5V152.5H390.5V52.5Z" fill="black"/>
<path d="M398.5 52.5H394.5V152.5H398.5V52.5Z" fill="black"/>
<path d="M410.5 52.5H404.5V152.5H410.5V52.5Z" fill="black"/>
<path d="M414.5 52.5H412.5V152.5H414.5V52.5Z" fill="black"/>
<path d="M420.5 52.5H416.5V152.5H420.5V52.5Z" fill="black"/>
<path d="M21.2364 184.581H24.8728C25.5752 184.581 26.119 184.763 26.5041 185.125C26.8893 185.488 27.0819 186.016 27.0819 186.711C27.0819 187.104 26.9875 187.451 26.7987 187.753C26.6174 188.048 26.3758 188.267 26.0737 188.41C26.9195 188.66 27.3425 189.275 27.3425 190.257C27.3425 190.718 27.2405 191.118 27.0366 191.458C26.8402 191.79 26.5683 192.047 26.2209 192.228C25.8735 192.409 25.4884 192.5 25.0654 192.5H21.2364V184.581ZM24.7256 187.98C25.0956 187.98 25.3864 187.878 25.5979 187.674C25.8093 187.47 25.9151 187.168 25.9151 186.768C25.9151 186.307 25.8093 185.986 25.5979 185.805C25.3939 185.616 25.0767 185.522 24.6463 185.522H22.3919V187.98H24.7256ZM24.8049 191.56C25.2505 191.56 25.5903 191.462 25.8244 191.265C26.0586 191.069 26.1756 190.733 26.1756 190.257C26.1756 189.781 26.051 189.441 25.8018 189.237C25.5601 189.033 25.1938 188.931 24.7029 188.931H22.3919V191.56H24.8049ZM32.248 192.67C31.4626 192.67 30.7526 192.5 30.1182 192.16C29.4838 191.813 28.9854 191.326 28.6229 190.699C28.2603 190.072 28.0791 189.354 28.0791 188.546C28.0791 187.738 28.2603 187.021 28.6229 186.394C28.9854 185.767 29.4838 185.28 30.1182 184.933C30.7526 184.585 31.4626 184.411 32.248 184.411C33.0334 184.411 33.7434 184.585 34.3778 184.933C35.0122 185.28 35.5106 185.767 35.8731 186.394C36.2357 187.021 36.4169 187.738 36.4169 188.546C36.4169 189.354 36.2357 190.072 35.8731 190.699C35.5106 191.326 35.0122 191.813 34.3778 192.16C33.7434 192.5 33.0334 192.67 32.248 192.67ZM32.248 191.628C32.8069 191.628 33.3129 191.503 33.766 191.254C34.2267 190.997 34.5892 190.638 34.8536 190.178C35.1179 189.709 35.2501 189.166 35.2501 188.546C35.2501 187.935 35.1179 187.398 34.8536 186.938C34.5968 186.469 34.2418 186.111 33.7887 185.861C33.3355 185.605 32.8295 185.476 32.2707 185.476C31.7042 185.476 31.1907 185.601 30.73 185.85C30.2768 186.099 29.9143 186.458 29.6424 186.926C29.3781 187.395 29.2459 187.935 29.2459 188.546C29.2459 189.166 29.3781 189.709 29.6424 190.178C29.9068 190.638 30.2655 190.997 30.7186 191.254C31.1793 191.503 31.6891 191.628 32.248 191.628ZM37.665 184.581H41.3015C42.0039 184.581 42.5476 184.763 42.9328 185.125C43.318 185.488 43.5106 186.016 43.5106 186.711C43.5106 187.104 43.4161 187.451 43.2273 187.753C43.0461 188.048 42.8044 188.267 42.5023 188.41C43.3482 188.66 43.7711 189.275 43.7711 190.257C43.7711 190.718 43.6692 191.118 43.4652 191.458C43.2689 191.79 42.997 192.047 42.6496 192.228C42.3022 192.409 41.917 192.5 41.4941 192.5H37.665V184.581ZM41.1542 187.98C41.5243 187.98 41.815 187.878 42.0265 187.674C42.238 187.47 42.3437 187.168 42.3437 186.768C42.3437 186.307 42.238 185.986 42.0265 185.805C41.8226 185.616 41.5054 185.522 41.0749 185.522H38.8205V187.98H41.1542ZM41.2335 191.56C41.6791 191.56 42.019 191.462 42.2531 191.265C42.4872 191.069 42.6043 190.733 42.6043 190.257C42.6043 189.781 42.4797 189.441 42.2304 189.237C41.9887 189.033 41.6225 188.931 41.1316 188.931H38.8205V191.56H41.2335ZM45.0219 184.581H48.6584C49.3608 184.581 49.9046 184.763 50.2897 185.125C50.6749 185.488 50.8675 186.016 50.8675 186.711C50.8675 187.104 50.7731 187.451 50.5843 187.753C50.403 188.048 50.1613 188.267 49.8592 188.41C50.7051 188.66 51.128 189.275 51.128 190.257C51.128 190.718 51.0261 191.118 50.8222 191.458C50.6258 191.79 50.3539 192.047 50.0065 192.228C49.6591 192.409 49.2739 192.5 48.851 192.5H45.0219V184.581ZM48.5111 187.98C48.8812 187.98 49.172 187.878 49.3834 187.674C49.5949 187.47 49.7006 187.168 49.7006 186.768C49.7006 186.307 49.5949 185.986 49.3834 185.805C49.1795 185.616 48.8623 185.522 48.4318 185.522H46.1775V187.98H48.5111ZM48.5904 191.56C49.036 191.56 49.3759 191.462 49.61 191.265C49.8441 191.069 49.9612 190.733 49.9612 190.257C49.9612 189.781 49.8366 189.441 49.5874 189.237C49.3457 189.033 48.9794 188.931 48.4885 188.931H46.1775V191.56H48.5904ZM54.1779 189.498L51.3005 184.581H52.5353L54.7443 188.399L56.9874 184.581H58.2109L55.2994 189.498V192.5H54.1779V189.498ZM63.6521 184.581H64.8077V187.98H68.9426V184.581H70.0981V192.5H68.9426V188.954H64.8077V192.5H63.6521V184.581ZM74.5074 184.581H75.6176L78.7783 192.5H77.6001L76.8071 190.529H73.3066L72.5362 192.5H71.3467L74.5074 184.581ZM76.4899 189.566L75.0625 185.861L73.6351 189.566H76.4899ZM80.0255 184.581H83.2088C84.0547 184.581 84.7042 184.785 85.1573 185.193C85.6105 185.601 85.837 186.198 85.837 186.983C85.837 187.565 85.6822 188.059 85.3726 188.467C85.0629 188.867 84.6249 189.139 84.0585 189.283L85.8031 192.5H84.6022L82.9143 189.373H81.181V192.5H80.0255V184.581ZM83.0162 188.399C83.5222 188.399 83.9225 188.282 84.2171 188.048C84.5192 187.806 84.6702 187.451 84.6702 186.983C84.6702 186.469 84.5229 186.103 84.2284 185.884C83.9414 185.665 83.5373 185.556 83.0162 185.556H81.181V188.399H83.0162ZM88.6906 185.556H86.2323V184.581H92.3158V185.556H89.8574V192.5H88.6906V185.556ZM94.8524 184.581H95.9626L99.1232 192.5H97.9451L97.1521 190.529H93.6515L92.8812 192.5H91.6917L94.8524 184.581ZM96.8349 189.566L95.4075 185.861L93.9801 189.566H96.8349ZM100.37 184.581H101.469L105.502 190.551V184.581H106.669V192.5H105.559L101.526 186.53V192.5H100.37V184.581ZM110.142 185.556H107.684V184.581H113.767V185.556H111.309V192.5H110.142V185.556ZM118.108 192.67C117.323 192.67 116.613 192.5 115.979 192.16C115.344 191.813 114.846 191.326 114.483 190.699C114.121 190.072 113.94 189.354 113.94 188.546C113.94 187.738 114.121 187.021 114.483 186.394C114.846 185.767 115.344 185.28 115.979 184.933C116.613 184.585 117.323 184.411 118.108 184.411C118.894 184.411 119.604 184.585 120.238 184.933C120.873 185.28 121.371 185.767 121.734 186.394C122.096 187.021 122.277 187.738 122.277 188.546C122.277 189.354 122.096 190.072 121.734 190.699C121.371 191.326 120.873 191.813 120.238 192.16C119.604 192.5 118.894 192.67 118.108 192.67ZM118.108 191.628C118.667 191.628 119.173 191.503 119.626 191.254C120.087 190.997 120.45 190.638 120.714 190.178C120.978 189.709 121.111 189.166 121.111 188.546C121.111 187.935 120.978 187.398 120.714 186.938C120.457 186.469 120.102 186.111 119.649 185.861C119.196 185.605 118.69 185.476 118.131 185.476C117.565 185.476 117.051 185.601 116.59 185.85C116.137 186.099 115.775 186.458 115.503 186.926C115.239 187.395 115.106 187.935 115.106 188.546C115.106 189.166 115.239 189.709 115.503 190.178C115.767 190.638 116.126 190.997 116.579 191.254C117.04 191.503 117.55 191.628 118.108 191.628Z" fill="black"/>
<path d="M315.454 192.67C314.374 192.67 313.558 192.394 313.007 191.843C312.455 191.284 312.18 190.517 312.18 189.543V184.581H313.335V189.589C313.335 190.261 313.524 190.771 313.902 191.118C314.279 191.458 314.797 191.628 315.454 191.628C316.103 191.628 316.617 191.458 316.994 191.118C317.372 190.771 317.561 190.261 317.561 189.589V184.581H318.716V189.543C318.716 190.51 318.441 191.273 317.889 191.832C317.338 192.39 316.526 192.67 315.454 192.67ZM320.135 184.581H321.302V192.5H320.135V184.581ZM325.782 184.411H326.937L323.708 192.5H322.553L325.782 184.411ZM331.396 192.67C330.316 192.67 329.5 192.394 328.949 191.843C328.397 191.284 328.122 190.517 328.122 189.543V184.581H329.277V189.589C329.277 190.261 329.466 190.771 329.844 191.118C330.221 191.458 330.738 191.628 331.396 191.628C332.045 191.628 332.559 191.458 332.936 191.118C333.314 190.771 333.503 190.261 333.503 189.589V184.581H334.658V189.543C334.658 190.51 334.383 191.273 333.831 191.832C333.28 192.39 332.468 192.67 331.396 192.67ZM338.531 188.478L335.676 184.581H337.002L339.2 187.572L341.397 184.581H342.723L339.857 188.478L342.825 192.5H341.499L339.2 189.373L336.9 192.5H335.574L338.531 188.478Z" fill="black"/>
<path d="M368.236 184.581H370.785C371.639 184.581 372.379 184.74 373.006 185.057C373.633 185.374 374.112 185.827 374.444 186.417C374.784 187.006 374.954 187.7 374.954 188.501C374.954 189.815 374.573 190.812 373.81 191.492C373.055 192.164 371.994 192.5 370.627 192.5H368.236V184.581ZM370.615 191.537C371.673 191.537 372.466 191.277 372.994 190.755C373.523 190.234 373.787 189.483 373.787 188.501C373.787 187.595 373.527 186.877 373.006 186.349C372.492 185.82 371.756 185.556 370.797 185.556H369.392V191.537H370.615ZM376.202 184.581H381.424V185.556H377.357V188.059H380.393V189.022H377.357V191.537H381.424V192.5H376.202V184.581ZM384.816 192.67C384.363 192.67 383.914 192.628 383.468 192.545C383.03 192.47 382.671 192.364 382.392 192.228V191.186C383.117 191.526 383.898 191.696 384.737 191.696C385.915 191.696 386.504 191.299 386.504 190.506C386.504 190.234 386.44 190.015 386.311 189.849C386.183 189.683 385.998 189.539 385.756 189.419C385.515 189.29 385.122 189.117 384.578 188.898C383.83 188.595 383.291 188.263 382.958 187.901C382.626 187.538 382.46 187.081 382.46 186.53C382.46 186.114 382.573 185.748 382.8 185.431C383.026 185.106 383.343 184.857 383.751 184.683C384.159 184.502 384.627 184.411 385.156 184.411C385.586 184.411 385.975 184.445 386.323 184.513C386.67 184.581 387.01 184.691 387.342 184.842V185.839C386.685 185.544 386.021 185.397 385.349 185.397C384.805 185.397 384.389 185.495 384.102 185.692C383.815 185.888 383.672 186.167 383.672 186.53C383.672 186.779 383.732 186.991 383.853 187.164C383.982 187.33 384.167 187.481 384.408 187.617C384.657 187.746 385.024 187.908 385.507 188.105C386.043 188.324 386.466 188.531 386.776 188.728C387.086 188.924 387.32 189.166 387.478 189.453C387.644 189.732 387.728 190.083 387.728 190.506C387.728 191.193 387.482 191.726 386.991 192.103C386.5 192.481 385.775 192.67 384.816 192.67ZM388.969 184.581H390.135V192.5H388.969V184.581ZM395.578 192.67C394.762 192.67 394.037 192.5 393.403 192.16C392.768 191.82 392.273 191.341 391.918 190.721C391.564 190.095 391.386 189.37 391.386 188.546C391.386 187.723 391.564 186.998 391.918 186.371C392.273 185.744 392.768 185.261 393.403 184.921C394.037 184.581 394.762 184.411 395.578 184.411C396.673 184.411 397.583 184.683 398.308 185.227V186.337C397.651 185.763 396.775 185.476 395.68 185.476C395.083 185.476 394.547 185.601 394.071 185.85C393.595 186.099 393.221 186.458 392.949 186.926C392.685 187.387 392.553 187.927 392.553 188.546C392.553 189.166 392.685 189.709 392.949 190.178C393.214 190.646 393.58 191.005 394.048 191.254C394.517 191.503 395.045 191.628 395.634 191.628C396.322 191.628 396.884 191.488 397.322 191.209V189.135H395.816V188.195H398.478V191.82C398.123 192.115 397.704 192.33 397.22 192.466C396.744 192.602 396.197 192.67 395.578 192.67ZM399.722 184.581H400.821L404.854 190.551V184.581H406.021V192.5H404.91L400.877 186.53V192.5H399.722V184.581ZM407.488 184.581H412.711V185.556H408.644V188.059H411.68V189.022H408.644V191.537H412.711V192.5H407.488V184.581ZM413.905 184.581H417.088C417.934 184.581 418.583 184.785 419.037 185.193C419.49 185.601 419.716 186.198 419.716 186.983C419.716 187.565 419.561 188.059 419.252 188.467C418.942 188.867 418.504 189.139 417.938 189.283L419.682 192.5H418.481L416.793 189.373H415.06V192.5H413.905V184.581ZM416.895 188.399C417.401 188.399 417.802 188.282 418.096 188.048C418.398 187.806 418.549 187.451 418.549 186.983C418.549 186.469 418.402 186.103 418.108 185.884C417.821 185.665 417.417 185.556 416.895 185.556H415.06V188.399H416.895Z" fill="black"/>
<rect width="82" height="21" transform="translate(8.5 6.5)" fill="black"/>
<path d="M35.2364 12.5813H37.7853C38.6387 12.5813 39.3788 12.7399 40.0057 13.0571C40.6325 13.3743 41.1121 13.8275 41.4444 14.4166C41.7843 15.0056 41.9542 15.7005 41.9542 16.501C41.9542 17.8151 41.5728 18.812 40.81 19.4918C40.0548 20.1639 38.9937 20.5 37.6267 20.5H35.2364V12.5813ZM37.6154 19.5371C38.6727 19.5371 39.4657 19.2765 39.9944 18.7554C40.523 18.2343 40.7874 17.4828 40.7874 16.501C40.7874 15.5947 40.5268 14.8772 40.0057 14.3486C39.4921 13.8199 38.7558 13.5556 37.7966 13.5556H36.3919V19.5371H37.6154ZM44.8906 20.6699C44.4375 20.6699 43.9881 20.6284 43.5425 20.5453C43.1045 20.4698 42.7457 20.3641 42.4663 20.2281V19.1859C43.1913 19.5257 43.973 19.6957 44.8113 19.6957C45.9895 19.6957 46.5786 19.2992 46.5786 18.5062C46.5786 18.2343 46.5144 18.0153 46.386 17.8491C46.2576 17.683 46.0726 17.5395 45.8309 17.4186C45.5892 17.2902 45.1965 17.1165 44.6527 16.8975C43.905 16.5954 43.365 16.2631 43.0327 15.9006C42.7004 15.5381 42.5343 15.0812 42.5343 14.5298C42.5343 14.1145 42.6475 13.7482 42.8741 13.431C43.1007 13.1062 43.4179 12.857 43.8257 12.6833C44.2335 12.502 44.7018 12.4114 45.2305 12.4114C45.661 12.4114 46.0499 12.4454 46.3973 12.5134C46.7447 12.5813 47.0846 12.6908 47.4169 12.8419V13.8388C46.7598 13.5443 46.0952 13.397 45.4231 13.397C44.8793 13.397 44.4639 13.4952 44.1769 13.6915C43.8899 13.8879 43.7464 14.1673 43.7464 14.5298C43.7464 14.7791 43.8068 14.9905 43.9277 15.1642C44.0561 15.3304 44.2411 15.4814 44.4828 15.6174C44.732 15.7458 45.0983 15.9081 45.5817 16.1045C46.1179 16.3235 46.5408 16.5312 46.8505 16.7276C47.1601 16.9239 47.3942 17.1656 47.5528 17.4526C47.719 17.7321 47.8021 18.0832 47.8021 18.5062C47.8021 19.1934 47.5566 19.7259 47.0657 20.1035C46.5748 20.4811 45.8498 20.6699 44.8906 20.6699ZM52.7204 20.6699C51.9048 20.6699 51.1797 20.5 50.5453 20.1601C49.9109 19.8203 49.4163 19.3407 49.0613 18.7214C48.7063 18.0946 48.5288 17.3695 48.5288 16.5463C48.5288 15.7231 48.7063 14.9981 49.0613 14.3712C49.4163 13.7444 49.9109 13.261 50.5453 12.9212C51.1797 12.5813 51.9048 12.4114 52.7204 12.4114C53.8155 12.4114 54.7256 12.6833 55.4506 13.2271V14.3373C54.7936 13.7633 53.9175 13.4763 52.8224 13.4763C52.2257 13.4763 51.6895 13.6009 51.2137 13.8501C50.7379 14.0994 50.3641 14.4581 50.0922 14.9263C49.8279 15.387 49.6957 15.927 49.6957 16.5463C49.6957 17.1656 49.8279 17.7094 50.0922 18.1776C50.3565 18.6459 50.7228 19.0046 51.1911 19.2539C51.6593 19.5031 52.188 19.6277 52.7771 19.6277C53.4643 19.6277 54.027 19.488 54.465 19.2085V17.1354H52.9583V16.1951H55.6205V19.8203C55.2656 20.1148 54.8464 20.3301 54.3631 20.466C53.8873 20.602 53.3397 20.6699 52.7204 20.6699ZM56.8646 12.5813H57.9635L61.9965 18.5515V12.5813H63.1633V20.5H62.0531L58.0202 14.5298V20.5H56.8646V12.5813Z" fill="#D5D5D5"/>
<path d="M109.236 12.5813H110.403V20.5H109.236V12.5813ZM111.88 12.5813H114.429C115.283 12.5813 116.023 12.7399 116.65 13.0571C117.277 13.3743 117.756 13.8275 118.088 14.4166C118.428 15.0056 118.598 15.7005 118.598 16.501C118.598 17.8151 118.217 18.812 117.454 19.4918C116.699 20.1639 115.638 20.5 114.271 20.5H111.88V12.5813ZM114.259 19.5371C115.317 19.5371 116.11 19.2765 116.638 18.7554C117.167 18.2343 117.431 17.4828 117.431 16.501C117.431 15.5947 117.171 14.8772 116.65 14.3486C116.136 13.8199 115.4 13.5556 114.441 13.5556H113.036V19.5371H114.259ZM119.846 12.5813H120.945L124.978 18.5515V12.5813H126.145V20.5H125.034L121.001 14.5298V20.5H119.846V12.5813ZM130.614 12.4114H131.77L128.541 20.5H127.386L130.614 12.4114ZM132.784 19.741L134.495 18.0983C134.646 17.9473 134.857 17.7509 135.129 17.5093C135.56 17.1165 135.888 16.7993 136.115 16.5577C136.341 16.316 136.527 16.0592 136.67 15.7873C136.814 15.5079 136.885 15.2096 136.885 14.8924C136.885 14.4241 136.749 14.0691 136.477 13.8275C136.206 13.5782 135.809 13.4536 135.288 13.4536C134.933 13.4536 134.567 13.5178 134.189 13.6462C133.819 13.7746 133.472 13.9634 133.147 14.2126V13.1024C133.781 12.6417 134.555 12.4114 135.469 12.4114C136.285 12.4114 136.919 12.6304 137.372 13.0685C137.826 13.4989 138.052 14.088 138.052 14.8357C138.052 15.1982 137.973 15.5456 137.814 15.8779C137.663 16.2102 137.448 16.5388 137.168 16.8635C136.889 17.1807 136.511 17.5697 136.036 18.0304L134.495 19.5371H138.347V20.5H132.784V19.741ZM142.663 20.6699C141.984 20.6699 141.395 20.5038 140.896 20.1715C140.405 19.8392 140.028 19.3634 139.763 18.7441C139.499 18.1248 139.367 17.3922 139.367 16.5463C139.367 15.7005 139.495 14.9679 139.752 14.3486C140.016 13.7217 140.394 13.2422 140.885 12.9099C141.383 12.5775 141.976 12.4114 142.663 12.4114C143.351 12.4114 143.94 12.5775 144.431 12.9099C144.929 13.2422 145.307 13.7217 145.564 14.3486C145.828 14.9679 145.96 15.7005 145.96 16.5463C145.96 17.3922 145.828 18.1248 145.564 18.7441C145.299 19.3634 144.918 19.8392 144.419 20.1715C143.928 20.5038 143.343 20.6699 142.663 20.6699ZM142.663 19.6504C143.336 19.6504 143.861 19.3747 144.238 18.8234C144.623 18.2645 144.816 17.5093 144.816 16.5577C144.816 15.6061 144.627 14.8508 144.249 14.2919C143.872 13.7331 143.343 13.4536 142.663 13.4536C141.984 13.4536 141.455 13.7331 141.077 14.2919C140.7 14.8508 140.511 15.6061 140.511 16.5577C140.511 17.5093 140.7 18.2645 141.077 18.8234C141.463 19.3747 141.991 19.6504 142.663 19.6504ZM146.978 19.741L148.689 18.0983C148.84 17.9473 149.051 17.7509 149.323 17.5093C149.754 17.1165 150.082 16.7993 150.309 16.5577C150.535 16.316 150.72 16.0592 150.864 15.7873C151.007 15.5079 151.079 15.2096 151.079 14.8924C151.079 14.4241 150.943 14.0691 150.671 13.8275C150.399 13.5782 150.003 13.4536 149.482 13.4536C149.127 13.4536 148.761 13.5178 148.383 13.6462C148.013 13.7746 147.665 13.9634 147.341 14.2126V13.1024C147.975 12.6417 148.749 12.4114 149.663 12.4114C150.479 12.4114 151.113 12.6304 151.566 13.0685C152.019 13.4989 152.246 14.088 152.246 14.8357C152.246 15.1982 152.167 15.5456 152.008 15.8779C151.857 16.2102 151.642 16.5388 151.362 16.8635C151.083 17.1807 150.705 17.5697 150.23 18.0304L148.689 19.5371H152.541V20.5H146.978V19.741ZM156.54 20.6699C155.974 20.6699 155.464 20.5415 155.011 20.2848C154.565 20.0204 154.21 19.6353 153.946 19.1292C153.689 18.6157 153.561 18.0002 153.561 17.2827C153.561 15.7118 153.882 14.5072 154.524 13.6689C155.173 12.8306 156.102 12.4114 157.311 12.4114C157.726 12.4114 158.096 12.4567 158.421 12.5473V13.5216C158.156 13.4083 157.817 13.3517 157.401 13.3517C155.785 13.3517 154.898 14.3221 154.739 16.2631C154.965 15.9761 155.264 15.7609 155.634 15.6174C156.011 15.4663 156.423 15.3908 156.869 15.3908C157.382 15.3908 157.832 15.4965 158.217 15.708C158.602 15.9195 158.9 16.2216 159.112 16.6143C159.331 17.007 159.44 17.4639 159.44 17.9851C159.44 18.4986 159.323 18.9593 159.089 19.3671C158.863 19.775 158.53 20.0959 158.092 20.3301C157.654 20.5566 157.137 20.6699 156.54 20.6699ZM156.54 19.775C157.069 19.775 157.492 19.6164 157.809 19.2992C158.134 18.9744 158.296 18.5477 158.296 18.019C158.296 17.4904 158.134 17.0712 157.809 16.7616C157.492 16.4519 157.069 16.2971 156.54 16.2971C156.215 16.2971 155.917 16.3688 155.645 16.5123C155.381 16.6558 155.169 16.8598 155.011 17.1241C154.86 17.3884 154.784 17.6943 154.784 18.0417C154.784 18.3513 154.856 18.6383 154.999 18.9027C155.151 19.167 155.358 19.3785 155.623 19.5371C155.887 19.6957 156.193 19.775 156.54 19.775Z" fill="black"/>
<path d="M18.5 171.5H419.5" stroke="black"/>
<path d="M0.5 33.5H437.5" stroke="black"/>
<path d="M0.5 0.5H437.5" stroke="black"/>
<path d="M0.5 207.5H437.5" stroke="black"/>
<path d="M96.5 0.5L96.5 33.5" stroke="black"/>
<path d="M0.5 0.5L0.500009 207.5" stroke="black"/>
<path d="M437.5 0.5L437.5 207.5" stroke="black"/>
<circle cx="356" cy="188" r="4.5" fill="black"/>
<path d="M373 7C378.501 7 383 11.6788 383 17.5C383 23.3212 378.501 28 373 28C367.499 28 363 23.3212 363 17.5C363 11.6788 367.499 7 373 7Z" stroke="black"/>
<path d="M382 7C387.501 7 392 11.6788 392 17.5C392 23.3212 387.501 28 382 28C376.499 28 372 23.3212 372 17.5C372 11.6788 376.499 7 382 7Z" stroke="black"/>
<circle cx="391.5" cy="17.5" r="10.5" stroke="black"/>
<path d="M401 7C406.501 7 411 11.6788 411 17.5C411 23.3212 406.501 28 401 28C395.499 28 391 23.3212 391 17.5C391 11.6788 395.499 7 401 7Z" stroke="black"/>
<path d="M410 7C415.501 7 420 11.6788 420 17.5C420 23.3212 415.501 28 410 28C404.499 28 400 23.3212 400 17.5C400 11.6788 404.499 7 410 7Z" stroke="black"/>
<path d="M288.01 12.5813H290.015V18.812H293.459V20.5H288.01V12.5813ZM297.663 20.6699C296.862 20.6699 296.137 20.4962 295.488 20.1488C294.846 19.8014 294.336 19.3181 293.958 18.6988C293.588 18.0719 293.403 17.3544 293.403 16.5463C293.403 15.7382 293.588 15.0207 293.958 14.3939C294.336 13.767 294.846 13.2799 295.488 12.9325C296.137 12.5851 296.862 12.4114 297.663 12.4114C298.456 12.4114 299.173 12.5851 299.815 12.9325C300.465 13.2799 300.975 13.767 301.345 14.3939C301.715 15.0207 301.9 15.7382 301.9 16.5463C301.9 17.3544 301.715 18.0719 301.345 18.6988C300.975 19.3181 300.465 19.8014 299.815 20.1488C299.173 20.4962 298.456 20.6699 297.663 20.6699ZM297.663 18.7894C298.063 18.7894 298.429 18.6988 298.762 18.5175C299.094 18.3362 299.358 18.0757 299.555 17.7358C299.751 17.396 299.849 16.9995 299.849 16.5463C299.849 16.0932 299.751 15.7005 299.555 15.3682C299.366 15.0283 299.105 14.7677 298.773 14.5865C298.441 14.3977 298.071 14.3033 297.663 14.3033C297.247 14.3033 296.874 14.3977 296.541 14.5865C296.209 14.7677 295.945 15.0283 295.748 15.3682C295.559 15.7005 295.465 16.0932 295.465 16.5463C295.465 16.9995 295.559 17.396 295.748 17.7358C295.945 18.0757 296.209 18.3362 296.541 18.5175C296.881 18.6988 297.255 18.7894 297.663 18.7894ZM304.127 14.2693H301.896V12.5813H308.376V14.2693H306.133V20.5H304.127V14.2693Z" fill="black"/>
</svg>
