<?xml version="1.0" encoding="utf-8"?>
<!-- Generator: Adobe Illustrator 25.3.1, SVG Export Plug-In . SVG Version: 6.00 Build 0)  -->
<svg version="1.1" id="Layer_1" xmlns="http://www.w3.org/2000/svg" xmlns:xlink="http://www.w3.org/1999/xlink" x="0px" y="0px"
	 viewBox="0 0 436.5 75" style="enable-background:new 0 0 436.5 75;" xml:space="preserve">
<g>
	<path d="M22.3,19.4h-4v40h4V19.4z"/>
	<path d="M26.3,19.4h-2v40h2V19.4z"/>
	<path d="M32.3,19.4h-2v40h2V19.4z"/>
	<path d="M42.3,19.4h-2v40h2V19.4z"/>
	<path d="M48.3,19.4h-2v40h2V19.4z"/>
	<path d="M60.3,19.4h-4v40h4V19.4z"/>
	<path d="M64.3,19.4h-2v40h2V19.4z"/>
	<path d="M78.3,19.4h-8v40h8V19.4z"/>
	<path d="M82.3,19.4h-2v40h2V19.4z"/>
	<path d="M86.3,19.4h-2v40h2V19.4z"/>
	<path d="M92.3,19.4h-2v40h2V19.4z"/>
	<path d="M104.3,19.4h-4v40h4V19.4z"/>
	<path d="M108.3,19.4h-2v40h2V19.4z"/>
	<path d="M116.3,19.4h-4v40h4V19.4z"/>
	<path d="M126.3,19.4h-2v40h2V19.4z"/>
	<path d="M130.3,19.4h-2v40h2V19.4z"/>
	<path d="M136.3,19.4h-2v40h2V19.4z"/>
	<path d="M142.3,19.4h-4v40h4V19.4z"/>
	<path d="M152.3,19.4h-2v40h2V19.4z"/>
	<path d="M158.3,19.4h-2v40h2V19.4z"/>
	<path d="M170.3,19.4h-8v40h8V19.4z"/>
	<path d="M174.3,19.4h-2v40h2V19.4z"/>
	<path d="M186.3,19.4h-8v40h8V19.4z"/>
	<path d="M190.3,19.4h-2v40h2V19.4z"/>
	<path d="M196.3,19.4h-2v40h2V19.4z"/>
	<path d="M202.3,19.4h-2v40h2V19.4z"/>
	<path d="M208.3,19.4h-4v40h4V19.4z"/>
	<path d="M220.3,19.4h-4v40h4V19.4z"/>
	<path d="M230.3,19.4h-2v40h2V19.4z"/>
	<path d="M234.3,19.4h-2v40h2V19.4z"/>
	<path d="M240.3,19.4h-2v40h2V19.4z"/>
	<path d="M252.3,19.4h-8v40h8V19.4z"/>
	<path d="M256.3,19.4h-2v40h2V19.4z"/>
	<path d="M262.3,19.4h-2v40h2V19.4z"/>
	<path d="M276.3,19.4h-8v40h8V19.4z"/>
	<path d="M280.3,19.4h-2v40h2V19.4z"/>
	<path d="M284.3,19.4h-2v40h2V19.4z"/>
	<path d="M292.3,19.4h-4v40h4V19.4z"/>
	<path d="M302.3,19.4h-6v40h6V19.4z"/>
	<path d="M306.3,19.4h-2v40h2V19.4z"/>
	<path d="M316.3,19.4h-2v40h2V19.4z"/>
	<path d="M322.3,19.4h-4v40h4V19.4z"/>
	<path d="M328.3,19.4h-2v40h2V19.4z"/>
	<path d="M342.3,19.4h-8v40h8V19.4z"/>
	<path d="M346.3,19.4h-2v40h2V19.4z"/>
	<path d="M356.3,19.4h-8v40h8V19.4z"/>
	<path d="M364.3,19.4h-6v40h6V19.4z"/>
	<path d="M368.3,19.4h-2v40h2V19.4z"/>
	<path d="M372.3,19.4h-2v40h2V19.4z"/>
	<path d="M378.3,19.4h-2v40h2V19.4z"/>
	<path d="M388.3,19.4h-4v40h4V19.4z"/>
	<path d="M396.3,19.4h-4v40h4V19.4z"/>
	<path d="M408.3,19.4h-6v40h6V19.4z"/>
	<path d="M412.3,19.4h-2v40h2V19.4z"/>
	<path d="M418.3,19.4h-4v40h4V19.4z"/>
</g>
</svg>
