<svg width="1024" height="285" viewBox="0 0 1024 285" fill="none" xmlns="http://www.w3.org/2000/svg">
<g clip-path="url(#clip0_400_1707)">
<path d="M386.872 0L433.1 142.562L362.811 285.124H233.106L184.067 142.562L257.167 0H386.872ZM304.038 47.8691C296.427 47.8694 290.258 54.0388 290.258 61.6494V62.1689C290.258 68.1093 286.145 73.2098 280.682 75.543C275.116 77.9197 268.562 77.2234 264.282 72.9443L263.905 72.5674C258.523 67.1849 249.796 67.1849 244.413 72.5674L238.522 78.457C232.845 84.1348 232.845 93.3407 238.522 99.0186L239.565 100.061C243.522 104.017 244.304 110.019 242.278 115.235C240.16 120.69 235.174 124.838 229.322 124.838H227.791C219.781 124.838 213.288 131.331 213.288 139.341V145.887C213.288 154.504 220.274 161.489 228.891 161.489H231.695C236.915 161.489 241.442 165.001 243.559 169.772C245.773 174.766 245.137 180.693 241.274 184.556L239.218 186.611C233.156 192.674 233.157 202.503 239.219 208.565L242.622 211.969C248.993 218.34 259.323 218.339 265.694 211.968L268.357 209.305C271.912 205.75 277.315 205.04 281.978 206.922C286.727 208.839 290.258 213.248 290.258 218.37V222.189C290.258 231.174 297.541 238.458 306.525 238.458H310.642C319.626 238.458 326.909 231.174 326.909 222.189V218.37C326.909 213.249 330.439 208.84 335.188 206.923C339.85 205.041 345.254 205.75 348.809 209.305L351.473 211.969C357.844 218.34 368.173 218.34 374.545 211.969L377.949 208.565C384.011 202.503 384.011 192.674 377.949 186.611L375.894 184.556C372.031 180.693 371.394 174.765 373.609 169.771C375.726 165 380.253 161.489 385.473 161.489H388.276C396.893 161.489 403.878 154.504 403.878 145.888V139.34C403.878 131.331 397.385 124.838 389.376 124.838H387.846C381.994 124.838 377.008 120.69 374.89 115.235C372.863 110.019 373.646 104.017 377.604 100.06L378.645 99.0176C384.322 93.3403 384.323 84.1357 378.646 78.458L372.755 72.5674C367.372 67.1847 358.646 67.1848 353.263 72.5674L352.885 72.9443C348.605 77.2235 342.051 77.9199 336.485 75.543C331.022 73.2097 326.909 68.1086 326.909 62.168V61.6494C326.909 54.0387 320.74 47.8693 313.129 47.8691H304.038Z" fill="#1E1E1E"/>
<path d="M1023.8 0V285.124H870.039L821 142.562L894.101 0H1023.8Z" fill="#1E1E1E"/>
<path d="M614.546 284.159L614.546 1.02868L421.169 1.02869L468.762 142.286L468.891 142.668L468.708 143.029L397.384 284.159L614.546 284.159Z" fill="#D9D9D9" stroke="#1E1E1E" stroke-width="1.93023"/>
<path d="M147.414 142.157L147.23 142.519L147.36 142.903L195.149 284.159L0.964831 284.159L0.964844 1.02868L219.032 1.02869L147.414 142.157Z" fill="white" stroke="#1E1E1E" stroke-width="1.93023"/>
<path d="M788.414 142.157L788.23 142.519L788.36 142.903L836.149 284.159L641.965 284.159L641.965 1.02868L860.032 1.02869L788.414 142.157Z" fill="white" stroke="#1E1E1E" stroke-width="1.93023"/>
<path d="M88.5305 33.6537C117.376 33.6537 136.032 64.1372 122.908 89.8237L95.9439 142.594L122.908 195.364C136.032 221.05 117.376 251.534 88.5305 251.534L39.9448 251.534L39.9448 33.6537L88.5305 33.6537Z" fill="#1E1E1E"/>
<path d="M729.531 33.6537C758.376 33.6537 777.032 64.1372 763.908 89.8237L736.944 142.594L763.908 195.364C777.032 221.05 758.376 251.534 729.531 251.534L680.945 251.534L680.945 33.6537L729.531 33.6537Z" fill="#1E1E1E"/>
<path d="M92.5547 201.624C100.231 225.315 82.569 249.604 57.666 249.604L41.875 249.604L41.875 35.5843L57.666 35.5843C82.5689 35.5844 100.231 59.8726 92.5547 83.5629L73.6201 141.998L73.4277 142.594L73.6201 143.189L92.5547 201.624Z" fill="#D9D9D9" stroke="#1E1E1E" stroke-width="3.86047"/>
<path d="M733.555 201.624C741.231 225.315 723.569 249.604 698.666 249.604L682.875 249.604L682.875 35.5843L698.666 35.5843C723.569 35.5844 741.231 59.8726 733.555 83.5629L714.62 141.998L714.428 142.594L714.62 143.189L733.555 201.624Z" fill="#D9D9D9" stroke="#1E1E1E" stroke-width="3.86047"/>
<path d="M537.394 201.624C545.07 225.315 527.408 249.604 502.505 249.604L486.714 249.604L486.714 35.5843L502.505 35.5843C527.408 35.5844 545.07 59.8726 537.394 83.5629L518.459 141.998L518.267 142.594L518.459 143.189L537.394 201.624Z" fill="white" stroke="#1E1E1E" stroke-width="3.86047"/>
<path d="M966.006 45.9994L981.97 45.9996C992.682 45.9998 1000.14 56.6396 996.485 66.7088L930.901 247.448C928.012 255.409 919.25 259.558 911.261 256.748L908.566 255.799C900.521 252.969 896.294 244.153 899.124 236.108L930.003 148.337L900.561 64.6459C897.357 55.5397 904.114 45.9999 913.767 45.9999L966.006 45.9994Z" fill="white"/>
<path d="M947.101 148.337L946.989 148.017L917.546 64.3255C914.563 55.8472 920.854 46.9656 929.842 46.9653L982.081 46.9642L998.046 46.9644C1008.09 46.9649 1015.08 56.9401 1011.65 66.3798L946.069 247.119C943.36 254.583 935.146 258.472 927.656 255.837L924.962 254.889C917.42 252.235 913.456 243.97 916.109 236.428L947.101 148.337Z" stroke="white" stroke-width="1.93023"/>
<path d="M552.732 33.6855C581.595 33.6855 600.251 64.2031 587.092 89.8916L560.109 142.562L587.092 195.232C600.251 220.921 581.595 251.438 552.732 251.438H504V33.6855H552.732Z" fill="#1E1E1E"/>
<mask id="path-14-inside-1_400_1707" fill="white">
<path d="M314.556 63.5985C314.556 69.4341 318.596 74.445 323.962 76.7369C329.43 79.0717 335.869 78.3872 340.072 74.1835L340.443 73.8129C345.731 68.5254 354.304 68.5256 359.592 73.8134L365.378 79.6005C370.955 85.1777 370.955 94.22 365.378 99.797L364.355 100.82C360.468 104.707 359.699 110.603 361.689 115.728C363.77 121.086 368.668 125.161 374.416 125.161H375.92C383.788 125.161 390.167 131.54 390.167 139.408V145.839C390.167 154.304 383.305 161.166 374.84 161.166H372.086C366.958 161.166 362.511 164.615 360.431 169.303C358.255 174.208 358.88 180.031 362.675 183.826L364.695 185.846C370.65 191.801 370.65 201.456 364.695 207.412L361.352 210.754C355.093 217.014 344.944 217.014 338.685 210.755L336.067 208.137C332.575 204.645 327.268 203.948 322.689 205.797C318.024 207.681 314.556 212.011 314.556 217.042V220.796C314.556 229.622 307.401 236.777 298.574 236.777H294.532C285.706 236.777 278.551 229.622 278.551 220.796V217.043C278.551 212.012 275.083 207.681 270.417 205.798C265.837 203.949 260.529 204.646 257.036 208.138L254.42 210.755C248.162 217.014 238.014 217.014 231.755 210.755L228.412 207.412C222.456 201.456 222.456 191.801 228.411 185.845L230.431 183.825C234.225 180.03 234.851 174.208 232.675 169.302C230.596 164.615 226.149 161.166 221.021 161.166H218.267C209.802 161.166 202.94 154.304 202.94 145.839V139.407C202.94 131.539 209.319 125.161 217.187 125.161H218.691C224.438 125.161 229.336 121.086 231.417 115.728C233.407 110.604 232.638 104.708 228.751 100.821L227.728 99.7977C222.15 94.2203 222.15 85.1776 227.727 79.6001L233.514 73.813C238.802 68.5255 247.374 68.5254 252.662 73.8128L253.031 74.1825C257.236 78.3867 263.675 79.0714 269.143 76.7367C274.511 74.445 278.551 69.4339 278.551 63.5979V63.0883C278.551 55.6116 284.612 49.5505 292.089 49.5505H301.018C308.495 49.5505 314.556 55.6116 314.556 63.0883V63.5985Z"/>
</mask>
<path d="M314.556 63.5985C314.556 69.4341 318.596 74.445 323.962 76.7369C329.43 79.0717 335.869 78.3872 340.072 74.1835L340.443 73.8129C345.731 68.5254 354.304 68.5256 359.592 73.8134L365.378 79.6005C370.955 85.1777 370.955 94.22 365.378 99.797L364.355 100.82C360.468 104.707 359.699 110.603 361.689 115.728C363.77 121.086 368.668 125.161 374.416 125.161H375.92C383.788 125.161 390.167 131.54 390.167 139.408V145.839C390.167 154.304 383.305 161.166 374.84 161.166H372.086C366.958 161.166 362.511 164.615 360.431 169.303C358.255 174.208 358.88 180.031 362.675 183.826L364.695 185.846C370.65 191.801 370.65 201.456 364.695 207.412L361.352 210.754C355.093 217.014 344.944 217.014 338.685 210.755L336.067 208.137C332.575 204.645 327.268 203.948 322.689 205.797C318.024 207.681 314.556 212.011 314.556 217.042V220.796C314.556 229.622 307.401 236.777 298.574 236.777H294.532C285.706 236.777 278.551 229.622 278.551 220.796V217.043C278.551 212.012 275.083 207.681 270.417 205.798C265.837 203.949 260.529 204.646 257.036 208.138L254.42 210.755C248.162 217.014 238.014 217.014 231.755 210.755L228.412 207.412C222.456 201.456 222.456 191.801 228.411 185.845L230.431 183.825C234.225 180.03 234.851 174.208 232.675 169.302C230.596 164.615 226.149 161.166 221.021 161.166H218.267C209.802 161.166 202.94 154.304 202.94 145.839V139.407C202.94 131.539 209.319 125.161 217.187 125.161H218.691C224.438 125.161 229.336 121.086 231.417 115.728C233.407 110.604 232.638 104.708 228.751 100.821L227.728 99.7977C222.15 94.2203 222.15 85.1776 227.727 79.6001L233.514 73.813C238.802 68.5255 247.374 68.5254 252.662 73.8128L253.031 74.1825C257.236 78.3867 263.675 79.0714 269.143 76.7367C274.511 74.445 278.551 69.4339 278.551 63.5979V63.0883C278.551 55.6116 284.612 49.5505 292.089 49.5505H301.018C308.495 49.5505 314.556 55.6116 314.556 63.0883V63.5985Z" fill="white"/>
<path d="M253.031 74.1825L250.302 76.9123L253.031 74.1825ZM227.727 79.6001L224.998 76.8704L227.727 79.6001ZM231.417 115.728L227.818 114.331L231.417 115.728ZM228.751 100.821L226.022 103.551L228.751 100.821ZM230.431 183.825L227.701 181.095L230.431 183.825ZM228.412 207.412L231.141 204.682L228.412 207.412ZM270.417 205.798L271.862 202.218L270.417 205.798ZM322.689 205.797L324.134 209.377L322.689 205.797ZM336.067 208.137L333.338 210.867L336.067 208.137ZM338.685 210.755L335.955 213.484L338.685 210.755ZM360.431 169.303L356.902 167.737L360.431 169.303ZM361.689 115.728L365.288 114.33L361.689 115.728ZM364.355 100.82L361.625 98.0901L364.355 100.82ZM365.378 79.6005L362.649 82.3302L365.378 79.6005ZM365.378 99.797L362.648 97.0672L365.378 99.797ZM323.962 76.7369L322.446 80.2872L323.962 76.7369ZM340.072 74.1835L337.343 71.4537L340.072 74.1835ZM340.072 74.1835L342.802 76.9134L343.173 76.5427L340.443 73.8129L337.713 71.0831L337.343 71.4537L340.072 74.1835ZM359.592 73.8134L356.862 76.5431L362.649 82.3302L365.378 79.6005L368.108 76.8708L362.321 71.0836L359.592 73.8134ZM365.378 99.797L362.648 97.0672L361.625 98.0901L364.355 100.82L367.085 103.55L368.108 102.527L365.378 99.797ZM374.416 125.161V129.021H375.92V125.161V121.3H374.416V125.161ZM390.167 139.408H386.307V145.839H390.167H394.027V139.408H390.167ZM374.84 161.166V157.305H372.086V161.166V165.026H374.84V161.166ZM362.675 183.826L359.945 186.556L361.965 188.575L364.695 185.846L367.424 183.116L365.405 181.097L362.675 183.826ZM364.695 207.412L361.965 204.682L358.622 208.025L361.352 210.754L364.082 213.484L367.424 210.141L364.695 207.412ZM338.685 210.755L341.415 208.025L338.797 205.407L336.067 208.137L333.338 210.867L335.955 213.484L338.685 210.755ZM314.556 217.042H310.695V220.796H314.556H318.416V217.042H314.556ZM298.574 236.777V232.917H294.532V236.777V240.638H298.574V236.777ZM278.551 220.796H282.411V217.043H278.551H274.69V220.796H278.551ZM257.036 208.138L254.307 205.409L251.69 208.025L254.42 210.755L257.15 213.485L259.766 210.868L257.036 208.138ZM231.755 210.755L234.485 208.026L231.141 204.682L228.412 207.412L225.682 210.142L229.025 213.485L231.755 210.755ZM228.411 185.845L231.141 188.575L233.161 186.555L230.431 183.825L227.701 181.095L225.681 183.115L228.411 185.845ZM221.021 161.166V157.305H218.267V161.166V165.026H221.021V161.166ZM202.94 145.839H206.801V139.407H202.94H199.08V145.839H202.94ZM217.187 125.161V129.021H218.691V125.161V121.3H217.187V125.161ZM228.751 100.821L231.481 98.0916L230.457 97.0679L227.728 99.7977L224.998 102.527L226.022 103.551L228.751 100.821ZM227.727 79.6001L230.457 82.3298L236.244 76.5427L233.514 73.813L230.784 71.0833L224.998 76.8704L227.727 79.6001ZM252.662 73.8128L249.932 76.5426L250.302 76.9123L253.031 74.1825L255.761 71.4527L255.391 71.083L252.662 73.8128ZM278.551 63.5979H282.411V63.0883H278.551H274.69V63.5979H278.551ZM292.089 49.5505V53.411H301.018V49.5505V45.6901H292.089V49.5505ZM314.556 63.0883H310.695V63.5985H314.556H318.416V63.0883H314.556ZM301.018 49.5505V53.411C306.363 53.411 310.695 57.7437 310.695 63.0883H314.556H318.416C318.416 53.4795 310.627 45.6901 301.018 45.6901V49.5505ZM278.551 63.0883H282.411C282.411 57.7437 286.744 53.411 292.089 53.411V49.5505V45.6901C282.48 45.6901 274.69 53.4795 274.69 63.0883H278.551ZM269.143 76.7367L270.659 80.2871C277.13 77.5244 282.411 71.2996 282.411 63.5979H278.551H274.69C274.69 67.5682 271.892 71.3656 267.627 73.1863L269.143 76.7367ZM253.031 74.1825L250.302 76.9123C255.825 82.4358 264.027 83.1189 270.659 80.2871L269.143 76.7367L267.627 73.1863C263.324 75.0238 258.646 74.3376 255.761 71.4527L253.031 74.1825ZM233.514 73.813L236.244 76.5427C240.024 72.7628 246.152 72.7628 249.932 76.5426L252.662 73.8128L255.391 71.083C248.596 64.288 237.579 64.2881 230.784 71.0833L233.514 73.813ZM227.728 99.7977L230.457 97.0679C226.388 92.9981 226.387 86.3997 230.457 82.3298L227.727 79.6001L224.998 76.8704C217.913 83.9555 217.913 95.4425 224.998 102.527L227.728 99.7977ZM231.417 115.728L235.015 117.126C237.458 110.835 236.634 103.245 231.481 98.0916L228.751 100.821L226.022 103.551C228.642 106.172 229.355 110.373 227.818 114.331L231.417 115.728ZM218.691 125.161V129.021C226.353 129.021 232.484 123.644 235.015 117.126L231.417 115.728L227.818 114.331C226.188 118.529 222.524 121.3 218.691 121.3V125.161ZM202.94 139.407H206.801C206.801 133.671 211.451 129.021 217.187 129.021V125.161V121.3C207.187 121.3 199.08 129.407 199.08 139.407H202.94ZM218.267 161.166V157.305C211.934 157.305 206.801 152.172 206.801 145.839H202.94H199.08C199.08 156.436 207.67 165.026 218.267 165.026V161.166ZM232.675 169.302L236.204 167.737C233.627 161.928 227.954 157.305 221.021 157.305V161.166V165.026C224.344 165.026 227.564 167.302 229.146 170.868L232.675 169.302ZM230.431 183.825L233.161 186.555C238.271 181.444 238.913 173.844 236.204 167.737L232.675 169.302L229.146 170.868C230.789 174.572 230.18 178.617 227.701 181.095L230.431 183.825ZM228.412 207.412L231.141 204.682C226.693 200.234 226.693 193.023 231.141 188.575L228.411 185.845L225.681 183.115C218.218 190.579 218.219 202.679 225.682 210.142L228.412 207.412ZM254.42 210.755L251.69 208.025C246.939 212.776 239.236 212.777 234.485 208.026L231.755 210.755L229.025 213.485C236.792 221.251 249.384 221.251 257.15 213.485L254.42 210.755ZM270.417 205.798L271.862 202.218C266.08 199.884 259.062 200.653 254.307 205.409L257.036 208.138L259.766 210.868C261.995 208.639 265.594 208.014 268.972 209.377L270.417 205.798ZM278.551 217.043H282.411C282.411 210.158 277.709 204.578 271.862 202.218L270.417 205.798L268.972 209.377C272.456 210.784 274.69 213.865 274.69 217.043H278.551ZM294.532 236.777V232.917C287.838 232.917 282.411 227.49 282.411 220.796H278.551H274.69C274.69 231.754 283.574 240.638 294.532 240.638V236.777ZM314.556 220.796H310.695C310.695 227.49 305.268 232.917 298.574 232.917V236.777V240.638C309.533 240.638 318.416 231.754 318.416 220.796H314.556ZM322.689 205.797L321.244 202.218C315.397 204.578 310.695 210.158 310.695 217.042H314.556H318.416C318.416 213.865 320.651 210.784 324.134 209.377L322.689 205.797ZM336.067 208.137L338.797 205.407C334.042 200.652 327.025 199.883 321.244 202.218L322.689 205.797L324.134 209.377C327.511 208.014 331.109 208.638 333.338 210.867L336.067 208.137ZM361.352 210.754L358.622 208.025C353.87 212.776 346.166 212.776 341.415 208.025L338.685 210.755L335.955 213.484C343.722 221.251 356.315 221.251 364.082 213.484L361.352 210.754ZM364.695 185.846L361.965 188.575C366.412 193.023 366.412 200.234 361.965 204.682L364.695 207.412L367.424 210.141C374.887 202.679 374.887 190.579 367.424 183.116L364.695 185.846ZM360.431 169.303L356.902 167.737C354.193 173.844 354.835 181.445 359.945 186.556L362.675 183.826L365.405 181.097C362.926 178.618 362.317 174.573 363.96 170.868L360.431 169.303ZM372.086 161.166V157.305C365.152 157.305 359.479 161.928 356.902 167.737L360.431 169.303L363.96 170.868C365.542 167.302 368.763 165.026 372.086 165.026V161.166ZM390.167 145.839H386.307C386.307 152.172 381.173 157.305 374.84 157.305V161.166V165.026C385.437 165.026 394.027 156.436 394.027 145.839H390.167ZM375.92 125.161V129.021C381.656 129.021 386.307 133.672 386.307 139.408H390.167H394.027C394.027 129.407 385.92 121.3 375.92 121.3V125.161ZM361.689 115.728L358.091 117.126C360.622 123.644 366.754 129.021 374.416 129.021V125.161V121.3C370.583 121.3 366.918 118.529 365.288 114.33L361.689 115.728ZM364.355 100.82L361.625 98.0901C356.471 103.244 355.648 110.835 358.091 117.126L361.689 115.728L365.288 114.33C363.751 110.372 364.464 106.171 367.085 103.55L364.355 100.82ZM365.378 79.6005L362.649 82.3302C366.718 86.3998 366.718 92.9978 362.648 97.0672L365.378 99.797L368.108 102.527C375.193 95.4423 375.193 83.9556 368.108 76.8708L365.378 79.6005ZM340.443 73.8129L343.173 76.5427C346.953 72.7628 353.082 72.7629 356.862 76.5431L359.592 73.8134L362.321 71.0836C355.526 64.2882 344.509 64.288 337.713 71.0831L340.443 73.8129ZM323.962 76.7369L322.446 80.2872C329.078 83.1193 337.279 82.4363 342.802 76.9134L340.072 74.1835L337.343 71.4537C334.458 74.3381 329.781 75.0241 325.479 73.1866L323.962 76.7369ZM323.962 76.7369L325.479 73.1866C321.215 71.3657 318.416 67.5684 318.416 63.5985H314.556H310.695C310.695 71.2998 315.977 77.5243 322.446 80.2872L323.962 76.7369Z" fill="#D9D9D9" mask="url(#path-14-inside-1_400_1707)"/>
<path d="M944.686 107.887L929.486 66.7322C928.281 63.4674 930.696 60 934.177 60H960.823C964.304 60 966.719 63.4674 965.514 66.7323L950.314 107.887C949.349 110.501 945.651 110.501 944.686 107.887Z" fill="black"/>
</g>
<defs>
<clipPath id="clip0_400_1707">
<rect width="1024" height="285" fill="white"/>
</clipPath>
</defs>
</svg>
