<svg width="776" height="212" viewBox="0 0 776 212" fill="none" xmlns="http://www.w3.org/2000/svg">
<path d="M73.3676 123.747V97.8498C73.3676 93.6477 76.7741 90.2412 80.9762 90.2412H142.244C146.446 90.2412 149.852 86.8347 149.852 82.6326V80.2291C149.852 76.027 146.446 72.6206 142.244 72.6205L139.711 72.6205C135.509 72.6205 132.103 69.214 132.103 65.0119V62.6086C132.103 58.4065 128.696 55 124.494 55H69.2292C65.0271 55 61.6206 58.4065 61.6206 62.6086V65.012C61.6206 69.2141 58.2141 72.6206 54.012 72.6206H51.6086C47.4065 72.6206 44 76.0271 44 80.2292V135.494C44 139.696 47.4065 143.103 51.6086 143.103H55.3453C59.5475 143.103 62.9539 146.509 62.9539 150.712V153.912C62.9539 158.114 66.3604 161.52 70.5625 161.52H142.115C146.317 161.52 149.724 158.114 149.724 153.912V138.964C149.724 134.762 146.317 131.356 142.115 131.356H80.9762C76.7741 131.356 73.3676 127.949 73.3676 123.747Z" fill="black"/>
<path d="M196.71 153.115V97.8497C196.71 93.6476 200.117 90.2411 204.319 90.2411H265.458C269.66 90.2411 273.066 86.8346 273.066 82.6325V80.2292C273.066 76.0271 269.66 72.6206 265.458 72.6206H263.236C259.034 72.6206 255.627 69.2141 255.627 65.012V63.2449C255.627 59.0727 252.267 55.6787 248.096 55.6367L192.649 55.0776C188.417 55.0349 184.963 58.4537 184.963 62.6858V65.0119C184.963 69.214 181.557 72.6205 177.355 72.6205H174.951C170.749 72.6205 167.343 76.027 167.343 80.2291V153.115C167.343 157.317 170.749 160.724 174.951 160.724H189.102C193.304 160.724 196.71 157.317 196.71 153.115Z" fill="black"/>
<path d="M442.85 153.115V97.8498C442.85 93.6477 446.257 90.2412 450.459 90.2412H488.653C492.855 90.2412 496.262 93.6477 496.262 97.8498V153.115C496.262 157.317 499.668 160.724 503.87 160.724H518.026C522.226 160.724 525.632 157.32 525.635 153.12L525.674 97.8063C525.677 93.6038 529.086 90.1995 533.289 90.2031L570.889 90.2348C575.088 90.2383 578.491 93.6438 578.491 97.8434V153.115C578.491 157.317 581.898 160.724 586.1 160.724H600.25C604.452 160.724 607.859 157.317 607.859 153.115V91.4413L607.868 80.2354C607.871 76.0309 604.464 72.6206 600.259 72.6206H597.855C593.656 72.6206 590.25 69.2183 590.247 65.019L590.245 63.231C590.241 59.0643 586.887 55.6757 582.72 55.6298L533.257 55.0853C529.003 55.0385 525.537 58.4891 525.564 62.7434L525.579 64.9621C525.607 69.1836 522.192 72.6206 517.971 72.6206L503.879 72.6205C499.68 72.6205 496.274 69.2181 496.27 65.0186L496.268 62.6019C496.265 58.4024 492.859 55 488.66 55H439.253C435.048 55 431.64 58.4106 431.644 62.6153L431.646 65.0053C431.65 69.21 428.242 72.6206 424.038 72.6206H421.655C417.453 72.6206 414.047 76.0263 414.046 80.2278L414.034 153.114C414.033 157.316 417.44 160.724 421.642 160.724H435.241C439.444 160.724 442.85 157.317 442.85 153.115Z" fill="black"/>
<path d="M290.688 80.2292V152.221C290.688 156.423 294.094 159.83 298.296 159.83H388.803C393.005 159.83 396.412 156.423 396.412 152.221V138.964C396.412 134.762 393.005 131.356 388.803 131.356H326.985C322.783 131.356 319.376 127.949 319.376 123.747V116.002C319.376 111.8 322.783 108.394 326.985 108.394H388.803C393.005 108.394 396.412 104.987 396.412 100.785V80.2292C396.412 76.0271 393.005 72.6206 388.803 72.6206H386.279C382.124 72.6206 378.737 69.2876 378.671 65.1333L378.629 62.4874C378.563 58.3331 375.176 55.0001 371.021 55.0001L315.894 55C311.645 55 308.219 58.4809 308.287 62.7299L308.321 64.8907C308.389 69.1397 304.963 72.6206 300.714 72.6206H298.296C294.094 72.6206 290.688 76.0271 290.688 80.2292Z" fill="black"/>
<path d="M732 135.494V62.6088C732 58.4067 728.594 55.0002 724.391 55.0002H633.088C628.886 55.0002 625.48 58.4067 625.48 62.6088V76.7587C625.48 80.9608 628.886 84.3673 633.088 84.3673H694.226C698.429 84.3673 701.835 87.7737 701.835 91.9759V100.253C701.835 104.455 698.429 107.861 694.226 107.861H663.322H633.088C628.886 107.861 625.48 111.268 625.48 115.47V142.922V153.115C625.48 157.317 628.886 160.723 633.088 160.723L706.398 160.723C710.6 160.723 714.007 157.317 714.007 153.115V150.711C714.007 146.509 717.413 143.103 721.615 143.103H724.391C728.594 143.103 732 139.696 732 135.494Z" fill="black"/>
</svg>
