<?xml version="1.0" encoding="utf-8"?>
<!-- Generator: Adobe Illustrator 25.3.1, SVG Export Plug-In . SVG Version: 6.00 Build 0)  -->
<svg version="1.1" id="Layer_1" xmlns="http://www.w3.org/2000/svg" xmlns:xlink="http://www.w3.org/1999/xlink" x="0px" y="0px"
	 viewBox="0 0 321.8 187.6" style="enable-background:new 0 0 321.8 187.6;" xml:space="preserve">
<style type="text/css">
	.st0{fill:none;stroke:#000000;stroke-width:1.6;stroke-miterlimit:10;}
	.st1{fill:#FFFFFF;}
	.st2{fill:none;stroke:#000000;stroke-miterlimit:10;}
	.st3{fill:none;stroke:#000000;stroke-miterlimit:10;stroke-dasharray:3.9938,2.9953;}
</style>
<g>
	
		<rect x="24.5" y="24.5" transform="matrix(0.7071 0.7071 -0.7071 0.7071 81.0344 -33.5656)" class="st0" width="113" height="113"/>
	
		<rect x="184.3" y="24.5" transform="matrix(0.7071 0.7071 -0.7071 0.7071 127.8296 -146.539)" class="st0" width="113" height="113"/>
	<g>
		<line class="st1" x1="81" y1="1.1" x2="81" y2="161.9"/>
		<g>
			<line class="st2" x1="81" y1="1.1" x2="81" y2="3.1"/>
			<line class="st3" x1="81" y1="6.1" x2="81" y2="158.4"/>
			<line class="st2" x1="81" y1="159.9" x2="81" y2="161.9"/>
		</g>
	</g>
	<g>
		<line class="st1" x1="240.7" y1="1.1" x2="240.7" y2="161.9"/>
		<g>
			<line class="st2" x1="240.7" y1="1.1" x2="240.7" y2="3.1"/>
			<line class="st3" x1="240.7" y1="6.1" x2="240.7" y2="158.4"/>
			<line class="st2" x1="240.7" y1="159.9" x2="240.7" y2="161.9"/>
		</g>
	</g>
	<g>
		<line class="st1" x1="160.3" y1="1.1" x2="160.3" y2="161.9"/>
		<g>
			<line class="st2" x1="160.3" y1="1.1" x2="160.3" y2="3.1"/>
			<line class="st3" x1="160.3" y1="6.1" x2="160.3" y2="158.4"/>
			<line class="st2" x1="160.3" y1="159.9" x2="160.3" y2="161.9"/>
		</g>
	</g>
	<polyline class="st2" points="3.6,178.7 3.6,187.1 152.5,187.1 152.5,178.7 	"/>
	<polyline class="st2" points="168.1,178.7 168.1,187.1 316.9,187.1 316.9,178.7 	"/>
</g>
</svg>
