<?xml version="1.0" encoding="utf-8"?>
<!-- Generator: Adobe Illustrator 25.3.1, SVG Export Plug-In . SVG Version: 6.00 Build 0)  -->
<svg version="1.1" id="Layer_1" xmlns="http://www.w3.org/2000/svg" xmlns:xlink="http://www.w3.org/1999/xlink" x="0px" y="0px"
	 viewBox="0 0 273 150" style="enable-background:new 0 0 273 150;" xml:space="preserve">
<path d="M235.5,37.3c-20.6-20.6-54-20.6-74.6,0l-25.6,25.6l-25.6-25.6c-20.6-20.6-54-20.6-74.6,0s-20.6,54,0,74.6s54,20.6,74.6,0
	l25.6-25.6l25.6,25.6c20.6,20.6,54,20.6,74.6,0S256.1,57.9,235.5,37.3z M28.5,81.6c-3.9,0-7.1-3.2-7.1-7.1s3.2-7.1,7.1-7.1
	s7.1,3.2,7.1,7.1S32.4,81.6,28.5,81.6z M97,99.1c-13.6,13.6-35.6,13.6-49.1,0s-13.6-35.6,0-49.1S83.5,36.5,97,50l24.6,24.6L97,99.1z
	 M135.4,81.6c-3.9,0-7.1-3.2-7.1-7.1s3.2-7.1,7.1-7.1s7.1,3.2,7.1,7.1S139.3,81.6,135.4,81.6z M222.8,99.1
	c-13.6,13.6-35.5,13.6-49.1,0l-24.6-24.6L173.7,50c13.6-13.6,35.5-13.6,49.1,0S236.4,85.6,222.8,99.1z M241.6,81.6
	c-3.9,0-7.1-3.2-7.1-7.1s3.2-7.1,7.1-7.1c3.9,0,7.1,3.2,7.1,7.1S245.5,81.6,241.6,81.6z"/>
</svg>
