<svg width="273" height="150" viewBox="0 0 273 150" fill="none" xmlns="http://www.w3.org/2000/svg">
<path d="M123.68 74.568L99.1241 50.0119C85.5622 36.45 63.5738 36.45 50.0119 50.0119C36.4501 63.5738 36.45 85.5622 50.0119 99.1241C63.5738 112.686 85.5622 112.686 99.1241 99.1241L123.68 74.568ZM111.852 111.852C91.2607 132.443 57.8753 132.443 37.284 111.852C16.6927 91.2607 16.6927 57.8753 37.284 37.284C57.8753 16.6927 91.2607 16.6927 111.852 37.284L149.136 74.568L111.852 111.852Z" fill="black"/>
<path d="M149.136 74.568L173.692 50.0119C187.254 36.45 209.242 36.45 222.804 50.0119C236.366 63.5738 236.366 85.5622 222.804 99.1241C209.242 112.686 187.254 112.686 173.692 99.1241L149.136 74.568ZM160.964 111.852C181.555 132.443 214.94 132.443 235.532 111.852C256.123 91.2607 256.123 57.8753 235.532 37.284C214.94 16.6927 181.555 16.6927 160.964 37.284L123.68 74.568L160.964 111.852Z" stroke="black" stroke-width="2"/>
<path d="M125.767 41.3842L124.446 33.4099L118.201 38.5408L125.767 41.3842ZM27.4835 38.1841L28.0934 38.5277C33.3927 29.1232 49.4891 15.0125 72.7514 15.0125V14.3125V13.6125C48.9293 13.6125 32.3932 28.0451 26.8737 37.8404L27.4835 38.1841ZM72.7514 14.3125V15.0125C100.423 15.0125 114.06 28.4425 121.232 36.9667L121.767 36.516L122.303 36.0653C114.983 27.3658 100.99 13.6125 72.7514 13.6125V14.3125Z" fill="black"/>
<path d="M249.152 106.26L247.832 114.235L241.586 109.104L249.152 106.26ZM150.869 109.46L151.479 109.117C156.778 118.521 172.875 132.632 196.137 132.632V133.332V134.032C172.315 134.032 155.779 119.599 150.259 109.804L150.869 109.46ZM196.137 133.332V132.632C223.808 132.632 237.445 119.202 244.617 110.678L245.153 111.129L245.689 111.579C238.369 120.279 224.376 134.032 196.137 134.032V133.332Z" fill="black"/>
<path d="M181.125 50.5498L186.119 44.194L189.127 51.6966L181.125 50.5498ZM226.909 74.8689L226.21 74.8376C226.478 68.8639 223.203 57.7652 212.723 51.7148L213.073 51.1086L213.423 50.5024C224.439 56.8623 227.895 68.5084 227.609 74.9002L226.909 74.8689ZM213.073 51.1086L212.723 51.7148C201.939 45.4885 193.062 46.8884 187.197 48.8689L186.973 48.2057L186.749 47.5425C192.878 45.473 202.196 44.0202 213.423 50.5024L213.073 51.1086Z" fill="black"/>
<path d="M45.4074 84.7872L45.8441 92.8583L52.6155 88.4446L45.4074 84.7872ZM98.7654 88.3562L98.138 88.0457C95.1061 94.171 86.194 103.16 73.7532 102.824L73.7343 103.523L73.7153 104.223C86.8642 104.579 96.2 95.1169 99.3927 88.6667L98.7654 88.3562ZM73.7343 103.523L73.7532 102.824C60.5029 102.465 53.4379 95.2769 49.4165 89.6571L48.8472 90.0644L48.2779 90.4718C52.44 96.2882 59.8618 103.848 73.7153 104.223L73.7343 103.523Z" fill="black"/>
</svg>
