<svg width="66" height="26" viewBox="0 0 66 26" fill="none" xmlns="http://www.w3.org/2000/svg">
<path d="M12.7021 24.1899H0V26.0001H12.7021V24.1899Z" fill="black"/>
<path d="M12.7021 20.7341H0V22.5443H12.7021V20.7341Z" fill="black"/>
<path d="M9.07266 17.2786H3.62891V19.0887H9.07266V17.2786Z" fill="black"/>
<path d="M9.07266 13.8228H3.62891V15.6329H9.07266V13.8228Z" fill="black"/>
<path d="M9.07266 10.3669H3.62891V12.1771H9.07266V10.3669Z" fill="black"/>
<path d="M9.07266 6.91138H3.62891V8.7215H9.07266V6.91138Z" fill="black"/>
<path d="M12.7021 3.45581H0V5.26594H12.7021V3.45581Z" fill="black"/>
<path d="M12.7021 0H0V1.81013H12.7021V0Z" fill="black"/>
<path d="M14.5166 22.5443H33.8777C34.2062 21.9786 34.452 21.3691 34.6077 20.7341H14.5166V22.5443Z" fill="black"/>
<path d="M32.3619 13.8228H18.1455V15.6329H33.8755C33.4781 14.9478 32.9662 14.3356 32.3619 13.8228Z" fill="black"/>
<path d="M18.1455 10.3669V12.1772H32.3619C32.9662 11.6643 33.4782 11.0521 33.8756 10.367L18.1455 10.3669Z" fill="black"/>
<path d="M33.8777 3.45581H14.5166V5.2659H34.6077C34.452 4.63095 34.2062 4.02143 33.8777 3.45581Z" fill="black"/>
<path d="M27.8785 6.28973e-06H14.5166V1.81012H32.5524C31.277 0.643699 29.6088 -0.00232538 27.8785 6.28973e-06Z" fill="black"/>
<path d="M23.5893 6.91138H18.1455V8.7215H23.5893V6.91138Z" fill="black"/>
<path d="M28.7031 8.7215H34.564C34.7248 8.13149 34.8064 7.52281 34.8067 6.91138H28.7031V8.7215Z" fill="black"/>
<path d="M23.5893 17.2786H18.1455V19.0887H23.5893V17.2786Z" fill="black"/>
<path d="M28.7031 17.2786V19.0887H34.8067C34.8064 18.4773 34.7248 17.8686 34.564 17.2786H28.7031Z" fill="black"/>
<path d="M14.5166 25.9822L27.8785 26C29.6093 26.0048 31.2783 25.3585 32.5525 24.1899H14.5167L14.5166 25.9822Z" fill="black"/>
<path d="M50.8057 25.9998L51.4393 24.1897H50.1777L50.8057 25.9998Z" fill="black"/>
<path d="M49.5988 22.5443H52.0187L52.6556 20.7341H48.9619L49.5988 22.5443Z" fill="black"/>
<path d="M48.3822 19.0887H53.2343L53.8714 17.2786H47.7451L48.3822 19.0887Z" fill="black"/>
<path d="M47.1662 15.6329H54.4508L55.0877 13.8228H46.5293L47.1662 15.6329Z" fill="black"/>
<path d="M39.9209 8.72152H49.7245L49.0936 6.91138H39.9209V8.72152Z" fill="black"/>
<path d="M53.0967 5.26572H65.3249V3.45557H53.7277L53.0967 5.26572Z" fill="black"/>
<path d="M54.9328 0L54.3018 1.81015H65.3254V0H54.9328Z" fill="black"/>
<path d="M45.3649 24.1899H36.292V26.0001H45.3649V24.1899Z" fill="black"/>
<path d="M45.3649 20.7341H36.292V22.5443H45.3649V20.7341Z" fill="black"/>
<path d="M45.3647 17.2786H39.9209V19.0887H45.3647V17.2786Z" fill="black"/>
<path d="M45.3647 13.8228H39.9209V15.6329H45.3647V13.8228Z" fill="black"/>
<path d="M61.6962 6.91138H52.5236L51.8926 8.72152H61.6962V6.91138Z" fill="black"/>
<path d="M56.2521 12.1773H61.6958V10.3672H56.2521H51.3183L50.8083 11.8303L50.2982 10.3672H45.3645H39.9209V12.1773H45.3645V10.5138L45.95 12.1773H55.6667L56.2521 10.514V12.1773Z" fill="black"/>
<path d="M61.6957 13.8228H56.252V15.6329H61.6957V13.8228Z" fill="black"/>
<path d="M61.6957 17.2786H56.252V19.0887H61.6957V17.2786Z" fill="black"/>
<path d="M65.3249 20.7341H56.252V22.5443H65.3249V20.7341Z" fill="black"/>
<path d="M65.3249 24.1899H56.252V26.0001H65.3249V24.1899Z" fill="black"/>
<path d="M48.5202 5.26572L47.8892 3.45557H36.292V5.26572H48.5202Z" fill="black"/>
<path d="M47.3156 1.81015L46.6846 0H36.292V1.81015H47.3156Z" fill="black"/>
</svg>
