<?xml version="1.0" encoding="utf-8"?>
<!-- Generator: Adobe Illustrator 25.3.1, SVG Export Plug-In . SVG Version: 6.00 Build 0)  -->
<svg version="1.1" id="Layer_1" xmlns="http://www.w3.org/2000/svg" xmlns:xlink="http://www.w3.org/1999/xlink" x="0px" y="0px"
	 viewBox="0 0 1947 516.8" style="enable-background:new 0 0 1947 516.8;" xml:space="preserve">
<g>
	<g>
		<path d="M732.4,518.3c-0.4,0-0.8,0-1.3-0.1l-2-0.4v-2.1c0-2.3,0-4.5-0.1-6.8c-0.1-5.4-0.1-11,0.2-16.5c0.1-2.2-0.3-2.8-0.3-2.9
			c-0.2-0.2-0.8-0.5-3.2-0.4l-0.1,0l-222,0.1c-0.6,0-1.1-0.1-1.8-0.3c-0.4-0.1-0.9-0.2-1.6-0.4l-6.9-1.7l6.5-3
			c2.3-1.1,4.6-2.1,6.7-3.1c4.3-2,8.4-3.9,12.3-5.8c30.1-15.2,56-35.7,76.9-60.9c2.9-3.4,6.2-5,10.8-5c0,0,0,0,0.1,0
			c17.9,0.1,36.2,0.1,53.8,0.1c21.5,0,43.8,0,65.6,0.1c2.2,0,2.8-0.4,3-0.5c0.1-0.1,0.5-0.7,0.4-2.8c-0.2-5-0.2-10-0.1-15.3
			c0-2.4,0-4.8,0-7.4V378l10.9,8.5c4.6,3.6,8.8,6.9,13.1,10.3l17.3,13.6c14.9,11.7,29.8,23.4,44.7,35.1l0.4,0.3
			c1.3,1,2.9,2.2,2.9,4.3c0,2-1.5,3.4-2.7,4.3c-16.8,13.1-33.9,26.5-50.3,39.5c-9.5,7.5-19.1,15-28.6,22.5c-0.1,0.1-0.2,0.2-0.3,0.3
			C735.7,517.2,734.5,518.3,732.4,518.3z M726.4,484.1c2.2,0,4.5,0.3,6.1,2c1.8,1.9,1.9,4.5,1.8,6.7c-0.3,5.3-0.3,10.8-0.2,16.1
			c0,1.1,0,2.2,0,3.2c9.4-7.4,18.8-14.8,28.2-22.1c16.5-13,33.5-26.4,50.4-39.5c0.1-0.1,0.3-0.2,0.4-0.3c-0.2-0.1-0.3-0.3-0.5-0.4
			l-0.4-0.3c-14.9-11.7-29.8-23.4-44.8-35.1L750,400.7c-4.3-3.4-8.6-6.7-13.1-10.3l-2.8-2.2c0,0.8,0,1.6,0,2.3
			c0,5.2-0.1,10.2,0.1,15c0.1,2.1,0,4.6-1.8,6.4c-1.8,1.8-4.4,2-6.6,2c-21.9-0.1-44.1-0.1-65.6-0.1c-17.6,0-35.9,0-53.8-0.1
			c0,0,0,0-0.1,0c-3.1,0-5,0.9-6.9,3.2c-21.4,25.8-47.8,46.7-78.5,62.2c-3.3,1.7-6.7,3.3-10.3,4.9l214.9-0.1
			C725.8,484.1,726.1,484.1,726.4,484.1z"/>
	</g>
	<g>
		<path d="M164.6,518c-0.5,0-1-0.1-1.6-0.3c-3.2-1.4-2.8-4.6-2.6-6.2c0-0.4,0.1-0.8,0.1-1.1l0-2.3c-0.1-5.5-0.2-11.3,0.1-16.9
			c0.1-1.5-0.2-1.9-0.2-1.9c0,0-0.4-0.3-2.1-0.3L5.4,489.2c-1.5,0-3.7-0.2-5.2-1.7c-1.5-1.5-1.7-3.5-1.7-5.5l0-1.2
			c0.1-21.2,0.2-43.2-0.1-64.7c0-2.4,0.5-4.2,1.7-5.3c1.7-1.7,3.9-1.7,6-1.7l0.4,0c36.7,0,73.4,0,110.1,0l30.4,0c1.1,0,2.3,0,3.4,0
			c2.8,0,5.8,0,8.7,0.1c1,0,1.3-0.1,1.3-0.2c0,0,0.2-0.3,0.2-1.4c-0.1-5.4-0.1-10.9-0.1-16.7c0-2.5,0-5,0-7.7v-5.1l4,3.1
			c2.8,2.2,5.4,4.2,8.1,6.3c5.6,4.3,10.8,8.4,16,12.5c19.3,15.2,38.3,30.1,56.5,44.5v0c2.7,2.2,4.4,3.5,4.4,5.6
			c0,2.2-1.7,3.5-4.5,5.7c-28.2,22.2-52.9,41.6-75.4,59.2c-0.3,0.2-0.5,0.4-0.8,0.7C167.9,516.6,166.5,518,164.6,518z M158.6,484.1
			c1.9,0,4,0.2,5.5,1.8c1.6,1.7,1.6,4,1.5,5.6c-0.3,5.5-0.2,11.1-0.1,16.5l0,2.3c0,0.6-0.1,1.2-0.1,1.7c0,0,0,0,0,0.1
			c0,0,0.1-0.1,0.1-0.1c0.4-0.3,0.7-0.7,1.1-1c22.5-17.6,47.1-37,75.4-59.2c0.7-0.6,1.6-1.3,2.1-1.7c-0.6-0.5-1.4-1.2-2.1-1.7h0
			c-18.2-14.3-37.2-29.3-56.5-44.4c-5.2-4.1-10.5-8.2-16-12.5c-1.3-1-2.7-2.1-4-3.1c0,0.9,0,1.7,0,2.6c0,5.8,0,11.2,0.1,16.6
			c0,2.3-0.5,3.9-1.6,5.1c-1.1,1.1-2.8,1.7-5,1.6c-2.8-0.1-5.7-0.1-8.5-0.1c-1.1,0-2.3,0-3.4,0l-30.4,0c-36.7,0-73.4,0-110.1,0
			l-0.4,0c-0.8,0-2.1,0-2.4,0.2l0,0c0,0-0.3,0.4-0.2,1.8c0.2,21.6,0.1,43.6,0.1,64.8l0,1.2c0,1.5,0.2,1.9,0.2,2c0,0,0,0,0,0
			c0,0,0.4,0.2,1.7,0.2l152.9-0.1C158.4,484.1,158.5,484.1,158.6,484.1z"/>
	</g>
	<g>
		<path d="M228.3,397.4c-3.5,0-6.1-1.3-8.2-4.3c-6.9-9.8-13.1-19.9-18.4-30.1l0,0c-0.2-0.3-3.9-6.8-8.6-18.6
			c-8.5-20.8-13.9-42.9-15.9-65.6c0-0.3-0.1-0.6-0.2-1c-0.2-1.1-0.5-2.5-0.1-4c-0.2-2.3-0.3-4.7-0.4-7.1c-0.1-0.7-0.2-1.4-0.2-2.1
			c-0.3-7.8-0.2-15.6,0.3-23.4l2.5,0.2l-2.5-0.1l2.5,0.1l-2.5-0.2l0-0.2c0.1-0.9,0.1-1.8,0.2-2.6c1.3-18.7,4.8-37.3,10.5-55.3
			c9.6-30.5,26-58.4,48.7-82.9c5.8-6.4,11.8-12.4,18-17.8c11.1-9.8,22.9-18.5,35.1-25.9c14-8.7,23.5-12.7,23.9-12.9l5.4-2.2
			l-0.1,0.2c20.6-8.7,42.7-14.4,65.9-17c1.8-0.2,3.5-0.3,5.2-0.4c0.8,0,1.5-0.1,2.3-0.1l2-0.1l1.3,4.5l-1.3,1
			c-4.1,3.2-8.2,6.5-12.3,9.7c-11,8.7-22.3,17.7-33.6,26.3c-0.8,0.6-1.3,1.1-1.5,1.3c0.2,0.2,0.7,0.7,1.6,1.4
			c8.5,6.5,17.1,13.2,25.4,19.7c2.8,2.2,5.7,4.5,8.5,6.7c1.4,1.1,2.8,2.3,4.2,3.4c0.6,0.5,1.3,1.1,1.9,1.6l4,3.2l-5,1.2
			c-77.4,18-121,64.5-129.9,138.3c-7.2,60.7,23.6,118,80.6,149.5l3.2,1.8l-2.8,2.3c-2,1.6-4.1,1.5-5.5,1.3c-0.3,0-0.5-0.1-0.8,0
			c-13.1,0-26.3,0-39.4,0C271.4,397.4,249.6,397.4,228.3,397.4C228.3,397.4,228.3,397.4,228.3,397.4z M205.3,359.1l0.8,1.5
			c5.2,10.1,11.3,20.1,18.1,29.7c1.2,1.7,2.2,2.2,4.1,2.2c0,0,0,0,0,0c21.4-0.1,43.1-0.1,64.1-0.1c12,0,24.1,0,36.1,0
			c-25.8-15.8-46.3-37.3-59.8-62.6c-14.4-27.2-20.1-57.6-16.5-87.9c8.9-74.5,52.2-122.1,128.8-141.4c-0.7-0.6-1.5-1.2-2.2-1.7
			c-2.9-2.2-5.7-4.5-8.5-6.7c-8.2-6.5-16.8-13.2-25.3-19.6c-1.9-1.4-3.7-3-3.7-5.3c0-2.2,1.7-3.9,3.6-5.3
			c11.3-8.6,22.6-17.6,33.6-26.3c2.5-2,5-3.9,7.4-5.9c-0.3,0-0.7,0.1-1,0.1c-24.7,2.8-48.2,9.2-69.9,19l-5.5,2.5l0.1-0.2
			c-4.1,2-10.3,5.3-17.8,10c-12,7.3-23.6,15.8-34.4,25.4c-6,5.3-11.9,11.2-17.6,17.5c-22.2,24-38.2,51.3-47.6,81
			c-5.6,17.6-9,35.8-10.3,54.1c-0.1,0.9-0.1,1.7-0.2,2.6l0,0.2c-0.5,7.6-0.6,15.3-0.3,22.9c0,0.6,0.1,1.1,0.2,1.5l0,0.4
			c0.1,2.6,0.3,5.1,0.5,7.7l0.1,0.8l-0.3,0.6c0,0.3,0.1,0.9,0.2,1.3c0.1,0.5,0.2,1,0.3,1.6c2,22.2,7.3,43.8,15.6,64.2
			C201,350.9,203.9,356.6,205.3,359.1L205.3,359.1z M181.6,275.4L181.6,275.4L181.6,275.4z"/>
	</g>
	<g>
		<path d="M232.1,489.4c-1.4,0-3.2-0.2-5.1-1.2l-3.4-1.9l9-6.7c4.3-3.2,8.4-6.3,12.6-9.4c2-1.5,4-3,6-4.5c6.6-4.9,13.4-10,20.2-14.8
			c0.5-0.3,0.8-0.6,1-0.8c-0.2-0.2-0.5-0.5-1-0.9c-10.3-7.9-20.6-16.1-30.6-23.9l-8.3-6.6c-1.2-0.9-2.3-1.9-3.5-2.9
			c-0.5-0.4-1-0.9-1.6-1.3l-1.8-1.5l1.3-1.9c2-2.8,4.6-2.5,6-2.3c0.3,0,0.5,0.1,0.7,0.1c25.8,0,51.6-0.1,77.5-0.1
			c32.3,0,65.6,0,98.5-0.1c33.7-0.1,63.8-9.9,89.4-29.3c46.8-35.5,67.5-81.8,61.6-137.9c-6.6-63.1-41.4-106.9-103.4-130.3
			c-0.2-0.1-0.4-0.1-0.6-0.2c0,0.2,0,0.4,0,0.6c0.1,5,0.1,10.1,0.1,15.4c0,2.3,0,4.7,0,7.1v5.1l-12-9.4c-5.6-4.4-11-8.6-16.4-12.8
			l-4.7-3.7c-17.3-13.6-34.6-27.1-51.9-40.7c-3-2.4-4.7-3.7-4.7-5.8c0-2.2,1.6-3.5,4.6-5.8c9.7-7.6,19.3-15.1,28.9-22.7
			c15.7-12.3,31.4-24.6,47.1-36.9c0.2-0.2,0.5-0.5,0.8-0.7c1-1,3.1-3.2,5.8-2c3.1,1.4,2.7,4.7,2.5,6.1c-0.1,0.4-0.1,0.8-0.1,1.1
			l0.1,2.5c0.1,5.1,0.3,10.5-0.1,15.7c-0.2,2.8,0.2,3.4,3.2,3.9c19,3.7,38.2,10.5,56.9,20.1c29.4,15.1,54.6,35.9,75,61.9
			c27.7,35.2,44.2,75.8,49,120.6c1,9.3,1,18.7,1,27.8c0,2.8,0,5.6,0,8.4l0,0.1l-0.5,10.4c-4,40.1-16.8,76.4-38.1,107.8
			c-30.8,45.4-72.1,76.7-122.8,92.9c-3.4,1.3-12.9,4.5-28.5,7.3c-6.7,1.3-45.5,3.8-63,3.8H234c-0.3,0-0.6,0-0.9,0
			C232.8,489.3,232.5,489.4,232.1,489.4z M234.5,484.3h154.3c18,0,56.3-2.6,62.1-3.7c15.4-2.8,24.5-5.9,27.8-7.1l0.1,0
			c49.7-15.9,90.1-46.5,120.3-91c20.8-30.7,33.3-66.2,37.2-105.5l0.5-10.1c0-2.8,0-5.6,0-8.4c0-8.9,0-18.2-1-27.2
			c-4.7-43.8-20.9-83.5-48-118c-20-25.4-44.6-45.7-73.4-60.5c-18.4-9.4-37.1-16.1-55.6-19.7c-5.4-1.1-7.6-3.8-7.2-9.2
			c0.4-5,0.2-10.2,0.1-15.2l-0.1-2.5c0-0.5,0-1.1,0.1-1.6c-0.3,0.3-0.6,0.6-1,0.9c-15.7,12.3-31.4,24.6-47,36.9
			c-9.6,7.5-19.2,15.1-28.8,22.6c-0.9,0.7-1.8,1.4-2.4,1.9c0.6,0.5,1.5,1.2,2.3,1.9c17.3,13.6,34.6,27.1,51.9,40.7l4.7,3.7
			c5.4,4.2,10.7,8.4,16.4,12.8l3.9,3.1c0-0.7,0-1.4,0-2c0-5.3,0-10.3-0.1-15.2c-0.1-2,0.1-4.1,1.8-5.2c1.7-1.2,3.7-0.7,5.5,0
			c31.3,11.8,56.2,29,74,51.2c18.2,22.6,29.1,50.6,32.5,83.2c3,28.9-1,55.7-11.9,79.8c-10.7,23.6-28.1,44.7-51.7,62.6
			c-26.5,20.1-57.5,30.3-92.4,30.4c-32.8,0.1-66.2,0.1-98.5,0.1c-25.6,0-51.2,0-76.7,0.1c0.4,0.3,0.7,0.6,1.1,0.9l8.3,6.6
			c10,7.9,20.3,16,30.5,23.9c1.6,1.2,3.2,2.8,3.2,4.9c0,2.2-1.8,3.7-3.3,4.7c-6.8,4.8-13.5,9.9-20.1,14.7c-2,1.5-4,3-6,4.5
			c-4.2,3.1-8.3,6.2-12.6,9.4L234.5,484.3z"/>
	</g>
	<g>
		<path d="M1862.5,518.3c-0.4,0-0.8,0-1.3-0.1l-2-0.4v-2.1c0-2.3,0-4.5-0.1-6.8c-0.1-5.4-0.1-11,0.2-16.5c0.1-2.2-0.3-2.8-0.3-2.9
			c-0.1-0.2-0.8-0.5-3.2-0.4l-0.1,0l-222,0.1c-0.6,0-1.1-0.1-1.8-0.3c-0.4-0.1-0.9-0.2-1.6-0.4l-6.9-1.7l6.5-3
			c2.3-1.1,4.6-2.1,6.7-3.1c4.3-2,8.4-3.9,12.3-5.8c30.1-15.2,56-35.7,76.9-60.9c2.8-3.4,6.2-5,10.8-5c0,0,0,0,0.1,0
			c17.9,0.1,36.2,0.1,53.8,0.1c21.5,0,43.8,0,65.6,0.1c0,0,0.1,0,0.1,0c2.2,0,2.7-0.4,2.9-0.5c0.1-0.1,0.5-0.6,0.4-2.8
			c-0.2-5-0.2-10-0.1-15.3c0-2.4,0-4.8,0-7.4V378l10.8,8.4c4.6,3.6,8.9,7,13.2,10.4l17,13.4c15,11.8,30,23.6,45,35.3l0.4,0.3
			c1.3,1,2.9,2.2,2.9,4.3c0,2-1.5,3.4-2.7,4.3c-16.8,13.1-33.8,26.5-50.3,39.4c-9.5,7.5-19.1,15-28.6,22.5c-0.1,0.1-0.2,0.2-0.3,0.3
			C1865.8,517.2,1864.5,518.3,1862.5,518.3z M1856.4,484.1c2.2,0,4.5,0.3,6.1,2c1.8,1.9,1.9,4.5,1.8,6.7c-0.3,5.3-0.3,10.8-0.2,16.1
			c0,1.1,0,2.2,0,3.2c9.4-7.4,18.8-14.8,28.2-22.1c16.5-13,33.5-26.3,50.3-39.5c0.1-0.1,0.3-0.2,0.4-0.3c-0.2-0.1-0.3-0.3-0.5-0.4
			l-0.4-0.3c-15-11.8-30-23.5-45-35.3l-17-13.4c-4.3-3.4-8.6-6.8-13.2-10.4l-2.7-2.1c0,0.8,0,1.5,0,2.3c0,5.2-0.1,10.2,0.1,15.1
			c0.1,2.1,0,4.6-1.8,6.4c-1.8,1.8-4.4,2-6.6,2c-21.9-0.1-44.1-0.1-65.6-0.1c-17.6,0-35.9,0-53.8-0.1c-3.2,0-5.1,0.8-7,3.2
			c-21.4,25.8-47.8,46.7-78.5,62.2c-3.3,1.7-6.7,3.3-10.3,4.9l214.9-0.1C1855.9,484.1,1856.1,484.1,1856.4,484.1z"/>
	</g>
	<g>
		<path d="M1298.6,518.3c-0.4,0-0.8,0-1.3-0.1l-2-0.4v-2.1c0-2.3,0-4.5-0.1-6.8c-0.1-5.4-0.1-11,0.2-16.5c0.1-2.2-0.3-2.8-0.3-2.9
			c-0.1-0.2-0.8-0.5-3.2-0.4l-0.1,0l-222,0.1c-0.6,0-1.1-0.1-1.8-0.3c-0.4-0.1-0.9-0.2-1.6-0.4l-6.9-1.7l6.5-3
			c2.3-1.1,4.6-2.1,6.7-3.1c4.3-2,8.4-3.9,12.3-5.8c30.1-15.2,56-35.7,76.9-60.9c2.9-3.4,6.2-5,10.8-5c0,0,0,0,0.1,0
			c17.9,0.1,36.2,0.1,53.8,0.1c21.5,0,43.8,0,65.6,0.1c2.3,0,2.8-0.4,3-0.5c0.1-0.1,0.5-0.6,0.4-2.8c-0.2-5-0.2-10-0.1-15.3
			c0-2.4,0-4.8,0-7.4V378l10.8,8.4c4.6,3.6,8.9,7,13.2,10.4l17.1,13.5c15,11.8,29.9,23.5,44.9,35.2l0.4,0.3c1.3,1,2.9,2.2,2.9,4.3
			c0,2-1.5,3.4-2.7,4.3c-16.8,13.1-33.8,26.5-50.3,39.4c-9.5,7.5-19.1,15-28.6,22.5c-0.1,0.1-0.2,0.2-0.3,0.3
			C1301.9,517.2,1300.6,518.3,1298.6,518.3z M1292.5,484.1c2.2,0,4.5,0.3,6.1,2c1.8,1.9,1.9,4.5,1.8,6.7c-0.3,5.3-0.3,10.8-0.2,16.1
			c0,1.1,0,2.2,0,3.2c9.4-7.4,18.8-14.8,28.2-22.1c16.5-13,33.5-26.3,50.3-39.5c0.1-0.1,0.3-0.2,0.4-0.3c-0.2-0.1-0.3-0.3-0.5-0.4
			l-0.4-0.3c-15-11.7-30-23.5-44.9-35.2l-17.1-13.5c-4.3-3.4-8.6-6.8-13.2-10.4l-2.7-2.1c0,0.8,0,1.5,0,2.3c0,5.2-0.1,10.2,0.1,15.1
			c0.1,2.1,0,4.6-1.8,6.4c-1.8,1.8-4.5,2-6.6,2c-21.9-0.1-44.1-0.1-65.6-0.1c-17.6,0-35.9,0-53.8-0.1c0,0,0,0-0.1,0
			c-3.1,0-5,0.9-6.9,3.2c-21.4,25.8-47.8,46.7-78.5,62.2c-3.3,1.7-6.7,3.3-10.3,4.9l214.9-0.1C1292,484.1,1292.3,484.1,1292.5,484.1
			z"/>
	</g>
	<g>
		<path d="M1358.3,397.4c-3.5,0-6.1-1.3-8.2-4.3c-6.9-9.7-13.1-19.9-18.4-30.1l0,0c-0.2-0.3-3.9-6.8-8.6-18.6
			c-8.5-20.8-13.9-42.9-15.9-65.6c0-0.3-0.1-0.6-0.2-1c-0.2-1.1-0.5-2.5-0.1-4c-0.2-2.3-0.3-4.7-0.4-7.1c-0.1-0.7-0.2-1.4-0.2-2.1
			c-0.3-7.7-0.2-15.6,0.3-23.4l0-0.2c0.1-0.9,0.1-1.8,0.2-2.7c1.3-18.7,4.8-37.3,10.5-55.3c9.6-30.5,26-58.4,48.7-82.9
			c5.8-6.4,11.8-12.4,18-17.8c11.1-9.8,22.9-18.5,35.1-25.9c14-8.7,23.5-12.7,23.9-12.9l5.4-2.2l-0.1,0.2
			c20.6-8.7,42.7-14.4,65.9-17c1.8-0.2,3.5-0.3,5.2-0.4c0.8,0,1.5-0.1,2.3-0.1l2-0.1l1.3,4.5l-1.3,1c-4.1,3.2-8.2,6.5-12.3,9.7
			c-11,8.7-22.3,17.7-33.6,26.3c-0.8,0.6-1.3,1.1-1.5,1.3c0.2,0.2,0.7,0.7,1.6,1.4c8.5,6.5,17.1,13.2,25.3,19.7
			c2.8,2.2,5.7,4.5,8.6,6.7c1.4,1.1,2.8,2.3,4.2,3.4c0.6,0.5,1.3,1.1,1.9,1.6l4,3.2l-5,1.2c-77.4,18-121,64.5-129.9,138.3
			c-7.2,60.7,23.6,118,80.6,149.5l3.2,1.8l-2.8,2.3c-2,1.6-4.1,1.5-5.5,1.3c-0.3,0-0.6,0-0.8,0c-13.1,0-26.3,0-39.4,0
			C1401.4,397.4,1379.7,397.4,1358.3,397.4C1358.3,397.4,1358.3,397.4,1358.3,397.4z M1335.3,359.1l0.8,1.5
			c5.2,10.1,11.3,20.1,18.1,29.7c1.2,1.7,2.2,2.2,4.1,2.2c0,0,0,0,0,0c21.4-0.1,43.1-0.1,64.1-0.1c12,0,24.1,0,36.1,0
			c-25.8-15.8-46.3-37.3-59.8-62.6c-14.4-27.2-20.1-57.6-16.5-87.9c8.9-74.5,52.2-122.1,128.8-141.4c-0.7-0.6-1.5-1.2-2.2-1.7
			c-2.9-2.2-5.7-4.5-8.6-6.7c-8.2-6.5-16.8-13.2-25.3-19.6c-1.9-1.4-3.7-3-3.7-5.3c0-2.2,1.7-3.9,3.6-5.3
			c11.3-8.6,22.6-17.6,33.6-26.3c2.5-2,5-3.9,7.5-5.9c-0.3,0-0.7,0.1-1,0.1c-24.7,2.8-48.2,9.2-69.9,19l-5.5,2.5l0.1-0.2
			c-4.1,2.1-10.3,5.3-17.8,10c-12,7.3-23.6,15.8-34.4,25.4c-6,5.3-11.9,11.2-17.6,17.5c-22.2,24-38.2,51.3-47.6,81
			c-5.6,17.6-9,35.8-10.3,54.1c-0.1,0.9-0.1,1.7-0.2,2.6l0,0.2c-0.5,7.6-0.6,15.3-0.3,22.9c0,0.6,0.1,1.1,0.2,1.5l0,0.4
			c0.1,2.6,0.3,5.1,0.5,7.7l0.1,0.8l-0.3,0.6c0,0.3,0.1,0.9,0.2,1.3c0.1,0.5,0.2,1,0.3,1.6c2,22.2,7.3,43.8,15.6,64.2
			C1331.1,350.9,1334,356.6,1335.3,359.1L1335.3,359.1z M1311.7,275.4L1311.7,275.4L1311.7,275.4z"/>
	</g>
	<g>
		<path d="M1362.1,489.4c-1.4,0-3.2-0.2-5.1-1.2l-3.4-1.9l9-6.7c4.3-3.2,8.4-6.3,12.6-9.4c2-1.5,4-3,6-4.5
			c6.6-4.9,13.4-10,20.2-14.8c0.5-0.3,0.8-0.6,1-0.8c-0.2-0.2-0.5-0.5-1-0.9c-10.3-7.9-20.6-16.1-30.6-24l-8.3-6.6
			c-1.2-0.9-2.3-1.9-3.5-2.9c-0.5-0.4-1-0.9-1.6-1.3l-1.8-1.5l1.3-1.9c2-2.8,4.6-2.5,6-2.3c0.3,0,0.5,0.1,0.7,0.1c0,0,0,0,0,0
			c25.8,0,51.6-0.1,77.5-0.1c32.3,0,65.6,0,98.5-0.1c33.7-0.1,63.8-9.9,89.4-29.3c46.8-35.5,67.5-81.8,61.6-137.9
			c-6.6-63.1-41.4-106.9-103.4-130.3c-0.2-0.1-0.4-0.1-0.6-0.2c0,0.2,0,0.4,0,0.6c0.1,5,0.1,10.1,0.1,15.4c0,2.3,0,4.7,0,7.1v5.1
			l-11.7-9.2c-5.7-4.5-11.2-8.8-16.6-13l-4.1-3.2c-17.5-13.7-35-27.5-52.5-41.2c-3-2.4-4.7-3.7-4.7-5.8c0-2.2,1.6-3.5,4.6-5.8
			c9.6-7.5,19.1-15,28.7-22.5c15.8-12.4,31.5-24.7,47.3-37c0.2-0.2,0.5-0.5,0.8-0.7c1-1,3.1-3.2,5.8-2c3.1,1.4,2.7,4.7,2.5,6.1
			c-0.1,0.4-0.1,0.8-0.1,1.1l0.1,2.5c0.1,5.1,0.3,10.4-0.1,15.7c-0.2,2.8,0.2,3.4,3.2,3.9c19,3.7,38.2,10.5,56.9,20.1
			c29.4,15.1,54.6,35.9,75,61.9c27.7,35.2,44.2,75.8,49,120.6c1,9.3,1,18.7,1,27.7c0,2.8,0,5.6,0,8.4l0,0.1l0,0.1l-0.5,10.4
			c-4,40.1-16.8,76.4-38.1,107.8c-30.8,45.5-72.1,76.7-122.8,92.9c-3.4,1.3-12.9,4.5-28.5,7.3c-6.7,1.3-45.5,3.8-63,3.8h-154.8
			c-0.3,0-0.6,0-0.9,0C1362.9,489.3,1362.5,489.4,1362.1,489.4z M1364.6,484.3h154.3c18,0,56.3-2.6,62.1-3.7
			c15.4-2.8,24.5-5.9,27.8-7.1l0.1,0c49.7-15.9,90.1-46.5,120.3-91c20.8-30.7,33.3-66.2,37.2-105.5l0.5-10.1c0-2.8,0-5.6,0-8.4
			c0-8.9,0-18.2-1-27.2c-4.7-43.8-20.9-83.5-48-118c-20-25.4-44.6-45.7-73.4-60.5c-18.4-9.4-37.1-16.1-55.6-19.7
			c-5.4-1.1-7.6-3.8-7.2-9.2c0.4-5,0.2-10.2,0.1-15.2l-0.1-2.5c0-0.5,0-1.1,0.1-1.6c-0.3,0.3-0.6,0.6-1,0.9
			c-15.8,12.3-31.5,24.7-47.3,37c-9.5,7.5-19.1,15-28.6,22.4c-0.9,0.7-1.8,1.4-2.4,1.9c0.6,0.5,1.5,1.2,2.3,1.9
			c17.5,13.7,35,27.5,52.5,41.2l4.1,3.2c5.4,4.3,10.9,8.5,16.6,13l3.7,2.9c0-0.7,0-1.4,0-2c0-5.3,0-10.3-0.1-15.2
			c-0.1-2,0.1-4.1,1.8-5.2c1.7-1.2,3.7-0.7,5.5,0c31.3,11.8,56.2,29,74,51.2c18.2,22.6,29.1,50.6,32.5,83.2c3,28.9-1,55.7-11.9,79.8
			c-10.7,23.6-28.1,44.7-51.7,62.6c-26.5,20.1-57.5,30.3-92.4,30.4c-32.8,0.1-66.2,0.1-98.5,0.1c-25.6,0-51.2,0-76.7,0.1
			c0.4,0.3,0.7,0.6,1.1,0.9l8.3,6.6c10,7.9,20.3,16,30.6,23.9c1.6,1.2,3.2,2.8,3.2,4.9c0,2.2-1.8,3.7-3.3,4.7
			c-6.8,4.8-13.5,9.8-20.1,14.7c-2,1.5-4,3-6,4.5c-4.2,3.1-8.3,6.2-12.6,9.4L1364.6,484.3z"/>
	</g>
	<g>
		<path d="M795.2,397.4c-3.5,0-6.1-1.3-8.2-4.3c-6.9-9.8-13.1-19.9-18.4-30.1l0,0c-0.2-0.3-3.9-6.8-8.6-18.6
			c-8.5-20.8-13.9-42.9-15.9-65.6c0-0.3-0.1-0.6-0.2-1c-0.2-1.1-0.5-2.5-0.1-4c-0.2-2.3-0.3-4.7-0.4-7.1c-0.1-0.7-0.2-1.4-0.2-2.1
			c-0.3-7.8-0.2-15.6,0.3-23.4l0-0.1c0.1-1,0.1-1.8,0.2-2.7c1.3-18.7,4.8-37.3,10.5-55.3c9.6-30.5,26-58.4,48.7-82.9
			c5.8-6.4,11.8-12.4,18-17.8c11.1-9.8,22.9-18.5,35.1-25.9c14-8.7,23.5-12.7,23.9-12.9l5.4-2.2l-0.1,0.2
			c20.6-8.7,42.7-14.4,65.9-17c1.8-0.2,3.5-0.3,5.2-0.4c0.8,0,1.5-0.1,2.3-0.1l2-0.1l1.3,4.5l-1.3,1.1c-4.1,3.2-8.2,6.5-12.3,9.7
			C937.4,48,926,57,914.7,65.6c-0.8,0.6-1.3,1.1-1.5,1.3c0.2,0.2,0.7,0.7,1.6,1.4c8.5,6.5,17.1,13.2,25.3,19.7
			c2.8,2.2,5.7,4.5,8.6,6.7c1.4,1.1,2.8,2.3,4.2,3.4c0.6,0.5,1.3,1.1,1.9,1.6l4,3.2l-5,1.2c-77.4,18-121,64.5-129.9,138.3
			c-7.2,60.7,23.6,118,80.6,149.5l3.2,1.8L905,396c-2,1.6-4.1,1.5-5.5,1.3c-0.3,0-0.6-0.1-0.8,0c-13.1,0-26.3,0-39.4,0
			C838.3,397.4,816.6,397.4,795.2,397.4C795.2,397.4,795.2,397.4,795.2,397.4z M772.2,359.1l0.8,1.5c5.2,10.1,11.3,20.1,18.1,29.7
			c1.2,1.7,2.2,2.2,4.1,2.2c21.4-0.1,43.1-0.1,64.1-0.1c12,0,24.1,0,36.1,0c-25.8-15.8-46.3-37.3-59.8-62.6
			c-14.4-27.2-20.1-57.6-16.5-87.9c8.9-74.5,52.2-122.1,128.8-141.4c-0.7-0.6-1.5-1.2-2.2-1.7c-2.9-2.2-5.7-4.5-8.6-6.7
			c-8.2-6.5-16.8-13.2-25.3-19.6c-1.9-1.4-3.7-3-3.7-5.3c0-2.2,1.7-3.9,3.6-5.3c11.3-8.6,22.6-17.6,33.6-26.3c2.5-2,5-3.9,7.5-5.9
			c-0.3,0-0.7,0.1-1,0.1c-24.7,2.8-48.2,9.2-69.9,19l-5.5,2.5l0.1-0.2c-4.1,2.1-10.3,5.3-17.8,10c-12,7.3-23.6,15.8-34.4,25.4
			c-6,5.3-11.9,11.2-17.6,17.5c-22.2,24-38.2,51.3-47.6,81c-5.6,17.6-9,35.8-10.3,54.1c-0.1,0.9-0.1,1.7-0.2,2.6l0,0.2
			c-0.5,7.6-0.6,15.3-0.3,22.9c0,0.6,0.1,1.1,0.2,1.5l0,0.4c0.1,2.6,0.3,5.1,0.5,7.7l0.1,0.8l-0.3,0.6c0,0.3,0.1,0.9,0.2,1.3
			c0.1,0.5,0.2,1,0.3,1.6c2,22.2,7.3,43.8,15.6,64.2C768,350.9,770.9,356.6,772.2,359.1L772.2,359.1z"/>
	</g>
	<g>
		<path d="M974.3,489.4c-5.5,0-11-0.1-16.5-0.2c-3.4,0-6.9,0-10.4,0c-2.8,0-5.7,0-8.5,0l-15.8,0c-40.7,0-81.5,0-122.2,0
			c-0.3,0-0.6,0-1,0c-1.5,0.1-3.6,0.2-6.1-1.1l-3.4-1.9l9.1-6.8c4.2-3.2,8.4-6.3,12.5-9.3c2-1.5,4-3,6-4.5
			c6.6-4.9,13.4-10,20.2-14.8c0.5-0.3,0.8-0.6,1-0.8c-0.2-0.2-0.5-0.5-1-0.9c-10.3-7.9-20.6-16.1-30.6-23.9l-8.3-6.6
			c-1.2-0.9-2.3-1.9-3.5-2.9c-0.5-0.4-1-0.9-1.6-1.3l-1.8-1.5l1.3-1.9c2-2.8,4.6-2.5,6-2.3c0.3,0,0.5,0.1,0.7,0.1
			c25.8,0,51.6-0.1,77.5-0.1c32.3,0,65.6,0,98.5-0.1c33.7-0.1,63.8-9.9,89.4-29.3c46.8-35.5,67.5-81.8,61.6-137.9
			c-6.6-63.1-41.4-106.9-103.4-130.3c-0.2-0.1-0.4-0.1-0.6-0.2c0,0.2,0,0.4,0,0.6c0.1,5,0.1,10.1,0.1,15.4c0,2.3,0,4.7,0,7.1v5.1
			l-12.2-9.6c-5.5-4.3-10.8-8.5-16.1-12.6l-3.2-2.5c-17.8-14-35.6-27.9-53.4-41.9c-3-2.4-4.7-3.7-4.7-5.8c0-2.2,1.6-3.5,4.6-5.8
			c9.6-7.6,19.2-15.1,28.8-22.6c15.7-12.3,31.4-24.6,47.2-37c0.2-0.2,0.5-0.5,0.8-0.7c1-1,3.1-3.2,5.8-2c3.1,1.4,2.7,4.7,2.5,6.1
			c-0.1,0.4-0.1,0.8-0.1,1.1l0.1,2.5c0.1,5.1,0.3,10.4-0.1,15.7c-0.2,2.8,0.2,3.4,3.2,3.9c19,3.7,38.2,10.5,56.9,20.1
			c29.4,15.1,54.6,35.9,75,61.9c27.7,35.2,44.2,75.8,49,120.6c1,9.3,1,18.7,1,27.8c0,2.8,0,5.6,0,8.4l0,0.1l0,0.1l-0.5,10.4
			c-4,40.1-16.8,76.4-38.1,107.8l0,0c-30.8,45.5-72.1,76.7-122.8,92.9c-3.4,1.3-12.9,4.5-28.5,7.3c-6.2,1.2-12.5,2.1-18.8,2.8
			C992.2,489.2,983.4,489.4,974.3,489.4z M955.6,484.2c0.8,0,1.5,0,2.3,0c14.4,0.3,29.4,0.5,41.6-0.9c6.1-0.6,12.3-1.5,18.4-2.7
			c15.4-2.8,24.5-5.9,27.8-7.1l0.1,0c49.7-15.9,90.1-46.5,120.3-91l2.1,1.4l-2.1-1.4c20.8-30.7,33.3-66.2,37.2-105.5l0.5-10.1
			c0-2.8,0-5.6,0-8.4c0-8.9,0-18.2-1-27.2c-4.7-43.8-20.9-83.5-48-118c-20-25.4-44.6-45.7-73.4-60.5c-18.4-9.4-37.1-16.1-55.6-19.7
			c-5.4-1.1-7.6-3.8-7.2-9.2c0.4-5,0.2-10.2,0.1-15.2l-0.1-2.5c0-0.5,0-1.1,0.1-1.6c-0.3,0.3-0.6,0.6-1,0.9
			c-15.7,12.3-31.4,24.6-47.2,37c-9.6,7.5-19.1,15-28.7,22.5c-0.9,0.7-1.8,1.4-2.4,1.9c0.6,0.5,1.5,1.2,2.3,1.9
			c17.8,14,35.6,27.9,53.4,41.9l3.2,2.5c5.3,4.1,10.5,8.3,16.1,12.6l4.2,3.3c0-0.7,0-1.4,0-2c0-5.3,0-10.3-0.1-15.2
			c-0.1-2,0.1-4.1,1.8-5.2c1.7-1.2,3.7-0.7,5.5,0c31.3,11.8,56.2,29,74,51.2c18.2,22.6,29.1,50.6,32.5,83.2c3,28.9-1,55.7-11.9,79.8
			c-10.7,23.6-28.1,44.7-51.7,62.6c-26.5,20.1-57.5,30.3-92.4,30.4c-32.8,0.1-66.2,0.1-98.5,0.1c-25.6,0-51.2,0-76.7,0.1
			c0.4,0.3,0.7,0.6,1.1,0.9l8.3,6.6c10,7.9,20.3,16,30.6,23.9c1.6,1.2,3.2,2.8,3.2,4.9c0,2.2-1.8,3.7-3.3,4.7
			c-6.8,4.8-13.5,9.8-20.1,14.7c-2,1.5-4,3-6,4.5c-4.1,3.1-8.3,6.2-12.5,9.3l-1,0.7c40.5,0,81,0,121.5,0l15.8,0c2.8,0,5.6,0,8.5,0
			C950.1,484.2,952.9,484.2,955.6,484.2z"/>
	</g>
</g>
</svg>
