<svg width="127" height="30" viewBox="0 0 127 30" fill="none" xmlns="http://www.w3.org/2000/svg">
<path fill-rule="evenodd" clip-rule="evenodd" d="M16.94 20.6587C16.941 20.639 16.941 20.6193 16.941 20.6006L16.94 20.6587ZM37.703 9.35478V26.3931C37.703 28.3588 36.2316 29.9533 34.4168 29.9533C32.6038 29.9533 31.1315 28.3598 31.1315 26.3931V9.35478C31.1315 9.29465 31.1325 9.23659 31.1372 9.17853H31.1353C31.1353 8.03912 30.2839 7.11536 29.2325 7.11536C28.1839 7.11536 27.3086 8.03497 27.3067 9.17231C27.3067 9.17438 27.3076 9.17542 27.3067 9.17853C27.3086 9.21689 27.3067 9.25629 27.3067 9.29672C27.3076 9.31435 27.3067 9.33612 27.3067 9.35478V20.6006C27.3067 20.6597 27.3095 20.7188 27.3067 20.7769C27.3067 25.8446 23.5153 29.9533 18.8381 29.9533C17.6929 29.9533 16.6004 29.7076 15.6045 29.2597C12.5316 27.8829 10.3705 24.6046 10.3705 20.7769H10.3753C10.3714 20.7188 10.3705 20.6587 10.3705 20.6006L10.3686 9.35375C10.3686 9.33508 10.3686 9.31435 10.3705 9.29569C10.3705 9.25525 10.3714 9.21689 10.3733 9.17853C10.3724 9.17438 10.3733 9.17335 10.3733 9.17127C10.3705 8.03394 9.51806 7.11536 8.46954 7.11536C7.4191 7.11536 6.56668 8.03808 6.56668 9.17853C6.57051 9.23555 6.57147 9.29465 6.57147 9.35478V26.3931C6.57147 28.3588 5.09914 29.9533 3.28526 29.9533C1.47138 29.9533 0 28.3588 0 26.3931V9.35478C0 9.29465 0.000959445 9.23659 0.0047862 9.17853H0.00287339C0.00287339 4.10872 3.79517 0 8.47241 0C13.1496 0 16.94 4.10872 16.94 9.17853H16.9352C16.9391 9.23555 16.94 9.29465 16.94 9.35478V20.6587C16.94 20.6981 16.9391 20.7375 16.9362 20.7769V20.7831C16.9362 20.8246 16.9372 20.865 16.94 20.9044C17.0003 21.9847 17.8288 22.8401 18.841 22.8401C19.8924 22.8401 20.7409 21.9163 20.7409 20.7769C20.7381 20.7188 20.7409 20.6597 20.7409 20.6006V9.35478C20.7409 9.29465 20.7362 9.23659 20.7409 9.17853C20.7409 4.10976 24.5533 0.00103647 29.2306 0.00103647C33.9078 0.00103647 37.6991 4.10872 37.6991 9.17853C37.702 9.23659 37.703 9.29465 37.703 9.35478ZM73.8226 29.2483H80.3711V14.7564H80.4812L90.9071 29.2483H99.5843L87.6324 13.7497L98.8763 0.854299H90.469L80.3711 12.6258V0.0829421H73.8217L73.8226 29.2483ZM48.4312 11.8565C48.7756 10.8311 49.2846 9.92501 49.9581 9.13499C50.6326 8.34704 51.441 7.71565 52.3871 7.24288C53.3333 6.77011 54.4077 6.53269 55.6093 6.53269C56.8089 6.53269 57.8823 6.77115 58.8285 7.24288C59.7747 7.71565 60.584 8.34704 61.2585 9.13499C61.931 9.92501 62.441 10.8311 62.7854 11.8565C63.1317 12.8829 63.3058 13.9466 63.3058 15.0508C63.3058 16.155 63.1317 17.2197 62.7854 18.2451C62.441 19.2705 61.9301 20.1776 61.2585 20.9666C60.5831 21.7556 59.7747 22.386 58.8285 22.8587C57.8823 23.3315 56.8099 23.5679 55.6093 23.5679C54.4077 23.5679 53.3333 23.3315 52.3871 22.8587C51.441 22.386 50.6326 21.7556 49.9581 20.9666C49.2846 20.1776 48.7756 19.2705 48.4312 18.2451C48.084 17.2197 47.9118 16.155 47.9118 15.0508C47.9118 13.9466 48.084 12.8829 48.4312 11.8565ZM42.4807 21.174C43.225 23.007 44.2352 24.5756 45.5095 25.8768C46.7829 27.1779 48.2944 28.1846 50.0394 28.8927C51.7873 29.6029 53.6433 29.9575 55.6083 29.9575C57.5733 29.9575 59.4283 29.6029 61.1753 28.8927C62.9222 28.1846 64.4318 27.1779 65.7052 25.8768C66.9795 24.5756 67.9888 23.007 68.735 21.174C69.4802 19.341 69.8543 17.2996 69.8543 15.0508C69.8543 12.8031 69.4802 10.7627 68.735 8.92867C67.9888 7.09462 66.9795 5.52703 65.7052 4.22588C64.4318 2.92369 62.9222 1.91906 61.1753 1.20991C59.4283 0.499723 57.5733 0.145148 55.6083 0.145148C53.6433 0.145148 51.7873 0.499723 50.0394 1.20991C48.2944 1.91906 46.7829 2.92369 45.5095 4.22588C44.2352 5.52703 43.225 7.09462 42.4807 8.92867C41.7344 10.7627 41.3613 12.8031 41.3613 15.0508C41.3623 17.2985 41.7344 19.341 42.4807 21.174ZM113.49 23.5679C109.058 23.5679 106.237 19.4218 106.237 14.973C106.237 10.5761 109.152 6.48189 113.49 6.48189C118.015 6.48189 120.581 10.3739 120.581 14.973C120.581 19.624 118.062 23.5679 113.49 23.5679ZM127 0.891623H121.31V5.58301H121.2C119.147 2.2135 116.038 0.0487275 112.208 0.0487275C104.661 0.0487275 99.5795 7.08529 99.5795 14.7833C99.5795 22.8432 104.439 30 112.376 30C116.094 30 119.202 27.8352 121.2 24.6482H121.31V29.2483H127V0.891623Z" fill="black"/>
</svg>
