<svg width="127" height="32" viewBox="0 0 127 32" fill="none" xmlns="http://www.w3.org/2000/svg">
<path fill-rule="evenodd" clip-rule="evenodd" d="M16.94 22.1587C16.941 22.139 16.941 22.1193 16.941 22.1006L16.94 22.1587ZM37.703 10.8548V27.8931C37.703 29.8588 36.2316 31.4533 34.4168 31.4533C32.6038 31.4533 31.1315 29.8598 31.1315 27.8931V10.8548C31.1315 10.7946 31.1325 10.7366 31.1372 10.6785H31.1353C31.1353 9.53912 30.2839 8.61536 29.2325 8.61536C28.1839 8.61536 27.3086 9.53497 27.3067 10.6723C27.3067 10.6744 27.3076 10.6754 27.3067 10.6785C27.3086 10.7169 27.3067 10.7563 27.3067 10.7967C27.3076 10.8143 27.3067 10.8361 27.3067 10.8548V22.1006C27.3067 22.1597 27.3095 22.2188 27.3067 22.2769C27.3067 27.3446 23.5153 31.4533 18.8381 31.4533C17.6929 31.4533 16.6004 31.2076 15.6045 30.7597C12.5316 29.3829 10.3705 26.1046 10.3705 22.2769H10.3753C10.3714 22.2188 10.3705 22.1587 10.3705 22.1006L10.3686 10.8537C10.3686 10.8351 10.3686 10.8144 10.3705 10.7957C10.3705 10.7553 10.3714 10.7169 10.3733 10.6785C10.3724 10.6744 10.3733 10.6733 10.3733 10.6713C10.3705 9.53394 9.51806 8.61536 8.46954 8.61536C7.4191 8.61536 6.56668 9.53808 6.56668 10.6785C6.57051 10.7356 6.57147 10.7946 6.57147 10.8548V27.8931C6.57147 29.8588 5.09914 31.4533 3.28526 31.4533C1.47138 31.4533 0 29.8588 0 27.8931V10.8548C0 10.7946 0.000959445 10.7366 0.0047862 10.6785H0.00287339C0.00287339 5.60872 3.79517 1.5 8.47241 1.5C13.1496 1.5 16.94 5.60872 16.94 10.6785H16.9352C16.9391 10.7356 16.94 10.7946 16.94 10.8548V22.1587C16.94 22.1981 16.9391 22.2375 16.9362 22.2769V22.2831C16.9362 22.3246 16.9372 22.365 16.94 22.4044C17.0003 23.4847 17.8288 24.3401 18.841 24.3401C19.8924 24.3401 20.7409 23.4163 20.7409 22.2769C20.7381 22.2188 20.7409 22.1597 20.7409 22.1006V10.8548C20.7409 10.7946 20.7362 10.7366 20.7409 10.6785C20.7409 5.60976 24.5533 1.50104 29.2306 1.50104C33.9078 1.50104 37.6991 5.60872 37.6991 10.6785C37.702 10.7366 37.703 10.7946 37.703 10.8548ZM73.8226 30.7483H80.3711V16.2564H80.4812L90.9071 30.7483H99.5843L87.6324 15.2497L98.8763 2.3543H90.469L80.3711 14.1258V1.58294H73.8217L73.8226 30.7483ZM48.4312 13.3565C48.7756 12.3311 49.2846 11.425 49.9581 10.635C50.6326 9.84704 51.441 9.21565 52.3871 8.74288C53.3333 8.27011 54.4077 8.03269 55.6093 8.03269C56.8089 8.03269 57.8823 8.27115 58.8285 8.74288C59.7747 9.21565 60.584 9.84704 61.2585 10.635C61.931 11.425 62.441 12.3311 62.7854 13.3565C63.1317 14.3829 63.3058 15.4466 63.3058 16.5508C63.3058 17.655 63.1317 18.7197 62.7854 19.7451C62.441 20.7705 61.9301 21.6776 61.2585 22.4666C60.5831 23.2556 59.7747 23.886 58.8285 24.3587C57.8823 24.8315 56.8099 25.0679 55.6093 25.0679C54.4077 25.0679 53.3333 24.8315 52.3871 24.3587C51.441 23.886 50.6326 23.2556 49.9581 22.4666C49.2846 21.6776 48.7756 20.7705 48.4312 19.7451C48.084 18.7197 47.9118 17.655 47.9118 16.5508C47.9118 15.4466 48.084 14.3829 48.4312 13.3565ZM42.4807 22.674C43.225 24.507 44.2352 26.0756 45.5095 27.3768C46.7829 28.6779 48.2944 29.6846 50.0394 30.3927C51.7873 31.1029 53.6433 31.4575 55.6083 31.4575C57.5733 31.4575 59.4283 31.1029 61.1753 30.3927C62.9222 29.6846 64.4318 28.6779 65.7052 27.3768C66.9795 26.0756 67.9888 24.507 68.735 22.674C69.4802 20.841 69.8543 18.7996 69.8543 16.5508C69.8543 14.3031 69.4802 12.2627 68.735 10.4287C67.9888 8.59462 66.9795 7.02703 65.7052 5.72588C64.4318 4.42369 62.9222 3.41906 61.1753 2.70991C59.4283 1.99972 57.5733 1.64515 55.6083 1.64515C53.6433 1.64515 51.7873 1.99972 50.0394 2.70991C48.2944 3.41906 46.7829 4.42369 45.5095 5.72588C44.2352 7.02703 43.225 8.59462 42.4807 10.4287C41.7344 12.2627 41.3613 14.3031 41.3613 16.5508C41.3623 18.7985 41.7344 20.841 42.4807 22.674ZM113.49 25.0679C109.058 25.0679 106.237 20.9218 106.237 16.473C106.237 12.0761 109.152 7.98189 113.49 7.98189C118.015 7.98189 120.581 11.8739 120.581 16.473C120.581 21.124 118.062 25.0679 113.49 25.0679ZM127 2.39162H121.31V7.08301H121.2C119.147 3.7135 116.038 1.54873 112.208 1.54873C104.661 1.54873 99.5795 8.58529 99.5795 16.2833C99.5795 24.3432 104.439 31.5 112.376 31.5C116.094 31.5 119.202 29.3352 121.2 26.1482H121.31V30.7483H127V2.39162Z" fill="black"/>
</svg>
