<?xml version="1.0" encoding="utf-8"?>
<!-- Generator: Adobe Illustrator 25.3.1, SVG Export Plug-In . SVG Version: 6.00 Build 0)  -->
<svg version="1.1" id="Layer_1" xmlns="http://www.w3.org/2000/svg" xmlns:xlink="http://www.w3.org/1999/xlink" x="0px" y="0px"
	 viewBox="0 0 438 208" style="enable-background:new 0 0 438 208;" xml:space="preserve">
<style type="text/css">
	.st0{fill:#D5D5D5;}
	.st1{fill:none;stroke:#000000;}
</style>
<path d="M24.5,52.5h-4v100h4V52.5z"/>
<path d="M28.5,52.5h-2v100h2V52.5z"/>
<path d="M34.5,52.5h-2v100h2V52.5z"/>
<path d="M44.5,52.5h-2v100h2V52.5z"/>
<path d="M50.5,52.5h-2v100h2V52.5z"/>
<path d="M62.5,52.5h-4v100h4V52.5z"/>
<path d="M66.5,52.5h-2v100h2V52.5z"/>
<path d="M80.5,52.5h-8v100h8V52.5z"/>
<path d="M84.5,52.5h-2v100h2V52.5z"/>
<path d="M88.5,52.5h-2v100h2V52.5z"/>
<path d="M94.5,52.5h-2v100h2V52.5z"/>
<path d="M106.5,52.5h-4v100h4V52.5z"/>
<path d="M110.5,52.5h-2v100h2V52.5z"/>
<path d="M118.5,52.5h-4v100h4V52.5z"/>
<path d="M128.5,52.5h-2v100h2V52.5z"/>
<path d="M132.5,52.5h-2v100h2V52.5z"/>
<path d="M138.5,52.5h-2v100h2V52.5z"/>
<path d="M144.5,52.5h-4v100h4V52.5z"/>
<path d="M154.5,52.5h-2v100h2V52.5z"/>
<path d="M160.5,52.5h-2v100h2V52.5z"/>
<path d="M172.5,52.5h-8v100h8V52.5z"/>
<path d="M176.5,52.5h-2v100h2V52.5z"/>
<path d="M188.5,52.5h-8v100h8V52.5z"/>
<path d="M192.5,52.5h-2v100h2V52.5z"/>
<path d="M198.5,52.5h-2v100h2V52.5z"/>
<path d="M204.5,52.5h-2v100h2V52.5z"/>
<path d="M210.5,52.5h-4v100h4V52.5z"/>
<path d="M222.5,52.5h-4v100h4V52.5z"/>
<path d="M232.5,52.5h-2v100h2V52.5z"/>
<path d="M236.5,52.5h-2v100h2V52.5z"/>
<path d="M242.5,52.5h-2v100h2V52.5z"/>
<path d="M254.5,52.5h-8v100h8V52.5z"/>
<path d="M258.5,52.5h-2v100h2V52.5z"/>
<path d="M264.5,52.5h-2v100h2V52.5z"/>
<path d="M278.5,52.5h-8v100h8V52.5z"/>
<path d="M282.5,52.5h-2v100h2V52.5z"/>
<path d="M286.5,52.5h-2v100h2V52.5z"/>
<path d="M294.5,52.5h-4v100h4V52.5z"/>
<path d="M304.5,52.5h-6v100h6V52.5z"/>
<path d="M308.5,52.5h-2v100h2V52.5z"/>
<path d="M318.5,52.5h-2v100h2V52.5z"/>
<path d="M324.5,52.5h-4v100h4V52.5z"/>
<path d="M330.5,52.5h-2v100h2V52.5z"/>
<path d="M344.5,52.5h-8v100h8V52.5z"/>
<path d="M348.5,52.5h-2v100h2V52.5z"/>
<path d="M358.5,52.5h-8v100h8V52.5z"/>
<path d="M366.5,52.5h-6v100h6V52.5z"/>
<path d="M370.5,52.5h-2v100h2V52.5z"/>
<path d="M374.5,52.5h-2v100h2V52.5z"/>
<path d="M380.5,52.5h-2v100h2V52.5z"/>
<path d="M390.5,52.5h-4v100h4V52.5z"/>
<path d="M398.5,52.5h-4v100h4V52.5z"/>
<path d="M410.5,52.5h-6v100h6V52.5z"/>
<path d="M414.5,52.5h-2v100h2V52.5z"/>
<path d="M420.5,52.5h-4v100h4V52.5z"/>
<path d="M21.2,184.6h3.6c0.7,0,1.2,0.2,1.6,0.5c0.4,0.4,0.6,0.9,0.6,1.6c0,0.4-0.1,0.7-0.3,1c-0.2,0.3-0.4,0.5-0.7,0.7
	c0.8,0.2,1.3,0.9,1.3,1.8c0,0.5-0.1,0.9-0.3,1.2c-0.2,0.3-0.5,0.6-0.8,0.8c-0.3,0.2-0.7,0.3-1.2,0.3h-3.8V184.6z M24.7,188
	c0.4,0,0.7-0.1,0.9-0.3c0.2-0.2,0.3-0.5,0.3-0.9c0-0.5-0.1-0.8-0.3-1c-0.2-0.2-0.5-0.3-1-0.3h-2.3v2.5H24.7z M24.8,191.6
	c0.4,0,0.8-0.1,1-0.3c0.2-0.2,0.4-0.5,0.4-1s-0.1-0.8-0.4-1c-0.2-0.2-0.6-0.3-1.1-0.3h-2.3v2.6H24.8z M32.2,192.7
	c-0.8,0-1.5-0.2-2.1-0.5c-0.6-0.3-1.1-0.8-1.5-1.5c-0.4-0.6-0.5-1.3-0.5-2.2s0.2-1.5,0.5-2.2c0.4-0.6,0.9-1.1,1.5-1.5
	c0.6-0.3,1.3-0.5,2.1-0.5s1.5,0.2,2.1,0.5c0.6,0.3,1.1,0.8,1.5,1.5c0.4,0.6,0.5,1.3,0.5,2.2s-0.2,1.5-0.5,2.2
	c-0.4,0.6-0.9,1.1-1.5,1.5C33.7,192.5,33,192.7,32.2,192.7z M32.2,191.6c0.6,0,1.1-0.1,1.5-0.4c0.5-0.3,0.8-0.6,1.1-1.1
	c0.3-0.5,0.4-1,0.4-1.6c0-0.6-0.1-1.1-0.4-1.6c-0.3-0.5-0.6-0.8-1.1-1.1c-0.5-0.3-1-0.4-1.5-0.4c-0.6,0-1.1,0.1-1.5,0.4
	c-0.5,0.2-0.8,0.6-1.1,1.1c-0.3,0.5-0.4,1-0.4,1.6c0,0.6,0.1,1.2,0.4,1.6c0.3,0.5,0.6,0.8,1.1,1.1C31.2,191.5,31.7,191.6,32.2,191.6
	z M37.7,184.6h3.6c0.7,0,1.2,0.2,1.6,0.5c0.4,0.4,0.6,0.9,0.6,1.6c0,0.4-0.1,0.7-0.3,1c-0.2,0.3-0.4,0.5-0.7,0.7
	c0.8,0.2,1.3,0.9,1.3,1.8c0,0.5-0.1,0.9-0.3,1.2c-0.2,0.3-0.5,0.6-0.8,0.8s-0.7,0.3-1.2,0.3h-3.8V184.6z M41.2,188
	c0.4,0,0.7-0.1,0.9-0.3c0.2-0.2,0.3-0.5,0.3-0.9c0-0.5-0.1-0.8-0.3-1c-0.2-0.2-0.5-0.3-1-0.3h-2.3v2.5H41.2z M41.2,191.6
	c0.4,0,0.8-0.1,1-0.3c0.2-0.2,0.4-0.5,0.4-1s-0.1-0.8-0.4-1c-0.2-0.2-0.6-0.3-1.1-0.3h-2.3v2.6H41.2z M45,184.6h3.6
	c0.7,0,1.2,0.2,1.6,0.5c0.4,0.4,0.6,0.9,0.6,1.6c0,0.4-0.1,0.7-0.3,1c-0.2,0.3-0.4,0.5-0.7,0.7c0.8,0.2,1.3,0.9,1.3,1.8
	c0,0.5-0.1,0.9-0.3,1.2c-0.2,0.3-0.5,0.6-0.8,0.8s-0.7,0.3-1.2,0.3H45V184.6z M48.5,188c0.4,0,0.7-0.1,0.9-0.3
	c0.2-0.2,0.3-0.5,0.3-0.9c0-0.5-0.1-0.8-0.3-1c-0.2-0.2-0.5-0.3-1-0.3h-2.3v2.5H48.5z M48.6,191.6c0.4,0,0.8-0.1,1-0.3
	c0.2-0.2,0.4-0.5,0.4-1s-0.1-0.8-0.4-1c-0.2-0.2-0.6-0.3-1.1-0.3h-2.3v2.6H48.6z M54.2,189.5l-2.9-4.9h1.2l2.2,3.8l2.2-3.8h1.2
	l-2.9,4.9v3h-1.1V189.5z M63.7,184.6h1.2v3.4h4.1v-3.4h1.2v7.9h-1.2V189h-4.1v3.5h-1.2V184.6z M74.5,184.6h1.1l3.2,7.9h-1.2l-0.8-2
	h-3.5l-0.8,2h-1.2L74.5,184.6z M76.5,189.6l-1.4-3.7l-1.4,3.7H76.5z M80,184.6h3.2c0.8,0,1.5,0.2,1.9,0.6c0.5,0.4,0.7,1,0.7,1.8
	c0,0.6-0.2,1.1-0.5,1.5c-0.3,0.4-0.7,0.7-1.3,0.8l1.7,3.2h-1.2l-1.7-3.1h-1.7v3.1H80V184.6z M83,188.4c0.5,0,0.9-0.1,1.2-0.4
	c0.3-0.2,0.5-0.6,0.5-1.1c0-0.5-0.1-0.9-0.4-1.1c-0.3-0.2-0.7-0.3-1.2-0.3h-1.8v2.8H83z M88.7,185.6h-2.5v-1h6.1v1h-2.5v6.9h-1.2
	V185.6z M94.9,184.6H96l3.2,7.9h-1.2l-0.8-2h-3.5l-0.8,2h-1.2L94.9,184.6z M96.8,189.6l-1.4-3.7l-1.4,3.7H96.8z M100.4,184.6h1.1
	l4,6v-6h1.2v7.9h-1.1l-4-6v6h-1.2V184.6z M110.1,185.6h-2.5v-1h6.1v1h-2.5v6.9h-1.2V185.6z M118.1,192.7c-0.8,0-1.5-0.2-2.1-0.5
	c-0.6-0.3-1.1-0.8-1.5-1.5c-0.4-0.6-0.5-1.3-0.5-2.2s0.2-1.5,0.5-2.2c0.4-0.6,0.9-1.1,1.5-1.5c0.6-0.3,1.3-0.5,2.1-0.5
	c0.8,0,1.5,0.2,2.1,0.5c0.6,0.3,1.1,0.8,1.5,1.5c0.4,0.6,0.5,1.3,0.5,2.2s-0.2,1.5-0.5,2.2c-0.4,0.6-0.9,1.1-1.5,1.5
	C119.6,192.5,118.9,192.7,118.1,192.7z M118.1,191.6c0.6,0,1.1-0.1,1.5-0.4c0.5-0.3,0.8-0.6,1.1-1.1c0.3-0.5,0.4-1,0.4-1.6
	c0-0.6-0.1-1.1-0.4-1.6c-0.3-0.5-0.6-0.8-1.1-1.1c-0.5-0.3-1-0.4-1.5-0.4c-0.6,0-1.1,0.1-1.5,0.4c-0.5,0.2-0.8,0.6-1.1,1.1
	c-0.3,0.5-0.4,1-0.4,1.6c0,0.6,0.1,1.2,0.4,1.6c0.3,0.5,0.6,0.8,1.1,1.1C117,191.5,117.6,191.6,118.1,191.6z"/>
<path d="M315.5,192.7c-1.1,0-1.9-0.3-2.4-0.8c-0.6-0.6-0.8-1.3-0.8-2.3v-5h1.2v5c0,0.7,0.2,1.2,0.6,1.5c0.4,0.3,0.9,0.5,1.6,0.5
	c0.6,0,1.2-0.2,1.5-0.5c0.4-0.3,0.6-0.9,0.6-1.5v-5h1.2v5c0,1-0.3,1.7-0.8,2.3C317.3,192.4,316.5,192.7,315.5,192.7z M320.1,184.6
	h1.2v7.9h-1.2V184.6z M325.8,184.4h1.2l-3.2,8.1h-1.2L325.8,184.4z M331.4,192.7c-1.1,0-1.9-0.3-2.4-0.8c-0.6-0.6-0.8-1.3-0.8-2.3
	v-5h1.2v5c0,0.7,0.2,1.2,0.6,1.5c0.4,0.3,0.9,0.5,1.6,0.5c0.6,0,1.2-0.2,1.5-0.5c0.4-0.3,0.6-0.9,0.6-1.5v-5h1.2v5
	c0,1-0.3,1.7-0.8,2.3C333.3,192.4,332.5,192.7,331.4,192.7z M338.5,188.5l-2.9-3.9h1.3l2.2,3l2.2-3h1.3l-2.9,3.9l3,4h-1.3l-2.3-3.1
	l-2.3,3.1h-1.3L338.5,188.5z"/>
<path d="M368.2,184.6h2.5c0.9,0,1.6,0.2,2.2,0.5c0.6,0.3,1.1,0.8,1.4,1.4c0.3,0.6,0.5,1.3,0.5,2.1c0,1.3-0.4,2.3-1.1,3
	c-0.8,0.7-1.8,1-3.2,1h-2.4V184.6z M370.6,191.5c1.1,0,1.9-0.3,2.4-0.8c0.5-0.5,0.8-1.3,0.8-2.3c0-0.9-0.3-1.6-0.8-2.2
	c-0.5-0.5-1.2-0.8-2.2-0.8h-1.4v6H370.6z M376.2,184.6h5.2v1h-4.1v2.5h3v1h-3v2.5h4.1v1h-5.2V184.6z M384.8,192.7
	c-0.5,0-0.9,0-1.3-0.1c-0.4-0.1-0.8-0.2-1.1-0.3v-1c0.7,0.3,1.5,0.5,2.3,0.5c1.2,0,1.8-0.4,1.8-1.2c0-0.3-0.1-0.5-0.2-0.7
	c-0.1-0.2-0.3-0.3-0.6-0.4c-0.2-0.1-0.6-0.3-1.2-0.5c-0.7-0.3-1.3-0.6-1.6-1c-0.3-0.4-0.5-0.8-0.5-1.4c0-0.4,0.1-0.8,0.3-1.1
	c0.2-0.3,0.5-0.6,1-0.7c0.4-0.2,0.9-0.3,1.4-0.3c0.4,0,0.8,0,1.2,0.1c0.3,0.1,0.7,0.2,1,0.3v1c-0.7-0.3-1.3-0.4-2-0.4
	c-0.5,0-1,0.1-1.2,0.3c-0.3,0.2-0.4,0.5-0.4,0.8c0,0.2,0.1,0.5,0.2,0.6c0.1,0.2,0.3,0.3,0.6,0.5c0.2,0.1,0.6,0.3,1.1,0.5
	c0.5,0.2,1,0.4,1.3,0.6c0.3,0.2,0.5,0.4,0.7,0.7c0.2,0.3,0.2,0.6,0.2,1.1c0,0.7-0.2,1.2-0.7,1.6
	C386.5,192.5,385.8,192.7,384.8,192.7z M389,184.6h1.2v7.9H389V184.6z M395.6,192.7c-0.8,0-1.5-0.2-2.2-0.5
	c-0.6-0.3-1.1-0.8-1.5-1.4c-0.4-0.6-0.5-1.4-0.5-2.2c0-0.8,0.2-1.5,0.5-2.2c0.4-0.6,0.9-1.1,1.5-1.4c0.6-0.3,1.4-0.5,2.2-0.5
	c1.1,0,2,0.3,2.7,0.8v1.1c-0.7-0.6-1.5-0.9-2.6-0.9c-0.6,0-1.1,0.1-1.6,0.4c-0.5,0.2-0.9,0.6-1.1,1.1c-0.3,0.5-0.4,1-0.4,1.6
	c0,0.6,0.1,1.2,0.4,1.6c0.3,0.5,0.6,0.8,1.1,1.1c0.5,0.2,1,0.4,1.6,0.4c0.7,0,1.2-0.1,1.7-0.4v-2.1h-1.5v-0.9h2.7v3.6
	c-0.4,0.3-0.8,0.5-1.3,0.6C396.7,192.6,396.2,192.7,395.6,192.7z M399.7,184.6h1.1l4,6v-6h1.2v7.9h-1.1l-4-6v6h-1.2V184.6z
	 M407.5,184.6h5.2v1h-4.1v2.5h3v1h-3v2.5h4.1v1h-5.2V184.6z M413.9,184.6h3.2c0.8,0,1.5,0.2,1.9,0.6c0.5,0.4,0.7,1,0.7,1.8
	c0,0.6-0.2,1.1-0.5,1.5c-0.3,0.4-0.7,0.7-1.3,0.8l1.7,3.2h-1.2l-1.7-3.1h-1.7v3.1h-1.2V184.6z M416.9,188.4c0.5,0,0.9-0.1,1.2-0.4
	c0.3-0.2,0.5-0.6,0.5-1.1c0-0.5-0.1-0.9-0.4-1.1c-0.3-0.2-0.7-0.3-1.2-0.3h-1.8v2.8H416.9z"/>
<rect x="8.5" y="6.5" width="82" height="21"/>
<path class="st0" d="M35.2,12.6h2.5c0.9,0,1.6,0.2,2.2,0.5c0.6,0.3,1.1,0.8,1.4,1.4c0.3,0.6,0.5,1.3,0.5,2.1c0,1.3-0.4,2.3-1.1,3
	c-0.8,0.7-1.8,1-3.2,1h-2.4V12.6z M37.6,19.5c1.1,0,1.9-0.3,2.4-0.8c0.5-0.5,0.8-1.3,0.8-2.3c0-0.9-0.3-1.6-0.8-2.2
	c-0.5-0.5-1.2-0.8-2.2-0.8h-1.4v6H37.6z M44.9,20.7c-0.5,0-0.9,0-1.3-0.1c-0.4-0.1-0.8-0.2-1.1-0.3v-1c0.7,0.3,1.5,0.5,2.3,0.5
	c1.2,0,1.8-0.4,1.8-1.2c0-0.3-0.1-0.5-0.2-0.7c-0.1-0.2-0.3-0.3-0.6-0.4c-0.2-0.1-0.6-0.3-1.2-0.5c-0.7-0.3-1.3-0.6-1.6-1
	c-0.3-0.4-0.5-0.8-0.5-1.4c0-0.4,0.1-0.8,0.3-1.1c0.2-0.3,0.5-0.6,1-0.7c0.4-0.2,0.9-0.3,1.4-0.3c0.4,0,0.8,0,1.2,0.1
	c0.3,0.1,0.7,0.2,1,0.3v1c-0.7-0.3-1.3-0.4-2-0.4c-0.5,0-1,0.1-1.2,0.3c-0.3,0.2-0.4,0.5-0.4,0.8c0,0.2,0.1,0.5,0.2,0.6
	c0.1,0.2,0.3,0.3,0.6,0.5c0.2,0.1,0.6,0.3,1.1,0.5c0.5,0.2,1,0.4,1.3,0.6c0.3,0.2,0.5,0.4,0.7,0.7c0.2,0.3,0.2,0.6,0.2,1.1
	c0,0.7-0.2,1.2-0.7,1.6C46.6,20.5,45.8,20.7,44.9,20.7z M52.7,20.7c-0.8,0-1.5-0.2-2.2-0.5c-0.6-0.3-1.1-0.8-1.5-1.4
	c-0.4-0.6-0.5-1.4-0.5-2.2c0-0.8,0.2-1.5,0.5-2.2c0.4-0.6,0.8-1.1,1.5-1.4c0.6-0.3,1.4-0.5,2.2-0.5c1.1,0,2,0.3,2.7,0.8v1.1
	c-0.7-0.6-1.5-0.9-2.6-0.9c-0.6,0-1.1,0.1-1.6,0.4c-0.5,0.2-0.8,0.6-1.1,1.1c-0.3,0.5-0.4,1-0.4,1.6c0,0.6,0.1,1.2,0.4,1.6
	c0.3,0.5,0.6,0.8,1.1,1.1c0.5,0.2,1,0.4,1.6,0.4c0.7,0,1.2-0.1,1.7-0.4v-2.1H53v-0.9h2.7v3.6c-0.4,0.3-0.8,0.5-1.3,0.6
	C53.9,20.6,53.3,20.7,52.7,20.7z M56.9,12.6H58l4,6v-6h1.2v7.9h-1.1l-4-6v6h-1.2V12.6z"/>
<path d="M109.2,12.6h1.2v7.9h-1.2V12.6z M111.9,12.6h2.5c0.9,0,1.6,0.2,2.2,0.5c0.6,0.3,1.1,0.8,1.4,1.4c0.3,0.6,0.5,1.3,0.5,2.1
	c0,1.3-0.4,2.3-1.1,3c-0.8,0.7-1.8,1-3.2,1h-2.4V12.6z M114.3,19.5c1.1,0,1.9-0.3,2.4-0.8c0.5-0.5,0.8-1.3,0.8-2.3
	c0-0.9-0.3-1.6-0.8-2.2c-0.5-0.5-1.2-0.8-2.2-0.8H113v6H114.3z M119.8,12.6h1.1l4,6v-6h1.2v7.9H125l-4-6v6h-1.2V12.6z M130.6,12.4
	h1.2l-3.2,8.1h-1.2L130.6,12.4z M132.8,19.7l1.7-1.6c0.2-0.2,0.4-0.3,0.6-0.6c0.4-0.4,0.8-0.7,1-1c0.2-0.2,0.4-0.5,0.6-0.8
	c0.1-0.3,0.2-0.6,0.2-0.9c0-0.5-0.1-0.8-0.4-1.1c-0.3-0.2-0.7-0.4-1.2-0.4c-0.4,0-0.7,0.1-1.1,0.2c-0.4,0.1-0.7,0.3-1,0.6v-1.1
	c0.6-0.5,1.4-0.7,2.3-0.7c0.8,0,1.5,0.2,1.9,0.7c0.5,0.4,0.7,1,0.7,1.8c0,0.4-0.1,0.7-0.2,1c-0.2,0.3-0.4,0.7-0.6,1
	c-0.3,0.3-0.7,0.7-1.1,1.2l-1.5,1.5h3.9v1h-5.6V19.7z M142.7,20.7c-0.7,0-1.3-0.2-1.8-0.5c-0.5-0.3-0.9-0.8-1.1-1.4
	c-0.3-0.6-0.4-1.4-0.4-2.2c0-0.8,0.1-1.6,0.4-2.2c0.3-0.6,0.6-1.1,1.1-1.4c0.5-0.3,1.1-0.5,1.8-0.5c0.7,0,1.3,0.2,1.8,0.5
	c0.5,0.3,0.9,0.8,1.1,1.4c0.3,0.6,0.4,1.4,0.4,2.2c0,0.8-0.1,1.6-0.4,2.2c-0.3,0.6-0.6,1.1-1.1,1.4
	C143.9,20.5,143.3,20.7,142.7,20.7z M142.7,19.7c0.7,0,1.2-0.3,1.6-0.8c0.4-0.6,0.6-1.3,0.6-2.3c0-1-0.2-1.7-0.6-2.3
	c-0.4-0.6-0.9-0.8-1.6-0.8c-0.7,0-1.2,0.3-1.6,0.8c-0.4,0.6-0.6,1.3-0.6,2.3c0,1,0.2,1.7,0.6,2.3C141.5,19.4,142,19.7,142.7,19.7z
	 M147,19.7l1.7-1.6c0.2-0.2,0.4-0.3,0.6-0.6c0.4-0.4,0.8-0.7,1-1c0.2-0.2,0.4-0.5,0.6-0.8c0.1-0.3,0.2-0.6,0.2-0.9
	c0-0.5-0.1-0.8-0.4-1.1c-0.3-0.2-0.7-0.4-1.2-0.4c-0.4,0-0.7,0.1-1.1,0.2c-0.4,0.1-0.7,0.3-1,0.6v-1.1c0.6-0.5,1.4-0.7,2.3-0.7
	c0.8,0,1.5,0.2,1.9,0.7c0.5,0.4,0.7,1,0.7,1.8c0,0.4-0.1,0.7-0.2,1c-0.2,0.3-0.4,0.7-0.6,1c-0.3,0.3-0.7,0.7-1.1,1.2l-1.5,1.5h3.9v1
	H147V19.7z M156.5,20.7c-0.6,0-1.1-0.1-1.5-0.4c-0.4-0.3-0.8-0.6-1.1-1.2c-0.3-0.5-0.4-1.1-0.4-1.8c0-1.6,0.3-2.8,1-3.6
	c0.6-0.8,1.6-1.3,2.8-1.3c0.4,0,0.8,0,1.1,0.1v1c-0.3-0.1-0.6-0.2-1-0.2c-1.6,0-2.5,1-2.7,2.9c0.2-0.3,0.5-0.5,0.9-0.6
	c0.4-0.2,0.8-0.2,1.2-0.2c0.5,0,1,0.1,1.3,0.3c0.4,0.2,0.7,0.5,0.9,0.9c0.2,0.4,0.3,0.8,0.3,1.4c0,0.5-0.1,1-0.4,1.4
	c-0.2,0.4-0.6,0.7-1,1C157.7,20.6,157.1,20.7,156.5,20.7z M156.5,19.8c0.5,0,1-0.2,1.3-0.5c0.3-0.3,0.5-0.8,0.5-1.3
	c0-0.5-0.2-0.9-0.5-1.3c-0.3-0.3-0.7-0.5-1.3-0.5c-0.3,0-0.6,0.1-0.9,0.2c-0.3,0.1-0.5,0.3-0.6,0.6c-0.2,0.3-0.2,0.6-0.2,0.9
	c0,0.3,0.1,0.6,0.2,0.9c0.2,0.3,0.4,0.5,0.6,0.6C155.9,19.7,156.2,19.8,156.5,19.8z"/>
<path class="st1" d="M18.5,171.5h401"/>
<path class="st1" d="M0.5,33.5h437"/>
<path class="st1" d="M0.5,0.5h437"/>
<path class="st1" d="M0.5,207.5h437"/>
<path class="st1" d="M96.5,0.5v33"/>
<path class="st1" d="M0.5,0.5l0,207"/>
<path class="st1" d="M437.5,0.5v207"/>
<circle cx="356" cy="188" r="4.5"/>
<path class="st1" d="M373,7c5.5,0,10,4.7,10,10.5S378.5,28,373,28s-10-4.7-10-10.5S367.5,7,373,7z"/>
<path class="st1" d="M382,7c5.5,0,10,4.7,10,10.5S387.5,28,382,28s-10-4.7-10-10.5S376.5,7,382,7z"/>
<circle class="st1" cx="391.5" cy="17.5" r="10.5"/>
<path class="st1" d="M401,7c5.5,0,10,4.7,10,10.5S406.5,28,401,28s-10-4.7-10-10.5S395.5,7,401,7z"/>
<path class="st1" d="M410,7c5.5,0,10,4.7,10,10.5S415.5,28,410,28s-10-4.7-10-10.5S404.5,7,410,7z"/>
<path d="M288,12.6h2v6.2h3.4v1.7H288V12.6z M297.7,20.7c-0.8,0-1.5-0.2-2.2-0.5c-0.6-0.3-1.2-0.8-1.5-1.5c-0.4-0.6-0.6-1.3-0.6-2.2
	c0-0.8,0.2-1.5,0.6-2.2c0.4-0.6,0.9-1.1,1.5-1.5c0.6-0.3,1.4-0.5,2.2-0.5c0.8,0,1.5,0.2,2.2,0.5c0.6,0.3,1.2,0.8,1.5,1.5
	c0.4,0.6,0.6,1.3,0.6,2.2c0,0.8-0.2,1.5-0.6,2.2c-0.4,0.6-0.9,1.1-1.5,1.5C299.2,20.5,298.5,20.7,297.7,20.7z M297.7,18.8
	c0.4,0,0.8-0.1,1.1-0.3c0.3-0.2,0.6-0.4,0.8-0.8c0.2-0.3,0.3-0.7,0.3-1.2c0-0.5-0.1-0.8-0.3-1.2c-0.2-0.3-0.4-0.6-0.8-0.8
	c-0.3-0.2-0.7-0.3-1.1-0.3c-0.4,0-0.8,0.1-1.1,0.3c-0.3,0.2-0.6,0.4-0.8,0.8c-0.2,0.3-0.3,0.7-0.3,1.2c0,0.5,0.1,0.8,0.3,1.2
	c0.2,0.3,0.5,0.6,0.8,0.8C296.9,18.7,297.3,18.8,297.7,18.8z M304.1,14.3h-2.2v-1.7h6.5v1.7h-2.2v6.2h-2V14.3z"/>
</svg>
