<svg width="619" height="188" viewBox="0 0 619 188" fill="none" xmlns="http://www.w3.org/2000/svg">
<path d="M80.5 1C124.407 1 160 36.5934 160 80.5C160 96.1245 155.48 110.708 147.691 123H107.712C111.025 120.623 115.166 117.355 117.312 115.071C125.813 106.023 131 93.8831 131 80.5C131 52.6096 108.39 30 80.5 30C52.6096 30 30 52.6096 30 80.5C30 108.39 52.6096 131 80.5 131H198.52C198.521 131.001 198.522 131.003 198.523 131.005C198.722 131.252 199.014 131.61 199.384 132.059C200.124 132.956 201.182 134.214 202.453 135.66C204.991 138.548 208.398 142.209 211.838 145.249C216.389 149.271 223.87 153.446 230.135 156.59C232.821 157.938 235.304 159.104 237.268 160H80.5C36.5934 160 1 124.407 1 80.5C1 36.5934 36.5934 1 80.5 1Z" stroke="black" stroke-width="2"/>
<path d="M268 1C311.907 1 347.5 36.5934 347.5 80.5C347.5 96.1245 342.98 110.708 335.191 123H295.212C298.525 120.623 302.666 117.355 304.812 115.071C313.313 106.023 318.5 93.8831 318.5 80.5C318.5 52.6096 295.89 30 268 30C240.11 30 217.5 52.6096 217.5 80.5C217.5 108.39 240.11 131 268 131H386.02C386.021 131.001 386.022 131.003 386.023 131.005C386.222 131.252 386.514 131.61 386.884 132.059C387.624 132.956 388.682 134.214 389.953 135.66C392.491 138.548 395.898 142.209 399.338 145.249C403.889 149.271 411.37 153.446 417.635 156.59C420.321 157.938 422.804 159.104 424.768 160H268C224.093 160 188.5 124.407 188.5 80.5C188.5 36.5934 224.093 1 268 1Z" stroke="black" stroke-width="2"/>
<path d="M457.5 1C501.407 1 537 36.5934 537 80.5C537 96.1245 532.48 110.708 524.691 123H484.712C488.025 120.623 492.166 117.355 494.312 115.071C502.813 106.023 508 93.8831 508 80.5C508 52.6096 485.39 30 457.5 30C429.61 30 407 52.6096 407 80.5C407 108.39 429.61 131 457.5 131H577V106.794L617.067 144.034L577 185.045V160H457.5C413.593 160 378 124.407 378 80.5C378 36.5934 413.593 1 457.5 1Z" stroke="black" stroke-width="2"/>
</svg>
