<?xml version="1.0" encoding="utf-8"?>
<!-- Generator: Adobe Illustrator 25.3.1, SVG Export Plug-In . SVG Version: 6.00 Build 0)  -->
<svg version="1.1" id="Layer_1" xmlns="http://www.w3.org/2000/svg" xmlns:xlink="http://www.w3.org/1999/xlink" x="0px" y="0px"
	 viewBox="0 0 714.9 19.4" style="enable-background:new 0 0 714.9 19.4;" xml:space="preserve">
<style type="text/css">
	.st0{fill:none;stroke:#010101;stroke-width:1.4;stroke-miterlimit:10;}
</style>
<path class="st0" d="M714.2,0v11.6l-5,5c-2.7,2.7-7.2,2.7-9.9,0l0,0c-2.7-2.7-7.2-2.7-9.9,0l0,0c-2.7,2.7-7.2,2.7-9.9,0l0,0
	c-2.7-2.7-7.2-2.7-9.9,0l0,0c-2.7,2.7-7.2,2.7-9.9,0l0,0c-2.7-2.7-7.2-2.7-9.9,0l0,0c-2.7,2.7-7.2,2.7-9.9,0l0,0
	c-2.7-2.7-7.2-2.7-9.9,0l0,0c-2.7,2.7-7.2,2.7-9.9,0l0,0c-2.7-2.7-7.2-2.7-9.9,0l0,0c-2.7,2.7-7.2,2.7-9.9,0l0,0
	c-2.7-2.7-7.2-2.7-9.9,0l0,0c-2.7,2.7-7.2,2.7-9.9,0l0,0c-2.7-2.7-7.2-2.7-9.9,0l0,0c-2.7,2.7-7.2,2.7-9.9,0l0,0
	c-2.7-2.7-7.2-2.7-9.9,0l0,0c-2.7,2.7-7.2,2.7-9.9,0l0,0c-2.7-2.7-7.2-2.7-9.9,0l0,0c-2.7,2.7-7.2,2.7-9.9,0l0,0
	c-2.7-2.7-7.2-2.7-9.9,0l0,0c-2.7,2.7-7.2,2.7-9.9,0l0,0c-2.7-2.7-7.2-2.7-9.9,0l0,0c-2.7,2.7-7.2,2.7-9.9,0l0,0
	c-2.7-2.7-7.2-2.7-9.9,0l0,0c-2.7,2.7-7.2,2.7-9.9,0l0,0c-2.7-2.7-7.2-2.7-9.9,0l0,0c-2.7,2.7-7.2,2.7-9.9,0l0,0
	c-2.7-2.7-7.2-2.7-9.9,0l0,0c-2.7,2.7-7.2,2.7-9.9,0l0,0c-2.7-2.7-7.2-2.7-9.9,0l0,0c-2.7,2.7-7.2,2.7-9.9,0l0,0
	c-2.7-2.7-7.2-2.7-9.9,0l0,0c-2.7,2.7-7.2,2.7-9.9,0l0,0c-2.7-2.7-7.2-2.7-9.9,0l0,0c-2.7,2.7-7.2,2.7-9.9,0l0,0
	c-2.7-2.7-7.2-2.7-9.9,0l0,0c-2.7,2.7-7.2,2.7-9.9,0l0,0c-2.7-2.7-7.2-2.7-9.9,0l0,0c-2.7,2.7-7.2,2.7-9.9,0l0,0
	c-2.7-2.7-7.2-2.7-9.9,0l0,0c-2.7,2.7-7.2,2.7-9.9,0l0,0c-2.7-2.7-7.2-2.7-9.9,0l0,0c-2.7,2.7-7.2,2.7-9.9,0l0,0
	c-2.7-2.7-7.2-2.7-9.9,0l0,0c-2.7,2.7-7.2,2.7-9.9,0l0,0c-2.7-2.7-7.2-2.7-9.9,0l0,0c-2.7,2.7-7.2,2.7-9.9,0l0,0
	c-2.7-2.7-7.2-2.7-9.9,0l0,0c-2.7,2.7-7.2,2.7-9.9,0l0,0c-2.7-2.7-7.2-2.7-9.9,0l0,0c-2.7,2.7-7.2,2.7-9.9,0l0,0
	c-2.7-2.7-7.2-2.7-9.9,0l0,0c-2.7,2.7-7.2,2.7-9.9,0l0,0c-2.7-2.7-7.2-2.7-9.9,0l0,0c-2.7,2.7-7.2,2.7-9.9,0l0,0
	c-2.7-2.7-7.2-2.7-9.9,0l0,0c-2.7,2.7-7.2,2.7-9.9,0l0,0c-2.7-2.7-7.2-2.7-9.9,0l0,0c-2.7,2.7-7.2,2.7-9.9,0l0,0
	c-2.7-2.7-7.2-2.7-9.9,0l0,0c-2.7,2.7-7.2,2.7-9.9,0l0,0c-2.7-2.7-7.2-2.7-9.9,0l0,0c-2.7,2.7-7.2,2.7-9.9,0l0,0
	c-2.7-2.7-7.2-2.7-9.9,0l0,0c-2.7,2.7-7.2,2.7-9.9,0l0,0c-2.7-2.7-7.2-2.7-9.9,0l0,0c-2.7,2.7-7.2,2.7-9.9,0l0,0
	c-2.7-2.7-7.2-2.7-9.9,0l0,0c-2.7,2.7-7.2,2.7-9.9,0l0,0c-2.7-2.7-7.2-2.7-9.9,0l0,0c-2.7,2.7-7.2,2.7-9.9,0l-5-5V0"/>
</svg>
