<svg width="51" height="33" viewBox="0 0 51 33" fill="none" xmlns="http://www.w3.org/2000/svg">
<path d="M27.2426 32.0082L23.2817 21.9584H26.4543L29.5481 31.3382H27.8928L30.9669 21.9584H34.0607L30.0998 32.0082H27.2426Z" fill="black"/>
<path d="M18.9944 32.2053C17.8777 32.2053 16.9056 31.9885 16.0779 31.555C15.2503 31.1083 14.6066 30.4909 14.1468 29.7027C13.7001 28.9145 13.4768 28.008 13.4768 26.9833C13.4768 25.9455 13.7001 25.039 14.1468 24.264C14.6066 23.4757 15.2437 22.8649 16.0582 22.4313C16.8727 21.9847 17.8186 21.7614 18.8958 21.7614C19.9337 21.7614 20.8335 21.9715 21.5955 22.3919C22.3574 22.8123 22.9486 23.3969 23.369 24.1457C23.7894 24.8945 23.9996 25.7747 23.9996 26.7863C23.9996 26.9965 23.993 27.1935 23.9799 27.3774C23.9667 27.5482 23.947 27.7124 23.9207 27.8701H15.2109V25.9192H21.5364L21.024 26.2739C21.024 25.4594 20.827 24.8617 20.4329 24.4807C20.0519 24.0866 19.5264 23.8896 18.8564 23.8896C18.0813 23.8896 17.477 24.1523 17.0435 24.6778C16.6231 25.2033 16.4129 25.9915 16.4129 27.0424C16.4129 28.0671 16.6231 28.8291 17.0435 29.3283C17.477 29.8275 18.1207 30.0771 18.9746 30.0771C19.4476 30.0771 19.8548 29.9983 20.1964 29.8406C20.538 29.683 20.7941 29.4268 20.9649 29.0721H23.7434C23.415 30.0442 22.8501 30.8128 22.0487 31.3777C21.2605 31.9294 20.2424 32.2053 18.9944 32.2053Z" fill="black"/>
<path d="M1.85232 32.0082V29.6435H5.43873C6.46341 29.6435 7.33046 29.4399 8.03986 29.0326C8.76239 28.6123 9.30758 28.0408 9.67542 27.3183C10.0564 26.5957 10.2469 25.7681 10.2469 24.8354C10.2469 23.9158 10.063 23.1078 9.69512 22.4116C9.32728 21.7153 8.7821 21.1701 8.05956 20.776C7.35016 20.3819 6.47655 20.1849 5.43873 20.1849H1.91144V17.8202H5.43873C7.02831 17.8202 8.41426 18.1092 9.59659 18.6872C10.7789 19.2521 11.6919 20.0666 12.3357 21.1307C12.9925 22.1817 13.3209 23.4297 13.3209 24.8748C13.3209 26.3198 12.9925 27.581 12.3357 28.6582C11.6788 29.7223 10.7592 30.55 9.57689 31.1411C8.40769 31.7192 7.03487 32.0082 5.45843 32.0082H1.85232ZM0 32.0082V17.8202H3.03465V32.0082H0Z" fill="black"/>
<path d="M40.0347 17.4261V7.37625H42.9314V9.74092H42.9905V17.4261H40.0347ZM47.0301 17.4261V11.1991C47.0301 10.6474 46.8856 10.2336 46.5966 9.95768C46.3207 9.6818 45.9135 9.54386 45.3749 9.54386C44.9151 9.54386 44.5013 9.64896 44.1334 9.85915C43.7787 10.0693 43.4963 10.3584 43.2861 10.7262C43.089 11.094 42.9905 11.5276 42.9905 12.0268L42.7343 9.60298C43.0628 8.86731 43.5423 8.28271 44.1728 7.84919C44.8165 7.40253 45.6048 7.1792 46.5375 7.1792C47.6541 7.1792 48.508 7.49449 49.0992 8.12506C49.6904 8.74251 49.986 9.57671 49.986 10.6277V17.4261H47.0301Z" fill="black"/>
<path d="M33.6993 17.6231C32.5958 17.6231 31.6236 17.4064 30.7829 16.9728C29.9552 16.5262 29.305 15.9087 28.832 15.1205C28.3722 14.3192 28.1423 13.3996 28.1423 12.3618C28.1423 11.3239 28.3722 10.4175 28.832 9.64239C29.305 8.86731 29.9552 8.263 30.7829 7.82948C31.6236 7.39596 32.5958 7.1792 33.6993 7.1792C34.8159 7.1792 35.7881 7.39596 36.6157 7.82948C37.4565 8.263 38.1068 8.86731 38.5666 9.64239C39.0264 10.4175 39.2563 11.3239 39.2563 12.3618C39.2563 13.3996 39.0198 14.3192 38.5469 15.1205C38.0871 15.9087 37.4368 16.5262 36.596 16.9728C35.7684 17.4064 34.8028 17.6231 33.6993 17.6231ZM33.6993 15.2979C34.1591 15.2979 34.5729 15.1796 34.9407 14.9432C35.3217 14.7067 35.6239 14.3717 35.8472 13.9382C36.0705 13.4915 36.1822 12.9595 36.1822 12.342C36.1822 11.4356 35.9392 10.7393 35.4531 10.2533C34.9802 9.75406 34.3956 9.50445 33.6993 9.50445C33.003 9.50445 32.4119 9.75406 31.9258 10.2533C31.4529 10.7525 31.2164 11.4487 31.2164 12.342C31.2164 12.9595 31.3281 13.4915 31.5514 13.9382C31.7747 14.3717 32.0703 14.7067 32.4381 14.9432C32.8191 15.1796 33.2395 15.2979 33.6993 15.2979Z" fill="black"/>
<path d="M26.5394 17.6429C25.252 17.6429 24.293 17.3342 23.6624 16.7167C23.045 16.0862 22.7363 15.1337 22.7363 13.8594V5.12988L25.6921 4.02637V13.958C25.6921 14.4046 25.8169 14.7396 26.0665 14.9629C26.3161 15.1863 26.7037 15.2979 27.2291 15.2979C27.4262 15.2979 27.6101 15.2782 27.7809 15.2388C27.9517 15.1994 28.1225 15.1534 28.2932 15.1009V17.3473C28.1225 17.4393 27.8794 17.5115 27.5641 17.5641C27.262 17.6166 26.9204 17.6429 26.5394 17.6429ZM20.8643 9.62274V7.37631H28.2932V9.62274H20.8643Z" fill="black"/>
<path d="M18.3197 17.4261C18.2409 17.1371 18.1818 16.8283 18.1424 16.4999C18.1161 16.1715 18.103 15.7905 18.103 15.357H18.0241V10.608C18.0241 10.2007 17.8862 9.88543 17.6103 9.6621C17.3476 9.42563 16.9535 9.3074 16.428 9.3074C15.9288 9.3074 15.5281 9.39279 15.2259 9.56357C14.9369 9.73435 14.7464 9.98395 14.6545 10.3124H11.8366C11.968 9.40592 12.4343 8.65711 13.2357 8.06595C14.037 7.47478 15.134 7.1792 16.5265 7.1792C17.9716 7.1792 19.0751 7.50106 19.837 8.14477C20.599 8.78848 20.98 9.71464 20.98 10.9233V15.357C20.98 15.6854 20.9997 16.0204 21.0391 16.362C21.0916 16.6904 21.1704 17.0451 21.2755 17.4261H18.3197ZM14.8121 17.6231C13.8137 17.6231 13.0189 17.3735 12.4278 16.8743C11.8366 16.362 11.541 15.6854 11.541 14.8446C11.541 13.9119 11.8891 13.1631 12.5854 12.5982C13.2948 12.0202 14.2801 11.6458 15.5412 11.475L18.4774 11.0612V12.7756L16.0339 13.15C15.5084 13.2288 15.1209 13.3733 14.8712 13.5835C14.6216 13.7937 14.4968 14.0827 14.4968 14.4505C14.4968 14.779 14.6151 15.0286 14.8515 15.1994C15.088 15.3701 15.4033 15.4555 15.7974 15.4555C16.4148 15.4555 16.9403 15.2913 17.3739 14.9629C17.8074 14.6213 18.0241 14.2272 18.0241 13.7806L18.3 15.357C18.011 16.1058 17.5709 16.6707 16.9797 17.0517C16.3886 17.4326 15.666 17.6231 14.8121 17.6231Z" fill="black"/>
<path d="M0 17.4261V3.23816H6.73929C7.79025 3.23816 8.69014 3.42208 9.43895 3.78991C10.2009 4.15775 10.7855 4.67009 11.1927 5.32695C11.6131 5.9838 11.8233 6.75231 11.8233 7.63249C11.8233 8.51267 11.6131 9.28776 11.1927 9.95774C10.7724 10.6277 10.1812 11.1532 9.41924 11.5342C8.67043 11.902 7.77712 12.0859 6.73929 12.0859H2.40407V9.76069H6.58165C7.27791 9.76069 7.81653 9.5702 8.1975 9.18923C8.59161 8.79512 8.78867 8.28277 8.78867 7.6522C8.78867 7.02162 8.59161 6.51585 8.1975 6.13487C7.81653 5.7539 7.27791 5.56341 6.58165 5.56341H3.03465V17.4261H0Z" fill="black"/>
</svg>
