<svg width="51" height="33" viewBox="0 0 51 33" fill="none" xmlns="http://www.w3.org/2000/svg">
<path d="M27.2421 32.0083L23.2812 21.9585H26.4538L29.5476 31.3383H27.8923L30.9664 21.9585H34.0602L30.0994 32.0083H27.2421Z" fill="black"/>
<path d="M18.9941 32.2054C17.8775 32.2054 16.9053 31.9886 16.0777 31.5551C15.2501 31.1085 14.6063 30.491 14.1466 29.7028C13.6999 28.9146 13.4766 28.0081 13.4766 26.9834C13.4766 25.9456 13.6999 25.0392 14.1466 24.2641C14.6063 23.4759 15.2435 22.865 16.058 22.4315C16.8725 21.9848 17.8183 21.7615 18.8956 21.7615C19.9334 21.7615 20.8333 21.9717 21.5952 22.3921C22.3572 22.8124 22.9484 23.397 23.3687 24.1458C23.7891 24.8947 23.9993 25.7748 23.9993 26.7864C23.9993 26.9966 23.9927 27.1936 23.9796 27.3776C23.9665 27.5483 23.9468 27.7125 23.9205 27.8702H15.2106V25.9193H21.5361L21.0238 26.274C21.0238 25.4595 20.8267 24.8618 20.4326 24.4808C20.0516 24.0867 19.5262 23.8897 18.8562 23.8897C18.0811 23.8897 17.4768 24.1524 17.0433 24.6779C16.6229 25.2034 16.4127 25.9916 16.4127 27.0426C16.4127 28.0672 16.6229 28.8292 17.0433 29.3284C17.4768 29.8276 18.1205 30.0772 18.9744 30.0772C19.4473 30.0772 19.8546 29.9984 20.1961 29.8407C20.5377 29.6831 20.7939 29.4269 20.9647 29.0722H23.7431C23.4147 30.0444 22.8498 30.8129 22.0485 31.3778C21.2602 31.9295 20.2421 32.2054 18.9941 32.2054Z" fill="black"/>
<path d="M1.85232 32.0083V29.6436H5.43873C6.46341 29.6436 7.33046 29.44 8.03986 29.0328C8.76239 28.6124 9.30758 28.0409 9.67542 27.3184C10.0564 26.5958 10.2469 25.7682 10.2469 24.8355C10.2469 23.9159 10.063 23.108 9.69512 22.4117C9.32728 21.7154 8.7821 21.1703 8.05956 20.7761C7.35016 20.382 6.47655 20.185 5.43873 20.185H1.91144V17.8203H5.43873C7.02831 17.8203 8.41426 18.1093 9.59659 18.6874C10.7789 19.2522 11.6919 20.0667 12.3357 21.1308C12.9925 22.1818 13.3209 23.4298 13.3209 24.8749C13.3209 26.32 12.9925 27.5811 12.3357 28.6584C11.6788 29.7225 10.7592 30.5501 9.57689 31.1413C8.40769 31.7193 7.03487 32.0083 5.45843 32.0083H1.85232ZM0 32.0083V17.8203H3.03465V32.0083H0Z" fill="black"/>
<path d="M40.0352 17.4261V7.37625H42.9319V9.74092H42.991V17.4261H40.0352ZM47.0306 17.4261V11.1991C47.0306 10.6474 46.8861 10.2336 46.5971 9.95768C46.3212 9.6818 45.914 9.54386 45.3754 9.54386C44.9156 9.54386 44.5017 9.64896 44.1339 9.85915C43.7792 10.0693 43.4968 10.3584 43.2866 10.7262C43.0895 11.094 42.991 11.5276 42.991 12.0268L42.7348 9.60298C43.0632 8.86731 43.5427 8.28271 44.1733 7.84919C44.817 7.40253 45.6053 7.1792 46.538 7.1792C47.6546 7.1792 48.5085 7.49449 49.0997 8.12506C49.6909 8.74251 49.9864 9.57671 49.9864 10.6277V17.4261H47.0306Z" fill="black"/>
<path d="M33.6995 17.6231C32.596 17.6231 31.6239 17.4064 30.7831 16.9728C29.9555 16.5262 29.3052 15.9087 28.8323 15.1205C28.3725 14.3192 28.1426 13.3996 28.1426 12.3618C28.1426 11.3239 28.3725 10.4175 28.8323 9.64239C29.3052 8.86731 29.9555 8.263 30.7831 7.82948C31.6239 7.39596 32.596 7.1792 33.6995 7.1792C34.8162 7.1792 35.7883 7.39596 36.616 7.82948C37.4567 8.263 38.107 8.86731 38.5668 9.64239C39.0266 10.4175 39.2565 11.3239 39.2565 12.3618C39.2565 13.3996 39.02 14.3192 38.5471 15.1205C38.0873 15.9087 37.437 16.5262 36.5963 16.9728C35.7686 17.4064 34.803 17.6231 33.6995 17.6231ZM33.6995 15.2979C34.1593 15.2979 34.5731 15.1796 34.941 14.9432C35.322 14.7067 35.6241 14.3717 35.8474 13.9382C36.0708 13.4915 36.1824 12.9595 36.1824 12.342C36.1824 11.4356 35.9394 10.7393 35.4533 10.2533C34.9804 9.75406 34.3958 9.50445 33.6995 9.50445C33.0033 9.50445 32.4121 9.75406 31.926 10.2533C31.4531 10.7525 31.2166 11.4487 31.2166 12.342C31.2166 12.9595 31.3283 13.4915 31.5516 13.9382C31.775 14.3717 32.0705 14.7067 32.4384 14.9432C32.8194 15.1796 33.2397 15.2979 33.6995 15.2979Z" fill="black"/>
<path d="M26.5394 17.6429C25.252 17.6429 24.293 17.3342 23.6624 16.7167C23.045 16.0862 22.7363 15.1337 22.7363 13.8594V5.12988L25.6921 4.02637V13.958C25.6921 14.4046 25.8169 14.7396 26.0665 14.9629C26.3161 15.1863 26.7037 15.2979 27.2291 15.2979C27.4262 15.2979 27.6101 15.2782 27.7809 15.2388C27.9517 15.1994 28.1225 15.1534 28.2932 15.1009V17.3473C28.1225 17.4393 27.8794 17.5115 27.5641 17.5641C27.262 17.6166 26.9204 17.6429 26.5394 17.6429ZM20.8643 9.62274V7.37631H28.2932V9.62274H20.8643Z" fill="black"/>
<path d="M18.3197 17.4261C18.2409 17.1371 18.1818 16.8283 18.1424 16.4999C18.1161 16.1715 18.103 15.7905 18.103 15.357H18.0241V10.608C18.0241 10.2007 17.8862 9.88543 17.6103 9.6621C17.3476 9.42563 16.9535 9.3074 16.428 9.3074C15.9288 9.3074 15.5281 9.39279 15.2259 9.56357C14.9369 9.73435 14.7464 9.98395 14.6545 10.3124H11.8366C11.968 9.40592 12.4343 8.65711 13.2357 8.06595C14.037 7.47478 15.134 7.1792 16.5265 7.1792C17.9716 7.1792 19.0751 7.50106 19.837 8.14477C20.599 8.78848 20.98 9.71464 20.98 10.9233V15.357C20.98 15.6854 20.9997 16.0204 21.0391 16.362C21.0916 16.6904 21.1704 17.0451 21.2755 17.4261H18.3197ZM14.8121 17.6231C13.8137 17.6231 13.0189 17.3735 12.4278 16.8743C11.8366 16.362 11.541 15.6854 11.541 14.8446C11.541 13.9119 11.8891 13.1631 12.5854 12.5982C13.2948 12.0202 14.2801 11.6458 15.5412 11.475L18.4774 11.0612V12.7756L16.0339 13.15C15.5084 13.2288 15.1209 13.3733 14.8712 13.5835C14.6216 13.7937 14.4968 14.0827 14.4968 14.4505C14.4968 14.779 14.6151 15.0286 14.8515 15.1994C15.088 15.3701 15.4033 15.4555 15.7974 15.4555C16.4148 15.4555 16.9403 15.2913 17.3739 14.9629C17.8074 14.6213 18.0241 14.2272 18.0241 13.7806L18.3 15.357C18.011 16.1058 17.5709 16.6707 16.9797 17.0517C16.3886 17.4326 15.666 17.6231 14.8121 17.6231Z" fill="black"/>
<path d="M0 17.426V3.23804H6.73929C7.79025 3.23804 8.69014 3.42196 9.43895 3.78979C10.2009 4.15763 10.7855 4.66997 11.1927 5.32682C11.6131 5.98367 11.8233 6.75219 11.8233 7.63237C11.8233 8.51255 11.6131 9.28763 11.1927 9.95762C10.7724 10.6276 10.1812 11.1531 9.41924 11.5341C8.67043 11.9019 7.77712 12.0858 6.73929 12.0858H2.40407V9.76057H6.58165C7.27791 9.76057 7.81653 9.57008 8.1975 9.18911C8.59161 8.795 8.78867 8.28265 8.78867 7.65208C8.78867 7.0215 8.59161 6.51572 8.1975 6.13475C7.81653 5.75378 7.27791 5.56329 6.58165 5.56329H3.03465V17.426H0Z" fill="black"/>
</svg>
