<svg width="389" height="352" viewBox="0 0 389 352" fill="none" xmlns="http://www.w3.org/2000/svg">
<path d="M305.744 30.0586H289.96V32.3079H305.744V30.0586Z" fill="black"/>
<path d="M305.744 25.7644H289.96V28.0137H305.744V25.7644Z" fill="black"/>
<path d="M301.235 21.4705H294.471V23.7198H301.235V21.4705Z" fill="black"/>
<path d="M301.235 17.1763H294.471V19.4255H301.235V17.1763Z" fill="black"/>
<path d="M301.235 12.8823H294.471V15.1316H301.235V12.8823Z" fill="black"/>
<path d="M301.235 8.58813H294.471V10.8374H301.235V8.58813Z" fill="black"/>
<path d="M305.744 4.29395H289.96V6.54323H305.744V4.29395Z" fill="black"/>
<path d="M305.744 0H289.96V2.24928H305.744V0Z" fill="black"/>
<path d="M307.999 28.0137H332.057C332.465 27.3108 332.771 26.5534 332.964 25.7644H307.999V28.0137Z" fill="black"/>
<path d="M330.174 17.1763H312.509V19.4255H332.055C331.561 18.5743 330.925 17.8135 330.174 17.1763Z" fill="black"/>
<path d="M312.509 12.8823V15.1317H330.174C330.925 14.4945 331.561 13.7337 332.055 12.8825L312.509 12.8823Z" fill="black"/>
<path d="M332.057 4.29395H307.999V6.54318H332.964C332.771 5.75418 332.465 4.99679 332.057 4.29395Z" fill="black"/>
<path d="M324.603 7.81566e-06H307.999V2.24926H330.41C328.826 0.799865 326.753 -0.00288953 324.603 7.81566e-06Z" fill="black"/>
<path d="M319.273 8.58813H312.509V10.8374H319.273V8.58813Z" fill="black"/>
<path d="M325.627 10.8374H332.91C333.11 10.1043 333.211 9.3479 333.211 8.58813H325.627V10.8374Z" fill="black"/>
<path d="M319.273 21.4705H312.509V23.7198H319.273V21.4705Z" fill="black"/>
<path d="M325.627 21.4705V23.7198H333.211C333.211 22.96 333.11 22.2036 332.91 21.4705H325.627Z" fill="black"/>
<path d="M307.999 32.2854L324.603 32.3076C326.753 32.3135 328.827 31.5104 330.411 30.0583H307.999L307.999 32.2854Z" fill="black"/>
<path d="M353.092 32.3077L353.879 30.0583H352.312L353.092 32.3077Z" fill="black"/>
<path d="M351.592 28.0137H354.599L355.391 25.7644H350.801L351.592 28.0137Z" fill="black"/>
<path d="M350.081 23.7198H356.11L356.902 21.4705H349.289L350.081 23.7198Z" fill="black"/>
<path d="M348.57 19.4256H357.622L358.413 17.1763H347.778L348.57 19.4256Z" fill="black"/>
<path d="M339.566 10.8374H351.748L350.964 8.58813H339.566V10.8374Z" fill="black"/>
<path d="M355.938 6.54301H371.133V4.2937H356.723L355.938 6.54301Z" fill="black"/>
<path d="M358.221 0.000244141L357.437 2.24955H371.135V0.000244141H358.221Z" fill="black"/>
<path d="M346.332 30.0586H335.058V32.3079H346.332V30.0586Z" fill="black"/>
<path d="M346.332 25.7644H335.058V28.0137H346.332V25.7644Z" fill="black"/>
<path d="M346.331 21.4705H339.566V23.7198H346.331V21.4705Z" fill="black"/>
<path d="M346.331 17.1763H339.566V19.4255H346.331V17.1763Z" fill="black"/>
<path d="M366.625 8.58813H355.227L354.443 10.8374H366.625V8.58813Z" fill="black"/>
<path d="M359.86 15.1316H366.624V12.8823H359.86H353.729L353.095 14.7004L352.461 12.8823H346.331H339.566V15.1316H346.331V13.0645L347.058 15.1316H359.132L359.86 13.0648V15.1316Z" fill="black"/>
<path d="M366.625 17.1763H359.86V19.4255H366.625V17.1763Z" fill="black"/>
<path d="M366.625 21.4705H359.86V23.7198H366.625V21.4705Z" fill="black"/>
<path d="M371.134 25.7644H359.86V28.0137H371.134V25.7644Z" fill="black"/>
<path d="M371.134 30.0586H359.86V32.3079H371.134V30.0586Z" fill="black"/>
<path d="M350.252 6.54301L349.468 4.2937H335.058V6.54301H350.252Z" fill="black"/>
<path d="M348.756 2.24955L347.972 0.000244141H335.058V2.24955H348.756Z" fill="black"/>
<path d="M388.175 53.6992V59.6992H270.924V169.372H161.03V250.98H6V351.369H0V244.98H155.03V163.372H264.924V53.6992H388.175Z" fill="black"/>
<path fill-rule="evenodd" clip-rule="evenodd" d="M163.992 120.98C163.993 120.966 163.993 120.951 163.993 120.938L163.992 120.98ZM179.246 112.676V125.193C179.246 126.637 178.165 127.809 176.832 127.809C175.5 127.809 174.418 126.638 174.418 125.193V112.676C174.418 112.632 174.419 112.589 174.423 112.546H174.421C174.421 111.709 173.796 111.03 173.023 111.03C172.253 111.03 171.61 111.706 171.608 112.542C171.608 112.543 171.609 112.544 171.608 112.546C171.61 112.574 171.608 112.603 171.608 112.633C171.609 112.646 171.608 112.662 171.608 112.676V120.938C171.608 120.981 171.611 121.025 171.608 121.067C171.608 124.79 168.823 127.809 165.387 127.809C164.545 127.809 163.743 127.628 163.011 127.299C160.754 126.288 159.166 123.879 159.166 121.067H159.169C159.167 121.025 159.166 120.98 159.166 120.938L159.164 112.675C159.164 112.661 159.164 112.646 159.166 112.632C159.166 112.603 159.167 112.574 159.168 112.546C159.167 112.543 159.168 112.542 159.168 112.541C159.166 111.705 158.54 111.03 157.769 111.03C156.998 111.03 156.371 111.708 156.371 112.546C156.374 112.588 156.375 112.632 156.375 112.676V125.193C156.375 126.637 155.293 127.809 153.96 127.809C152.628 127.809 151.547 126.637 151.547 125.193V112.676C151.547 112.632 151.548 112.589 151.55 112.546H151.549C151.549 108.822 154.335 105.803 157.771 105.803C161.208 105.803 163.992 108.822 163.992 112.546H163.989C163.992 112.588 163.992 112.632 163.992 112.676V120.98C163.992 121.009 163.992 121.038 163.989 121.067V121.072C163.989 121.102 163.99 121.132 163.992 121.161C164.037 121.955 164.645 122.583 165.389 122.583C166.161 122.583 166.785 121.904 166.785 121.067C166.783 121.025 166.785 120.981 166.785 120.938V112.676C166.785 112.632 166.781 112.589 166.785 112.546C166.785 108.822 169.586 105.804 173.022 105.804C176.458 105.804 179.244 108.822 179.244 112.546C179.246 112.589 179.246 112.632 179.246 112.676ZM205.783 127.291H210.594V116.644H210.674L218.334 127.291H224.709L215.928 115.905L224.189 106.431H218.012L210.594 115.079V105.864H205.782L205.783 127.291ZM187.128 114.514C187.381 113.76 187.755 113.095 188.25 112.514C188.745 111.935 189.339 111.471 190.034 111.124C190.73 110.777 191.519 110.602 192.402 110.602C193.283 110.602 194.072 110.778 194.767 111.124C195.462 111.471 196.056 111.935 196.552 112.514C197.046 113.095 197.421 113.76 197.674 114.514C197.928 115.268 198.056 116.049 198.056 116.86C198.056 117.672 197.928 118.454 197.674 119.207C197.421 119.961 197.045 120.627 196.552 121.207C196.056 121.786 195.462 122.249 194.767 122.597C194.072 122.944 193.284 123.118 192.402 123.118C191.519 123.118 190.73 122.944 190.034 122.597C189.339 122.249 188.745 121.786 188.25 121.207C187.755 120.627 187.381 119.961 187.128 119.207C186.873 118.454 186.746 117.672 186.746 116.86C186.746 116.049 186.873 115.268 187.128 114.514ZM182.756 121.359C183.303 122.706 184.045 123.858 184.982 124.814C185.917 125.77 187.028 126.51 188.31 127.03C189.594 127.552 190.957 127.812 192.401 127.812C193.845 127.812 195.207 127.552 196.491 127.03C197.774 126.51 198.883 125.77 199.819 124.814C200.755 123.858 201.497 122.706 202.045 121.359C202.592 120.012 202.867 118.513 202.867 116.86C202.867 115.209 202.592 113.71 202.045 112.363C201.497 111.015 200.755 109.864 199.819 108.908C198.883 107.951 197.774 107.213 196.491 106.692C195.207 106.17 193.845 105.91 192.401 105.91C190.957 105.91 189.594 106.17 188.31 106.692C187.028 107.213 185.917 107.951 184.982 108.908C184.045 109.864 183.303 111.015 182.756 112.363C182.208 113.71 181.934 115.209 181.934 116.86C181.935 118.512 182.208 120.012 182.756 121.359ZM234.925 123.118C231.669 123.118 229.597 120.072 229.597 116.803C229.597 113.573 231.738 110.565 234.925 110.565C238.25 110.565 240.135 113.424 240.135 116.803C240.135 120.22 238.284 123.118 234.925 123.118ZM244.851 106.458H240.67V109.905H240.589C239.081 107.429 236.797 105.839 233.983 105.839C228.439 105.839 224.706 111.008 224.706 116.664C224.706 122.585 228.276 127.843 234.107 127.843C236.838 127.843 239.122 126.253 240.589 123.911H240.67V127.291H244.851V106.458Z" fill="black"/>
<g clip-path="url(#clip0_387_717)">
<path d="M123.859 197.488C123.26 197.224 122.975 196.72 123.015 195.999C123.038 195.583 123.076 195.464 123.259 195.23C123.594 194.802 124.017 194.609 124.53 194.653C125.496 194.734 126.055 195.605 125.782 196.603C125.569 197.385 124.618 197.822 123.859 197.488ZM133.795 211.232C134.319 210.95 134.735 210.49 134.998 209.9C135.308 209.205 135.402 208.681 135.414 207.579L135.425 206.583L134.726 206.627C133.933 206.678 132.883 206.935 132.314 207.218C131.8 207.474 131.255 207.984 131.061 208.392C130.633 209.29 130.983 210.686 131.768 211.214C132.309 211.579 133.136 211.586 133.795 211.232ZM131.101 212.776C129.769 212.476 128.924 211.62 128.707 210.35C128.426 208.71 129.156 207.347 130.71 206.611C131.64 206.17 133.265 205.836 134.688 205.792L135.421 205.769L135.414 204.499C135.403 202.38 135.157 201.664 134.276 201.187C134.076 201.078 133.87 201.051 133.236 201.051C132.481 201.051 132.43 201.061 132.096 201.271C131.663 201.543 131.393 201.975 131.235 202.648C131.169 202.928 131.105 203.197 131.093 203.247C131.076 203.315 130.781 203.338 129.925 203.338H128.78L128.826 203.029C128.983 201.966 129.638 201.016 130.558 200.517C131.257 200.138 131.954 199.988 133.135 199.961C135.7 199.903 136.674 200.505 137.249 202.503C137.362 202.895 137.377 203.417 137.398 207.747L137.422 212.556H136.42H135.418V211.758C135.418 211.319 135.402 210.959 135.384 210.959C135.365 210.959 135.212 211.111 135.045 211.296C134.437 211.966 133.652 212.485 132.956 212.676C132.495 212.803 131.466 212.858 131.101 212.776ZM123.502 207.711C123.502 204.329 123.476 202.481 123.426 202.3C123.384 202.148 123.264 201.927 123.159 201.809C122.944 201.568 122.286 201.305 121.898 201.305C121.659 201.305 121.647 201.293 121.647 201.053C121.647 200.754 121.454 200.813 123.538 200.471C124.401 200.329 125.196 200.195 125.304 200.173L125.5 200.132V206.49V212.847H124.501H123.502L123.501 207.711H123.502ZM110.723 204.955C110.719 200.612 110.704 196.92 110.688 196.75C110.653 196.356 110.433 195.914 110.179 195.73C109.936 195.555 109.289 195.353 108.969 195.353C108.747 195.353 108.732 195.338 108.732 195.103C108.732 194.876 108.755 194.848 108.964 194.812C109.551 194.71 112.287 194.32 112.478 194.311L112.692 194.301V199.037C112.692 201.642 112.697 203.773 112.704 203.773C112.71 203.773 112.851 203.52 113.018 203.211C113.914 201.543 114.761 200.699 115.884 200.352C116.526 200.153 117.544 200.188 118.164 200.429C119.096 200.791 119.734 201.925 119.859 203.442C119.892 203.844 119.914 206.116 119.909 208.491L119.899 212.81H118.9H117.901L117.86 207.911C117.836 204.919 117.791 202.912 117.747 202.757C117.568 202.135 117.22 201.735 116.739 201.599C115.873 201.354 115.056 201.79 114.199 202.953C113.606 203.759 113.218 204.509 112.966 205.337L112.769 205.987L112.73 209.399L112.692 212.81L111.711 212.83L110.73 212.851L110.723 204.955ZM91.6789 211.207C92.1598 210.94 92.4973 210.549 92.7909 209.916C93.1485 209.146 93.2311 208.722 93.2439 207.592L93.2552 206.584L92.5564 206.625C91.7173 206.674 90.6004 206.958 90.0269 207.269C88.814 207.927 88.3825 209.14 88.9291 210.356C89.2415 211.051 89.6161 211.365 90.2453 211.459C90.7257 211.531 91.2644 211.436 91.6789 211.207ZM88.8252 212.752C87.8945 212.535 87.1932 211.982 86.7853 211.142C86.57 210.699 86.5208 210.509 86.4899 210.004C86.377 208.159 87.3485 206.916 89.396 206.286C90.248 206.023 91.5017 205.822 92.4565 205.794L93.2694 205.769L93.228 204.318C93.1696 202.267 92.9549 201.649 92.1498 201.21C91.8999 201.074 91.744 201.051 91.0727 201.051C90.4053 201.051 90.2452 201.075 90.0025 201.208C89.4743 201.497 89.1856 201.975 89.0097 202.853L88.9198 203.301L87.7677 203.321L86.6155 203.341L86.6601 202.995C86.8165 201.779 87.6581 200.754 88.8861 200.285C90.1176 199.815 92.1813 199.814 93.4022 200.284C94.2132 200.596 94.7274 201.273 95.052 202.456C95.199 202.992 95.2051 203.176 95.2299 207.784L95.2556 212.556H94.2523H93.249V211.758C93.249 211.319 93.2328 210.959 93.2131 210.959C93.1934 210.959 93.0605 211.091 92.9179 211.251C92.3228 211.921 91.4777 212.487 90.7873 212.676C90.2599 212.821 89.2824 212.859 88.8252 212.752ZM60.259 211.248C60.8167 210.971 61.1616 210.581 61.5031 209.839C61.8293 209.131 61.9243 208.592 61.925 207.446L61.9261 206.583L61.2304 206.627C60.3887 206.679 59.2655 206.965 58.704 207.269C57.4911 207.927 57.0596 209.14 57.6062 210.356C57.9111 211.034 58.2773 211.35 58.8813 211.457C59.3692 211.542 59.795 211.478 60.2595 211.248H60.259ZM57.5018 212.748C56.5826 212.545 55.8713 211.985 55.4619 211.142C55.2467 210.699 55.1974 210.509 55.1665 210.004C55.0535 208.157 56.0219 206.917 58.0726 206.286C58.9247 206.023 60.1784 205.822 61.1334 205.794L61.9465 205.769L61.9023 204.314C61.8398 202.255 61.6607 201.724 60.8692 201.252C60.5931 201.088 60.4376 201.052 59.8857 201.028C59.1457 200.995 58.8679 201.063 58.4288 201.387C58.0846 201.64 57.8281 202.145 57.6879 202.845L57.5964 203.301L56.4443 203.321L55.2921 203.341L55.3367 202.995C55.4361 202.222 55.9549 201.291 56.5382 200.839C57.2809 200.262 58.4897 199.934 59.8417 199.94C62.2407 199.952 63.213 200.581 63.7291 202.456C63.8768 202.993 63.8826 203.169 63.9066 207.784L63.9314 212.556H62.9285H61.9256V211.758C61.9256 211.319 61.9175 210.959 61.9075 210.959C61.8976 210.959 61.6632 211.181 61.3867 211.451C60.5441 212.275 59.9223 212.617 58.985 212.771C58.4199 212.865 58.001 212.858 57.5018 212.748ZM48.3509 207.711C48.3252 202.029 48.341 202.219 47.8605 201.778C47.5881 201.527 47.014 201.305 46.6389 201.305C46.4506 201.305 46.4351 201.286 46.4556 201.074L46.478 200.842L48.1547 200.568C49.0769 200.417 49.9358 200.276 50.0634 200.255L50.2953 200.217L50.2985 201.796L50.3017 203.374L50.5411 202.737C51.1779 201.042 52.1852 200.217 53.6165 200.217H53.9341V201.347V202.477L53.7736 202.417C53.6853 202.385 53.308 202.358 52.9352 202.358C52.3174 202.358 52.2235 202.377 51.875 202.573C51.3976 202.842 51.0502 203.242 50.7845 203.828C50.3503 204.786 50.3457 204.836 50.3141 209.018L50.2851 212.847H49.3296H48.3741L48.3509 207.711ZM42.6744 212.774C41.7133 212.636 40.9921 212.301 40.6718 211.843C40.1513 211.1 40.0933 210.449 40.0952 205.37L40.0967 201.197L39.0921 201.176L38.0875 201.156L38.1087 200.705L38.1299 200.253L39.1288 200.233L40.1277 200.213L40.1064 199.141L40.0852 198.068L41.0481 197.183C41.5778 196.695 42.0289 196.297 42.0505 196.297C42.0722 196.297 42.0899 197.179 42.0899 198.257C42.0899 199.774 42.11 200.217 42.1791 200.22C42.2281 200.223 42.9586 200.231 43.8023 200.239L45.3364 200.253L45.3576 200.705L45.3788 201.157L43.7694 201.177L42.1601 201.197L42.158 205.836L42.1559 210.475L42.3345 210.844C42.6708 211.539 43.3315 211.801 44.5957 211.74L45.3782 211.702L45.3572 212.179C45.337 212.639 45.3291 212.657 45.1223 212.717C44.8009 212.81 43.1872 212.847 42.6744 212.774ZM31.1454 212.765C30.7966 212.731 30.1624 212.618 29.7362 212.514L28.9611 212.326V211.497C28.9611 211.042 28.9885 210.669 29.022 210.669C29.0555 210.669 29.4488 210.844 29.8961 211.058C30.9425 211.558 31.3127 211.678 32.0017 211.743C33.373 211.872 34.4886 211.449 34.8982 210.644C35.1274 210.193 35.1657 209.201 34.9688 208.813C34.6589 208.202 34.0559 207.781 32.1006 206.809C31.0428 206.283 30.0836 205.643 29.6619 205.181C29.2877 204.77 29.0801 204.226 29.0455 203.565C28.9698 202.119 29.5367 201.083 30.6965 200.546C31.3248 200.255 31.6823 200.165 32.5653 200.071C33.3895 199.984 34.6253 200.078 35.5418 200.297L36.1676 200.446V201.266V202.086L35.6503 201.805C33.7893 200.795 31.568 200.88 31.0094 201.981C30.8426 202.31 30.8329 203.02 30.991 203.331C31.0473 203.441 31.2846 203.712 31.5181 203.932C31.8675 204.261 32.2532 204.489 33.6928 205.214C35.3021 206.025 35.4826 206.135 35.9386 206.586C36.6808 207.32 36.9525 207.986 36.9525 209.072C36.9525 211.777 34.8315 213.126 31.1454 212.765ZM22.5869 211.316C23.051 211.088 23.5588 210.583 23.8132 210.098C24.1824 209.393 24.3233 208.693 24.3233 207.563V206.584L23.6633 206.624C22.9031 206.669 21.7535 206.953 21.1838 207.235C20.6337 207.508 20.0306 208.142 19.8849 208.6C19.7057 209.164 19.7602 209.843 20.0293 210.399C20.2742 210.905 20.4406 211.088 20.8617 211.315C21.2611 211.529 22.1528 211.53 22.5869 211.316ZM20.0065 212.776C18.9082 212.528 18.1255 211.877 17.7489 210.898C17.5271 210.321 17.5232 209.149 17.7411 208.544C18.1541 207.397 19.2087 206.607 20.9034 206.173C21.8852 205.921 22.6017 205.82 23.5916 205.791L24.3228 205.769L24.3217 204.499C24.3201 202.397 24.0634 201.652 23.1816 201.192C22.8755 201.032 21.8443 200.965 21.4319 201.078C20.7309 201.271 20.253 201.913 20.0898 202.882L20.0125 203.341L18.8679 203.321L17.7232 203.302L17.7477 203.011C17.829 202.049 18.5421 201.017 19.4758 200.51C20.1589 200.14 20.8655 199.988 22.0399 199.957C24.7243 199.888 25.8278 200.661 26.2172 202.883C26.2943 203.323 26.3166 204.45 26.3185 208.001L26.321 212.556H25.3221H24.3232V211.742V210.927L23.8772 211.367C23.0956 212.137 22.5612 212.484 21.8616 212.676C21.4002 212.803 20.3719 212.858 20.0065 212.776ZM104.114 211.671C104.483 211.558 105.103 210.98 105.368 210.501C105.749 209.811 106.038 208.686 106.098 207.657C106.265 204.791 105.829 202.69 104.853 201.654C104.203 200.964 103.177 200.778 102.367 201.205C101.549 201.635 100.809 202.846 100.563 204.157C100.446 204.785 100.422 207.198 100.525 208.016C100.618 208.748 100.903 209.71 101.193 210.267C101.474 210.805 102.06 211.425 102.466 211.612C102.826 211.779 103.663 211.808 104.114 211.671ZM98.4573 210.288C98.4573 205.057 98.4318 202.266 98.3831 202.088C98.2203 201.492 97.6442 201.089 96.8522 201.017C96.4694 200.983 96.4216 200.961 96.4002 200.807C96.3871 200.713 96.4066 200.605 96.4434 200.567C96.4985 200.511 100.076 199.927 100.364 199.926C100.428 199.926 100.457 200.198 100.471 200.924L100.491 201.922L100.62 201.66C100.796 201.3 101.492 200.574 101.883 200.342C102.862 199.761 104.697 199.794 105.827 200.415C106.684 200.885 107.451 201.88 107.845 203.032C108.689 205.502 108.449 208.97 107.299 210.928C106.609 212.103 105.505 212.749 104.052 212.827C103.25 212.871 102.787 212.79 102.18 212.503C101.719 212.284 100.946 211.566 100.683 211.111L100.491 210.778L100.473 214.498L100.454 218.218H99.4559H98.4576L98.4566 210.288H98.4573ZM72.9234 208.328C73.8165 207.604 74.4858 206.618 74.7347 205.661C74.8731 205.129 74.8695 203.946 74.728 203.39C74.3238 201.803 73.1148 200.869 71.451 200.857C70.6199 200.851 70.1437 201.027 69.5836 201.546C68.7067 202.36 68.3815 203.2 68.4298 204.525C68.4549 205.217 68.4777 205.317 68.7244 205.825C69.0564 206.508 69.6468 207.137 70.5235 207.741C71.3158 208.287 72.0894 208.709 72.2972 208.709C72.3833 208.709 72.6651 208.538 72.9234 208.328ZM69.8456 219.968C68.6336 219.697 67.6917 219.161 66.9005 218.292C66.0608 217.369 65.7433 216.43 65.7959 215.024C65.8559 213.425 66.3826 212.393 67.7259 211.242L68.1391 210.888L68.6356 211.142C68.9087 211.282 69.1321 211.412 69.1321 211.431C69.1321 211.451 69.0148 211.622 68.8715 211.812C68.23 212.662 67.8521 213.806 67.7982 215.06C67.7545 216.078 67.8494 216.563 68.2589 217.413C68.8965 218.736 70.0295 219.452 71.4867 219.452C73.1494 219.452 74.4031 218.504 74.8023 216.945C74.9771 216.262 74.9485 214.819 74.7484 214.222C74.4491 213.329 73.7761 212.403 72.9734 211.78C72.764 211.618 72.0079 211.154 71.2932 210.75C68.474 209.157 67.3167 208.208 66.7466 207.022C66.4052 206.311 66.2932 205.822 66.292 205.036C66.29 203.634 66.7177 202.516 67.5928 201.636C68.7303 200.492 70.1674 199.996 72.0516 200.095C72.9376 200.141 73.4748 200.261 74.1162 200.555C74.4928 200.727 74.6125 200.742 75.9462 200.776C77.2668 200.81 77.4929 200.796 78.9786 200.587C79.8616 200.462 80.7793 200.328 81.018 200.289C81.2567 200.249 81.4746 200.217 81.5023 200.217C81.53 200.217 81.5435 200.919 81.5322 201.777C81.5209 202.636 81.5298 203.338 81.5521 203.338C81.5744 203.338 81.65 203.15 81.7202 202.92C81.9038 202.32 82.3077 201.567 82.6603 201.168C83.1692 200.592 84.0403 200.217 84.8687 200.217H85.1862V201.349C85.1862 202.402 85.1773 202.478 85.0614 202.426C84.9927 202.394 84.6572 202.355 84.3159 202.338C83.7712 202.311 83.6491 202.329 83.317 202.484C82.639 202.801 82.222 203.273 81.919 204.064C81.5606 205 81.5531 205.104 81.55 209.274L81.5473 212.851L80.5662 212.83L79.5851 212.81L79.5495 207.584C79.5176 202.911 79.5013 202.335 79.3962 202.14C79.1176 201.623 78.5724 201.295 77.8013 201.289C77.1342 201.284 76.7588 201.496 76.4992 201.885C76.2875 202.202 76.2977 202.451 76.5527 203.193C77.0373 204.602 76.7075 206.191 75.6891 207.354C75.2437 207.862 74.3561 208.54 73.6588 208.904C73.3671 209.056 73.1283 209.205 73.1281 209.234C73.1281 209.262 73.2322 209.341 73.3597 209.407C74.1221 209.806 75.5853 210.978 75.971 211.498C76.7005 212.483 77.0602 213.476 77.1077 214.636C77.1717 216.196 76.7539 217.302 75.6975 218.368C75.1759 218.895 74.9666 219.048 74.3364 219.365C73.3415 219.865 72.6293 220.038 71.4154 220.075C70.6576 220.098 70.3227 220.075 69.8456 219.968Z" fill="black"/>
<path d="M91.3574 225.21H90.8741V223.416C90.8741 223.07 90.822 222.819 90.7179 222.665C90.6157 222.51 90.4428 222.433 90.1992 222.433C89.9929 222.433 89.817 222.53 89.6716 222.726C89.5282 222.921 89.4565 223.155 89.4565 223.428V225.21H88.9732V223.354C88.9732 222.74 88.7443 222.433 88.2865 222.433C88.0743 222.433 87.8994 222.525 87.7619 222.71C87.6244 222.894 87.5556 223.133 87.5556 223.428V225.21H87.0723V222.085H87.5556V222.579H87.5674C87.7815 222.201 88.0939 222.012 88.5046 222.012C88.7109 222.012 88.8906 222.072 89.0439 222.192C89.1972 222.31 89.3023 222.465 89.3593 222.659C89.5832 222.227 89.9173 222.012 90.3613 222.012C91.0254 222.012 91.3574 222.436 91.3574 223.284V225.21Z" fill="black"/>
<path d="M94.6963 223.773H92.5655C92.5733 224.121 92.6637 224.389 92.8366 224.578C93.0095 224.768 93.2473 224.862 93.5498 224.862C93.8897 224.862 94.2021 224.746 94.487 224.514V224.984C94.2218 225.184 93.8711 225.283 93.4349 225.283C93.0085 225.283 92.6735 225.142 92.4299 224.859C92.1863 224.574 92.0645 224.174 92.0645 223.66C92.0645 223.173 92.1971 222.778 92.4623 222.472C92.7295 222.165 93.0606 222.012 93.4555 222.012C93.8504 222.012 94.156 222.144 94.3721 222.408C94.5882 222.673 94.6963 223.04 94.6963 223.51V223.773ZM94.2012 223.348C94.1992 223.059 94.1314 222.835 93.9978 222.674C93.8661 222.513 93.6824 222.433 93.4467 222.433C93.2188 222.433 93.0252 222.517 92.8661 222.686C92.7069 222.855 92.6087 223.076 92.5714 223.348H94.2012Z" fill="black"/>
<path d="M99.7158 225.21H99.2325V223.416C99.2325 223.07 99.1805 222.819 99.0763 222.665C98.9741 222.51 98.8012 222.433 98.5576 222.433C98.3513 222.433 98.1755 222.53 98.0301 222.726C97.8866 222.921 97.8149 223.155 97.8149 223.428V225.21H97.3316V223.354C97.3316 222.74 97.1027 222.433 96.6449 222.433C96.4327 222.433 96.2578 222.525 96.1203 222.71C95.9828 222.894 95.914 223.133 95.914 223.428V225.21H95.4307V222.085H95.914V222.579H95.9258C96.1399 222.201 96.4523 222.012 96.863 222.012C97.0693 222.012 97.2491 222.072 97.4023 222.192C97.5556 222.31 97.6607 222.465 97.7177 222.659C97.9417 222.227 98.2756 222.012 98.7197 222.012C99.3838 222.012 99.7158 222.436 99.7158 223.284V225.21Z" fill="black"/>
<path d="M101.124 224.758H101.112V225.21H100.629V220.583H101.112V222.634H101.124C101.362 222.219 101.71 222.012 102.167 222.012C102.554 222.012 102.857 222.152 103.075 222.433C103.295 222.712 103.405 223.086 103.405 223.556C103.405 224.079 103.282 224.498 103.037 224.813C102.791 225.127 102.455 225.283 102.029 225.283C101.63 225.283 101.328 225.108 101.124 224.758ZM101.112 223.498V223.934C101.112 224.193 101.193 224.412 101.354 224.594C101.517 224.773 101.723 224.862 101.973 224.862C102.266 224.862 102.494 224.746 102.659 224.514C102.826 224.282 102.91 223.96 102.91 223.547C102.91 223.199 102.832 222.926 102.677 222.729C102.522 222.531 102.312 222.433 102.046 222.433C101.766 222.433 101.54 222.534 101.369 222.738C101.198 222.939 101.112 223.193 101.112 223.498Z" fill="black"/>
<path d="M106.604 223.773H104.473C104.481 224.121 104.571 224.389 104.744 224.578C104.917 224.768 105.154 224.862 105.457 224.862C105.797 224.862 106.109 224.746 106.394 224.514V224.984C106.129 225.184 105.778 225.283 105.342 225.283C104.916 225.283 104.581 225.142 104.337 224.859C104.094 224.574 103.972 224.174 103.972 223.66C103.972 223.173 104.104 222.778 104.37 222.472C104.637 222.165 104.968 222.012 105.363 222.012C105.758 222.012 106.063 222.144 106.279 222.408C106.495 222.673 106.604 223.04 106.604 223.51V223.773ZM106.108 223.348C106.106 223.059 106.039 222.835 105.905 222.674C105.773 222.513 105.59 222.433 105.354 222.433C105.126 222.433 104.932 222.517 104.773 222.686C104.614 222.855 104.516 223.076 104.479 223.348H106.108Z" fill="black"/>
<path d="M108.911 222.591C108.826 222.524 108.704 222.491 108.545 222.491C108.339 222.491 108.166 222.591 108.027 222.793C107.889 222.994 107.82 223.269 107.82 223.617V225.21H107.337V222.085H107.82V222.729H107.832C107.901 222.509 108.006 222.338 108.147 222.216C108.289 222.092 108.447 222.03 108.622 222.03C108.748 222.03 108.844 222.044 108.911 222.073V222.591Z" fill="black"/>
<path d="M112.347 225.283C111.901 225.283 111.544 225.138 111.277 224.847C111.012 224.554 110.879 224.166 110.879 223.684C110.879 223.159 111.017 222.749 111.294 222.454C111.571 222.159 111.946 222.012 112.417 222.012C112.867 222.012 113.218 222.155 113.469 222.442C113.723 222.729 113.85 223.127 113.85 223.635C113.85 224.134 113.713 224.534 113.44 224.835C113.169 225.134 112.804 225.283 112.347 225.283ZM112.382 222.433C112.072 222.433 111.826 222.543 111.645 222.762C111.464 222.98 111.374 223.281 111.374 223.666C111.374 224.036 111.465 224.328 111.648 224.542C111.831 224.755 112.075 224.862 112.382 224.862C112.694 224.862 112.934 224.757 113.101 224.548C113.27 224.338 113.355 224.04 113.355 223.654C113.355 223.263 113.27 222.962 113.101 222.75C112.934 222.539 112.694 222.433 112.382 222.433Z" fill="black"/>
<path d="M116.113 221.023C116.019 220.968 115.912 220.94 115.792 220.94C115.454 220.94 115.285 221.161 115.285 221.603V222.085H115.993V222.512H115.285V225.21H114.805V222.512H114.289V222.085H114.805V221.578C114.805 221.251 114.896 220.992 115.079 220.803C115.262 220.612 115.49 220.516 115.763 220.516C115.91 220.516 116.027 220.534 116.113 220.571V221.023Z" fill="black"/>
<path d="M136.119 223.485H134.892L135.5 221.73H135.512L136.119 223.485ZM133.412 225.13H134.285L134.652 224.155H136.354L136.715 225.13H137.648L135.999 220.877H135.049L133.412 225.13Z" fill="black"/>
<path d="M120.804 223.487H119.568L120.18 221.739H120.192L120.804 223.487ZM118.076 225.126H118.955L119.325 224.155H121.041L121.404 225.126H122.344L120.683 220.889H119.725L118.076 225.126Z" fill="black"/>
<path d="M127.29 221.548H126.082V220.876H129.344V221.548H128.136V225.139H127.29V221.548Z" fill="black"/>
<path d="M130.781 221.545H131.059C131.482 221.545 131.954 221.588 131.954 222.102C131.954 222.635 131.476 222.696 131.059 222.696H130.781V221.545ZM129.935 225.144H130.781V223.369H131.053C131.41 223.369 131.519 223.492 131.64 223.81L132.147 225.144H133.091L132.413 223.473C132.329 223.283 132.196 223.051 131.966 223.033V223.02C132.504 222.947 132.837 222.531 132.837 222.029C132.837 220.842 131.755 220.872 130.847 220.872H129.935V225.144Z" fill="black"/>
<path d="M125.266 221.675C125.004 221.56 124.713 221.493 124.421 221.493C124.136 221.493 123.768 221.62 123.768 222.083C123.768 222.819 125.586 222.508 125.586 223.932C125.586 224.862 124.867 225.215 124.029 225.215C123.577 225.215 123.375 225.154 122.965 225.051L123.042 224.284C123.328 224.442 123.654 224.546 123.981 224.546C124.296 224.546 124.719 224.382 124.719 223.998C124.719 223.19 122.899 223.524 122.899 222.119C122.899 221.17 123.619 220.824 124.35 220.824C124.707 220.824 125.04 220.872 125.343 220.976L125.266 221.675Z" fill="black"/>
</g>
<defs>
<clipPath id="clip0_387_717">
<rect width="120" height="31" fill="white" transform="translate(17.5801 194.301)"/>
</clipPath>
</defs>
</svg>
