<?xml version="1.0" encoding="utf-8"?>
<!-- Generator: Adobe Illustrator 25.3.1, SVG Export Plug-In . SVG Version: 6.00 Build 0)  -->
<svg version="1.1" id="Layer_1" xmlns="http://www.w3.org/2000/svg" xmlns:xlink="http://www.w3.org/1999/xlink" x="0px" y="0px"
	 viewBox="0 0 666.7 666.7" style="enable-background:new 0 0 666.7 666.7;" xml:space="preserve">
<style type="text/css">
	.st0{fill:#32373C;}
</style>
<g id="W_Mark_2_">
	<path class="st0" d="M333.3,20c42.3,0,83.3,8.3,122,24.6c18.6,7.9,36.5,17.6,53.2,28.9c16.6,11.2,32.2,24.1,46.4,38.3
		c14.2,14.2,27.1,29.8,38.3,46.4c11.3,16.7,21,34.7,28.9,53.2c16.3,38.6,24.6,79.6,24.6,122s-8.3,83.3-24.6,122
		c-7.9,18.6-17.6,36.5-28.9,53.2c-11.2,16.6-24.1,32.2-38.3,46.4c-14.2,14.2-29.8,27.1-46.4,38.3c-16.7,11.3-34.7,21-53.2,28.9
		c-38.6,16.3-79.6,24.6-122,24.6c-42.3,0-83.3-8.3-122-24.6c-18.6-7.9-36.5-17.6-53.2-28.9c-16.6-11.2-32.2-24.1-46.4-38.3
		c-14.2-14.2-27.1-29.8-38.3-46.4c-11.3-16.7-21-34.7-28.9-53.2C28.3,416.7,20,375.6,20,333.3s8.3-83.3,24.6-122
		c7.9-18.6,17.6-36.5,28.9-53.2c11.2-16.6,24.1-32.2,38.3-46.4c14.2-14.2,29.8-27.1,46.4-38.3c16.7-11.3,34.7-21,53.2-28.9
		C250,28.3,291,20,333.3,20 M333.3,0C149.2,0,0,149.2,0,333.3c0,184.1,149.2,333.3,333.3,333.3c184.1,0,333.3-149.2,333.3-333.3
		C666.7,149.2,517.4,0,333.3,0L333.3,0z"/>
	<path class="st0" d="M55.6,333.3c0,109.9,63.9,205,156.6,250l-132.5-363C64.2,254.8,55.6,293.1,55.6,333.3z M520.9,319.3
		c0-34.3-12.3-58.1-22.9-76.6c-14.1-22.9-27.3-42.3-27.3-65.1c0-25.5,19.4-49.3,46.6-49.3c1.2,0,2.4,0.1,3.6,0.2
		c-49.4-45.3-115.3-72.9-187.6-72.9c-97,0-182.4,49.8-232.1,125.2c6.5,0.2,12.7,0.3,17.9,0.3c29,0,74-3.5,74-3.5
		c15-0.9,16.7,21.1,1.8,22.9c0,0-15.1,1.8-31.8,2.6L264.3,504l60.8-182.3l-43.3-118.6c-15-0.9-29.1-2.6-29.1-2.6
		c-15-0.9-13.2-23.8,1.8-22.9c0,0,45.9,3.5,73.2,3.5c29,0,74-3.5,74-3.5c15-0.9,16.7,21.1,1.8,22.9c0,0-15.1,1.8-31.8,2.6L472,501.7
		l28.7-90.8C513.4,371.2,520.9,343.1,520.9,319.3z M338.2,357.6l-83.4,242.2c24.9,7.3,51.2,11.3,78.5,11.3
		c32.3,0,63.4-5.6,92.2-15.7c-0.7-1.2-1.4-2.5-2-3.8L338.2,357.6z M577.1,200.1c1.2,8.8,1.9,18.3,1.9,28.6
		c0,28.2-5.3,59.9-21.1,99.5L473,573.4c82.6-48.1,138.1-137.6,138.1-240.1C611.1,285,598.8,239.6,577.1,200.1z"/>
</g>
</svg>
